<ttFont>
<head>
    <!-- Most of this table will be recalculated by the compiler -->
    <tableVersion value="1.0"/>
    <fontRevision value="0.0"/>
    <checkSumAdjustment value="0x7fbb97c2"/>
    <magicNumber value="0x5f0f3cf5"/>
    <flags value="00000000 00000000"/>
    <unitsPerEm value="2048"/>
    <created value="Tue Mar 19 19:46:27 2002"/>
    <modified value="Fri Apr  8 18:36:21 2011"/>
    <xMin value="7"/>
    <yMin value="-579"/>
    <xMax value="1851"/>
    <yMax value="1263"/>
    <macStyle value="00000000 00000000"/>
    <lowestRecPPEM value="8"/>
    <fontDirectionHint value="1"/>
    <indexToLocFormat value="0"/>
    <glyphDataFormat value="0"/>
  </head>
    <TTGlyph name=".notdef" xMin="128" yMin="0" xMax="896" yMax="1263">
      <contour>
        <pt x="128" y="0" on="1"/>
        <pt x="128" y="1263" on="1"/>
        <pt x="896" y="1263" on="1"/>
        <pt x="896" y="0" on="1"/>
      </contour>
      <contour>
        <pt x="256" y="128" on="1"/>
        <pt x="768" y="128" on="1"/>
        <pt x="768" y="1135" on="1"/>
        <pt x="256" y="1135" on="1"/>
      </contour>
    </TTGlyph>
    <TTGlyph name="A" xMin="39" yMin="-534" xMax="1789" yMax="1208">
      <contour>
        <pt x="39" y="-157" on="1"/>
        <pt x="39" y="212" on="1"/>
        <pt x="166" y="336" on="1"/>
        <pt x="407" y="336" on="1"/>
        <pt x="537" y="210" on="1"/>
        <pt x="668" y="86" on="1"/>
        <pt x="668" y="1085" on="1"/>
        <pt x="792" y="1208" on="1"/>
        <pt x="1030" y="1208" on="1"/>
        <pt x="1091" y="1146" on="1"/>
        <pt x="1153" y="1085" on="1"/>
        <pt x="1153" y="86" on="1"/>
        <pt x="1415" y="336" on="1"/>
        <pt x="1662" y="336" on="1"/>
        <pt x="1724" y="273" on="1"/>
        <pt x="1789" y="212" on="1"/>
        <pt x="1789" y="-157" on="1"/>
        <pt x="1535" y="-344" on="1"/>
        <pt x="1283" y="-534" on="1"/>
        <pt x="539" y="-534" on="1"/>
      </contour>
      <contour>
        <pt x="786" y="1090" on="1"/>
        <pt x="786" y="-154" on="1"/>
        <pt x="1035" y="-154" on="1"/>
        <pt x="1035" y="1090" on="1"/>
      </contour>
    </TTGlyph>
    <TTGlyph name="AE" xMin="365" yMin="-372" xMax="1413" yMax="1084">
      <contour>
        <pt x="547" y="-195" on="1"/>
        <pt x="1413" y="-195" on="1"/>
        <pt x="1413" y="-372" on="1"/>
        <pt x="365" y="-372" on="1"/>
        <pt x="365" y="-224" on="1"/>
        <pt x="434" y="-201" on="0"/>
        <pt x="521" y="-101" on="0"/>
        <pt x="544" y="-35" on="1"/>
        <pt x="566" y="26" on="0"/>
        <pt x="584" y="173" on="0"/>
        <pt x="584" y="249" on="1"/>
        <pt x="417" y="249" on="1"/>
        <pt x="417" y="345" on="1"/>
        <pt x="584" y="345" on="1"/>
        <pt x="581" y="385" on="0"/>
        <pt x="569" y="545" on="0"/>
        <pt x="569" y="597" on="1"/>
        <pt x="569" y="809" on="0"/>
        <pt x="822" y="1084" on="0"/>
        <pt x="1024" y="1084" on="1"/>
        <pt x="1112" y="1084" on="0"/>
        <pt x="1245" y="1030" on="0"/>
        <pt x="1288" y="990" on="1"/>
        <pt x="1332" y="948" on="0"/>
        <pt x="1380" y="843" on="0"/>
        <pt x="1380" y="788" on="1"/>
        <pt x="1380" y="738" on="0"/>
        <pt x="1332" y="663" on="0"/>
        <pt x="1276" y="663" on="1"/>
        <pt x="1217" y="663" on="0"/>
        <pt x="1149" y="722" on="0"/>
        <pt x="1149" y="760" on="1"/>
        <pt x="1149" y="804" on="0"/>
        <pt x="1174" y="898" on="0"/>
        <pt x="1179" y="920" on="1"/>
        <pt x="1166" y="948" on="0"/>
        <pt x="1082" y="1004" on="0"/>
        <pt x="1020" y="1004" on="1"/>
        <pt x="985" y="1004" on="0"/>
        <pt x="904" y="984" on="0"/>
        <pt x="863" y="951" on="1"/>
        <pt x="824" y="919" on="0"/>
        <pt x="774" y="801" on="0"/>
        <pt x="774" y="711" on="1"/>
        <pt x="774" y="647" on="0"/>
        <pt x="784" y="420" on="0"/>
        <pt x="784" y="345" on="1"/>
        <pt x="1180" y="345" on="1"/>
        <pt x="1180" y="249" on="1"/>
        <pt x="784" y="249" on="1"/>
        <pt x="784" y="113" on="0"/>
        <pt x="664" y="-110" on="0"/>
        <pt x="547" y="-186" on="1"/>
      </contour>
    </TTGlyph>
    <TTGlyph name="Aacute" xMin="454" yMin="-490" xMax="1541" yMax="1149">
      <contour>
        <pt x="542" y="-381" on="1"/>
        <pt x="775" y="-381" on="0"/>
        <pt x="957" y="-303" on="1"/>
        <pt x="1117" y="-236" on="0"/>
        <pt x="1233" y="-109" on="1"/>
        <pt x="1328" y="-3" on="0"/>
        <pt x="1372" y="130" on="1"/>
        <pt x="1392" y="191" on="0"/>
        <pt x="1415" y="323" on="0"/>
        <pt x="1415" y="382" on="1"/>
        <pt x="1415" y="492" on="0"/>
        <pt x="1346" y="627" on="1"/>
        <pt x="1282" y="738" on="0"/>
        <pt x="1161" y="847" on="1"/>
        <pt x="930" y="1055" on="0"/>
        <pt x="540" y="1055" on="1"/>
        <pt x="540" y="1101" on="1"/>
        <pt x="540" y="1149" on="1"/>
        <pt x="1043" y="1149" on="0"/>
        <pt x="1541" y="639" on="0"/>
        <pt x="1541" y="330" on="1"/>
        <pt x="1541" y="35" on="0"/>
        <pt x="1043" y="-490" on="0"/>
        <pt x="542" y="-490" on="1"/>
      </contour>
      <contour>
        <pt x="963" y="336" on="1"/>
        <pt x="963" y="294" on="0"/>
        <pt x="954" y="281" on="1"/>
        <pt x="954" y="263" on="0"/>
        <pt x="946" y="250" on="1"/>
        <pt x="946" y="242" on="0"/>
        <pt x="934" y="222" on="1"/>
        <pt x="914" y="183" on="0"/>
        <pt x="855" y="132" on="1"/>
        <pt x="830" y="118" on="1"/>
        <pt x="783" y="96" on="1"/>
        <pt x="746" y="86" on="1"/>
        <pt x="708" y="86" on="1"/>
        <pt x="652" y="86" on="0"/>
        <pt x="593" y="111" on="1"/>
        <pt x="557" y="125" on="0"/>
        <pt x="545" y="141" on="1"/>
        <pt x="500" y="193" on="1"/>
        <pt x="483" y="222" on="1"/>
        <pt x="465" y="260" on="1"/>
        <pt x="457" y="302" on="1"/>
        <pt x="454" y="336" on="1"/>
        <pt x="454" y="365" on="1"/>
        <pt x="454" y="380" on="0"/>
        <pt x="460" y="394" on="1"/>
        <pt x="464" y="416" on="1"/>
        <pt x="467" y="428" on="0"/>
        <pt x="479" y="447" on="1"/>
        <pt x="507" y="499" on="0"/>
        <pt x="560" y="538" on="1"/>
        <pt x="629" y="586" on="0"/>
        <pt x="708" y="586" on="1"/>
        <pt x="736" y="586" on="0"/>
        <pt x="791" y="572" on="0"/>
        <pt x="822" y="558" on="1"/>
        <pt x="873" y="531" on="0"/>
        <pt x="914" y="480" on="1"/>
        <pt x="963" y="414" on="0"/>
      </contour>
    </TTGlyph>
    <TTGlyph name="Acircumflex" xMin="189" yMin="-382" xMax="1665" yMax="1072">
      <contour>
        <pt x="924" y="1072" on="1"/>
        <pt x="1223" y="1072" on="0"/>
        <pt x="1665" y="642" on="0"/>
        <pt x="1665" y="346" on="1"/>
        <pt x="1665" y="45" on="0"/>
        <pt x="1231" y="-382" on="0"/>
        <pt x="924" y="-382" on="1"/>
        <pt x="636" y="-382" on="0"/>
        <pt x="406" y="-169" on="1"/>
        <pt x="312" y="-75" on="0"/>
        <pt x="245" y="65" on="1"/>
        <pt x="225" y="126" on="1"/>
        <pt x="205" y="199" on="1"/>
        <pt x="189" y="292" on="0"/>
        <pt x="189" y="346" on="1"/>
        <pt x="189" y="640" on="0"/>
        <pt x="619" y="1072" on="0"/>
      </contour>
      <contour>
        <pt x="911" y="963" on="1"/>
        <pt x="1034" y="963" on="0"/>
        <pt x="1073" y="952" on="1"/>
        <pt x="1110" y="944" on="1"/>
        <pt x="1145" y="935" on="1"/>
        <pt x="1201" y="911" on="1"/>
        <pt x="1315" y="858" on="1"/>
        <pt x="1349" y="839" on="0"/>
        <pt x="1373" y="817" on="1"/>
        <pt x="1399" y="792" on="1"/>
        <pt x="1419" y="773" on="1"/>
        <pt x="1443" y="747" on="0"/>
        <pt x="1459" y="723" on="1"/>
        <pt x="1476" y="701" on="0"/>
        <pt x="1489" y="677" on="1"/>
        <pt x="1518" y="627" on="1"/>
        <pt x="1529" y="601" on="1"/>
        <pt x="1542" y="573" on="1"/>
        <pt x="1562" y="525" on="0"/>
        <pt x="1572" y="474" on="1"/>
        <pt x="1579" y="425" on="1"/>
        <pt x="1582" y="375" on="1"/>
        <pt x="1582" y="255" on="0"/>
        <pt x="1542" y="148" on="1"/>
        <pt x="1516" y="91" on="1"/>
        <pt x="1489" y="41" on="1"/>
        <pt x="1458" y="-6" on="1"/>
        <pt x="1421" y="-52" on="1"/>
        <pt x="1367" y="-107" on="1"/>
        <pt x="1315" y="-153" on="1"/>
        <pt x="1258" y="-192" on="1"/>
        <pt x="1201" y="-221" on="1"/>
        <pt x="1160" y="-241" on="1"/>
        <pt x="1135" y="-249" on="1"/>
        <pt x="1065" y="-269" on="1"/>
        <pt x="994" y="-282" on="1"/>
        <pt x="911" y="-295" on="1"/>
      </contour>
      <contour>
        <pt x="873" y="963" on="1"/>
        <pt x="842" y="963" on="1"/>
        <pt x="821" y="963" on="1"/>
        <pt x="803" y="963" on="1"/>
        <pt x="791" y="963" on="1"/>
        <pt x="745" y="963" on="0"/>
        <pt x="733" y="959" on="1"/>
        <pt x="699" y="956" on="0"/>
        <pt x="691" y="948" on="1"/>
        <pt x="672" y="943" on="0"/>
        <pt x="658" y="935" on="1"/>
        <pt x="614" y="914" on="1"/>
        <pt x="574" y="891" on="1"/>
        <pt x="536" y="867" on="0"/>
        <pt x="502" y="837" on="1"/>
        <pt x="459" y="800" on="0"/>
        <pt x="380" y="695" on="1"/>
        <pt x="279" y="534" on="0"/>
        <pt x="279" y="347" on="1"/>
        <pt x="280" y="303" on="1"/>
        <pt x="280" y="285" on="0"/>
        <pt x="284" y="277" on="1"/>
        <pt x="287" y="257" on="0"/>
        <pt x="302" y="216" on="1"/>
        <pt x="304" y="198" on="1"/>
        <pt x="309" y="178" on="1"/>
        <pt x="318" y="153" on="1"/>
        <pt x="323" y="139" on="1"/>
        <pt x="328" y="124" on="1"/>
        <pt x="344" y="87" on="1"/>
        <pt x="422" y="-84" on="0"/>
        <pt x="747" y="-289" on="0"/>
        <pt x="934" y="-289" on="1"/>
        <pt x="954" y="-289" on="1"/>
        <pt x="971" y="-289" on="1"/>
        <pt x="987" y="-289" on="0"/>
        <pt x="1007" y="-282" on="1"/>
        <pt x="1069" y="-273" on="1"/>
        <pt x="1097" y="-270" on="0"/>
        <pt x="1132" y="-254" on="1"/>
        <pt x="1163" y="-245" on="1"/>
        <pt x="1198" y="-230" on="1"/>
        <pt x="1362" y="-155" on="0"/>
        <pt x="1575" y="177" on="0"/>
        <pt x="1575" y="361" on="1"/>
        <pt x="1572" y="430" on="1"/>
        <pt x="1572" y="445" on="1"/>
        <pt x="1568" y="465" on="1"/>
        <pt x="1568" y="478" on="0"/>
        <pt x="1566" y="480" on="1"/>
        <pt x="1566" y="490" on="0"/>
        <pt x="1561" y="499" on="1"/>
        <pt x="1554" y="532" on="1"/>
        <pt x="1551" y="551" on="0"/>
        <pt x="1544" y="562" on="1"/>
        <pt x="1517" y="623" on="1"/>
        <pt x="1485" y="700" on="0"/>
        <pt x="1419" y="768" on="1"/>
        <pt x="1389" y="801" on="0"/>
        <pt x="1349" y="832" on="1"/>
        <pt x="1267" y="888" on="1"/>
        <pt x="1229" y="907" on="1"/>
        <pt x="1185" y="926" on="1"/>
        <pt x="1147" y="940" on="1"/>
        <pt x="1105" y="953" on="1"/>
        <pt x="1019" y="972" on="1"/>
        <pt x="994" y="973" on="1"/>
        <pt x="975" y="975" on="1"/>
        <pt x="926" y="977" on="1"/>
        <pt x="899" y="977" on="1"/>
      </contour>
    </TTGlyph>
    <TTGlyph name="Adieresis" xMin="340" yMin="-256" xMax="1488" yMax="1013">
      <contour>
        <pt x="340" y="-256" on="1"/>
        <pt x="340" y="-134" on="1"/>
        <pt x="977" y="341" on="1"/>
        <pt x="387" y="934" on="1"/>
        <pt x="387" y="1013" on="1"/>
        <pt x="1448" y="1013" on="1"/>
        <pt x="1448" y="790" on="1"/>
        <pt x="1343" y="790" on="1"/>
        <pt x="1341" y="807" on="1"/>
        <pt x="1333" y="924" on="0"/>
        <pt x="1309" y="944" on="0"/>
        <pt x="1174" y="944" on="1"/>
        <pt x="597" y="944" on="1"/>
        <pt x="1147" y="392" on="1"/>
        <pt x="443" y="-134" on="1"/>
        <pt x="1166" y="-134" on="1"/>
        <pt x="1329" y="-134" on="0"/>
        <pt x="1375" y="-103" on="0"/>
        <pt x="1382" y="8" on="1"/>
        <pt x="1383" y="24" on="1"/>
        <pt x="1488" y="24" on="1"/>
        <pt x="1488" y="-256" on="1"/>
      </contour>
    </TTGlyph>
    <TTGlyph name="Agrave" xMin="190" yMin="-397" xMax="1638" yMax="1031">
      <contour>
        <pt x="1523" y="340" on="1"/>
        <pt x="1523" y="229" on="0"/>
        <pt x="1512" y="178" on="1"/>
        <pt x="1504" y="141" on="1"/>
        <pt x="1495" y="106" on="1"/>
        <pt x="1471" y="50" on="1"/>
        <pt x="1418" y="-64" on="1"/>
        <pt x="1404" y="-94" on="0"/>
        <pt x="1377" y="-122" on="1"/>
        <pt x="1333" y="-168" on="1"/>
        <pt x="1321" y="-181" on="0"/>
        <pt x="1283" y="-208" on="1"/>
        <pt x="1259" y="-225" on="0"/>
        <pt x="1237" y="-238" on="1"/>
        <pt x="1187" y="-267" on="1"/>
        <pt x="1161" y="-278" on="1"/>
        <pt x="1133" y="-291" on="1"/>
        <pt x="1084" y="-314" on="0"/>
        <pt x="1034" y="-321" on="1"/>
        <pt x="985" y="-328" on="1"/>
        <pt x="935" y="-331" on="1"/>
        <pt x="812" y="-338" on="0"/>
        <pt x="708" y="-291" on="1"/>
        <pt x="651" y="-265" on="1"/>
        <pt x="601" y="-238" on="1"/>
        <pt x="554" y="-207" on="1"/>
        <pt x="508" y="-170" on="1"/>
        <pt x="453" y="-116" on="1"/>
        <pt x="407" y="-64" on="1"/>
        <pt x="368" y="-7" on="1"/>
        <pt x="339" y="50" on="1"/>
        <pt x="319" y="91" on="1"/>
        <pt x="311" y="116" on="1"/>
        <pt x="291" y="186" on="1"/>
        <pt x="278" y="257" on="1"/>
        <pt x="265" y="340" on="1"/>
      </contour>
      <contour>
        <pt x="1564" y="611" on="1"/>
        <pt x="1601" y="530" on="0"/>
        <pt x="1612" y="465" on="1"/>
        <pt x="1624" y="391" on="1"/>
        <pt x="1628" y="317" on="1"/>
        <pt x="1638" y="129" on="0"/>
        <pt x="1516" y="-69" on="1"/>
        <pt x="1472" y="-140" on="0"/>
        <pt x="1384" y="-224" on="1"/>
        <pt x="1314" y="-291" on="0"/>
        <pt x="1209" y="-338" on="1"/>
        <pt x="1131" y="-365" on="1"/>
        <pt x="1066" y="-386" on="1"/>
        <pt x="994" y="-397" on="1"/>
        <pt x="916" y="-397" on="1"/>
        <pt x="702" y="-397" on="0"/>
        <pt x="533" y="-287" on="1"/>
        <pt x="370" y="-181" on="0"/>
        <pt x="264" y="24" on="1"/>
        <pt x="239" y="86" on="1"/>
        <pt x="216" y="166" on="1"/>
        <pt x="204" y="241" on="1"/>
        <pt x="200" y="316" on="1"/>
        <pt x="190" y="505" on="0"/>
        <pt x="428" y="893" on="0"/>
        <pt x="619" y="971" on="1"/>
        <pt x="653" y="985" on="1"/>
        <pt x="690" y="999" on="1"/>
        <pt x="727" y="1011" on="1"/>
        <pt x="767" y="1020" on="1"/>
        <pt x="819" y="1028" on="1"/>
        <pt x="835" y="1031" on="1"/>
        <pt x="912" y="1031" on="1"/>
        <pt x="970" y="1031" on="0"/>
        <pt x="1021" y="1024" on="1"/>
        <pt x="1085" y="1015" on="0"/>
        <pt x="1114" y="1002" on="1"/>
        <pt x="1195" y="983" on="0"/>
        <pt x="1299" y="918" on="1"/>
        <pt x="1471" y="811" on="0"/>
      </contour>
      <contour>
        <pt x="1523" y="371" on="1"/>
        <pt x="1523" y="453" on="1"/>
        <pt x="1523" y="496" on="0"/>
        <pt x="1519" y="511" on="1"/>
        <pt x="1517" y="544" on="0"/>
        <pt x="1508" y="553" on="1"/>
        <pt x="1505" y="566" on="0"/>
        <pt x="1495" y="586" on="1"/>
        <pt x="1474" y="630" on="1"/>
        <pt x="1451" y="670" on="1"/>
        <pt x="1434" y="699" on="0"/>
        <pt x="1397" y="742" on="1"/>
        <pt x="1342" y="805" on="0"/>
        <pt x="1255" y="864" on="1"/>
        <pt x="1099" y="969" on="0"/>
        <pt x="907" y="965" on="1"/>
        <pt x="863" y="964" on="1"/>
        <pt x="844" y="964" on="0"/>
        <pt x="837" y="960" on="1"/>
        <pt x="817" y="957" on="0"/>
        <pt x="776" y="942" on="1"/>
        <pt x="758" y="940" on="1"/>
        <pt x="738" y="935" on="1"/>
        <pt x="684" y="916" on="1"/>
        <pt x="647" y="900" on="1"/>
        <pt x="480" y="828" on="0"/>
        <pt x="374" y="660" on="1"/>
        <pt x="271" y="497" on="0"/>
        <pt x="271" y="310" on="1"/>
        <pt x="271" y="273" on="1"/>
        <pt x="271" y="257" on="0"/>
        <pt x="278" y="237" on="1"/>
        <pt x="287" y="175" on="1"/>
        <pt x="292" y="144" on="0"/>
        <pt x="306" y="112" on="1"/>
        <pt x="315" y="81" on="1"/>
        <pt x="330" y="46" on="1"/>
        <pt x="398" y="-114" on="0"/>
        <pt x="571" y="-225" on="1"/>
        <pt x="749" y="-338" on="0"/>
        <pt x="921" y="-331" on="1"/>
        <pt x="1005" y="-328" on="1"/>
        <pt x="1025" y="-324" on="1"/>
        <pt x="1037" y="-324" on="0"/>
        <pt x="1040" y="-322" on="1"/>
        <pt x="1050" y="-322" on="0"/>
        <pt x="1059" y="-317" on="1"/>
        <pt x="1092" y="-310" on="1"/>
        <pt x="1113" y="-305" on="0"/>
        <pt x="1122" y="-300" on="1"/>
        <pt x="1183" y="-273" on="1"/>
        <pt x="1261" y="-238" on="0"/>
        <pt x="1328" y="-175" on="1"/>
        <pt x="1350" y="-154" on="0"/>
        <pt x="1392" y="-105" on="1"/>
        <pt x="1448" y="-23" on="1"/>
        <pt x="1467" y="15" on="1"/>
        <pt x="1486" y="59" on="1"/>
        <pt x="1500" y="97" on="1"/>
        <pt x="1513" y="139" on="1"/>
        <pt x="1532" y="225" on="1"/>
        <pt x="1533" y="250" on="1"/>
        <pt x="1535" y="269" on="1"/>
        <pt x="1537" y="318" on="1"/>
        <pt x="1537" y="345" on="1"/>
      </contour>
    </TTGlyph>
    <TTGlyph name="Aring" xMin="459" yMin="-463" xMax="1276" yMax="1149">
      <contour>
        <pt x="1266" y="528" on="1"/>
        <pt x="1271" y="503" on="0"/>
        <pt x="1276" y="437" on="0"/>
        <pt x="1276" y="410" on="1"/>
        <pt x="1276" y="151" on="0"/>
        <pt x="1074" y="-75" on="1"/>
        <pt x="930" y="-234" on="0"/>
        <pt x="698" y="-364" on="1"/>
        <pt x="523" y="-463" on="0"/>
        <pt x="494" y="-463" on="1"/>
        <pt x="459" y="-437" on="1"/>
        <pt x="459" y="1121" on="1"/>
        <pt x="459" y="1149" on="0"/>
        <pt x="486" y="1149" on="1"/>
        <pt x="513" y="1149" on="0"/>
        <pt x="578" y="1139" on="1"/>
        <pt x="578" y="314" on="1"/>
        <pt x="652" y="498" on="0"/>
        <pt x="948" y="694" on="0"/>
        <pt x="1066" y="694" on="1"/>
        <pt x="1229" y="694" on="0"/>
      </contour>
      <contour>
        <pt x="1150" y="472" on="1"/>
        <pt x="1140" y="575" on="0"/>
        <pt x="1027" y="575" on="1"/>
        <pt x="929" y="575" on="0"/>
        <pt x="807" y="476" on="1"/>
        <pt x="680" y="379" on="0"/>
        <pt x="584" y="138" on="1"/>
        <pt x="584" y="-298" on="1"/>
        <pt x="835" y="-188" on="0"/>
        <pt x="1158" y="177" on="0"/>
        <pt x="1158" y="374" on="1"/>
        <pt x="1158" y="391" on="0"/>
        <pt x="1156" y="435" on="0"/>
      </contour>
    </TTGlyph>
    <TTGlyph name="Atilde" xMin="193" yMin="-407" xMax="1677" yMax="1059">
      <contour>
        <pt x="193" y="325" on="1"/>
        <pt x="193" y="611" on="0"/>
        <pt x="409" y="839" on="1"/>
        <pt x="518" y="949" on="0"/>
        <pt x="648" y="1004" on="1"/>
        <pt x="709" y="1027" on="0"/>
        <pt x="867" y="1059" on="0"/>
        <pt x="935" y="1059" on="1"/>
        <pt x="1227" y="1059" on="0"/>
        <pt x="1677" y="628" on="0"/>
        <pt x="1677" y="325" on="1"/>
        <pt x="1677" y="31" on="0"/>
        <pt x="1238" y="-407" on="0"/>
        <pt x="935" y="-407" on="1"/>
        <pt x="632" y="-407" on="0"/>
        <pt x="193" y="26" on="0"/>
      </contour>
      <contour>
        <pt x="1402" y="767" on="1"/>
        <pt x="967" y="331" on="1"/>
        <pt x="1402" y="-93" on="1"/>
        <pt x="1492" y="18" on="1"/>
        <pt x="1562" y="169" on="1"/>
        <pt x="1588" y="347" on="1"/>
        <pt x="1569" y="509" on="1"/>
        <pt x="1498" y="640" on="1"/>
      </contour>
      <contour>
        <pt x="379" y="641" on="1"/>
        <pt x="307" y="510" on="1"/>
        <pt x="289" y="348" on="1"/>
        <pt x="314" y="170" on="1"/>
        <pt x="384" y="19" on="1"/>
        <pt x="474" y="-92" on="1"/>
        <pt x="899" y="333" on="1"/>
        <pt x="474" y="768" on="1"/>
      </contour>
    </TTGlyph>
    <TTGlyph name="B" xMin="310" yMin="-528" xMax="1528" yMax="1201">
      <contour>
        <pt x="430" y="316" on="1"/>
        <pt x="910" y="-359" on="1"/>
        <pt x="1400" y="327" on="1"/>
        <pt x="918" y="1018" on="1"/>
      </contour>
      <contour>
        <pt x="310" y="327" on="1"/>
        <pt x="917" y="1201" on="1"/>
        <pt x="1528" y="327" on="1"/>
        <pt x="917" y="-528" on="1"/>
      </contour>
    </TTGlyph>
    <TTGlyph name="C" xMin="184" yMin="-245" xMax="1630" yMax="941">
      <contour>
        <pt x="474" y="737" on="1"/>
        <pt x="184" y="738" on="1"/>
        <pt x="214" y="864" on="1"/>
        <pt x="587" y="864" on="1"/>
        <pt x="592" y="46" on="1"/>
        <pt x="1073" y="941" on="1"/>
        <pt x="1630" y="941" on="1"/>
        <pt x="1598" y="813" on="1"/>
        <pt x="1141" y="813" on="1"/>
        <pt x="558" y="-245" on="1"/>
        <pt x="474" y="-245" on="1"/>
      </contour>
    </TTGlyph>
    <TTGlyph name="Ccedilla" xMin="494" yMin="-121" xMax="1354" yMax="794">
      <contour>
        <pt x="953" y="330" on="1"/>
        <pt x="1213" y="-24" on="1"/>
        <pt x="1259" y="-24" on="0"/>
        <pt x="1262" y="-47" on="1"/>
        <pt x="1265" y="-70" on="0"/>
        <pt x="1232" y="-112" on="0"/>
        <pt x="1205" y="-117" on="1"/>
        <pt x="1181" y="-121" on="0"/>
        <pt x="1169" y="-84" on="1"/>
        <pt x="882" y="298" on="1"/>
        <pt x="875" y="327" on="1"/>
        <pt x="875" y="341" on="0"/>
        <pt x="912" y="380" on="1"/>
        <pt x="1298" y="787" on="1"/>
        <pt x="1313" y="794" on="1"/>
        <pt x="1331" y="794" on="0"/>
        <pt x="1350" y="757" on="1"/>
        <pt x="1354" y="730" on="1"/>
        <pt x="1354" y="714" on="0"/>
        <pt x="1340" y="696" on="0"/>
        <pt x="1302" y="679" on="1"/>
      </contour>
      <contour>
        <pt x="919" y="774" on="1"/>
        <pt x="923" y="776" on="1"/>
        <pt x="939" y="789" on="1"/>
        <pt x="956" y="781" on="0"/>
        <pt x="980" y="734" on="1"/>
        <pt x="969" y="699" on="0"/>
        <pt x="924" y="680" on="1"/>
        <pt x="574" y="328" on="1"/>
        <pt x="842" y="-24" on="1"/>
        <pt x="883" y="-24" on="0"/>
        <pt x="883" y="-46" on="1"/>
        <pt x="883" y="-66" on="1"/>
        <pt x="880" y="-77" on="1"/>
        <pt x="877" y="-83" on="1"/>
        <pt x="871" y="-94" on="1"/>
        <pt x="856" y="-115" on="0"/>
        <pt x="834" y="-118" on="1"/>
        <pt x="822" y="-121" on="0"/>
        <pt x="802" y="-77" on="1"/>
        <pt x="511" y="298" on="1"/>
        <pt x="494" y="310" on="0"/>
        <pt x="494" y="329" on="1"/>
        <pt x="494" y="349" on="0"/>
        <pt x="514" y="370" on="1"/>
        <pt x="571" y="430" on="0"/>
        <pt x="651" y="509" on="1"/>
      </contour>
    </TTGlyph>
    <TTGlyph name="D" xMin="7" yMin="-579" xMax="1851" yMax="1263">
      <contour>
        <pt x="1851" y="1263" on="1"/>
        <pt x="1851" y="-579" on="1"/>
        <pt x="7" y="-579" on="1"/>
        <pt x="7" y="1263" on="1"/>
      </contour>
      <contour>
        <pt x="121" y="49" on="1"/>
        <pt x="121" y="-306" on="1"/>
        <pt x="246" y="-430" on="1"/>
        <pt x="607" y="-430" on="1"/>
      </contour>
      <contour>
        <pt x="121" y="546" on="1"/>
        <pt x="121" y="201" on="1"/>
        <pt x="753" y="-430" on="1"/>
        <pt x="1091" y="-430" on="1"/>
      </contour>
      <contour>
        <pt x="121" y="1107" on="1"/>
        <pt x="121" y="677" on="1"/>
        <pt x="1233" y="-430" on="1"/>
        <pt x="1664" y="-430" on="1"/>
      </contour>
      <contour>
        <pt x="620" y="1138" on="1"/>
        <pt x="220" y="1138" on="1"/>
        <pt x="1713" y="-355" on="1"/>
        <pt x="1713" y="42" on="1"/>
      </contour>
      <contour>
        <pt x="1713" y="657" on="1"/>
        <pt x="1713" y="1015" on="1"/>
        <pt x="1589" y="1138" on="1"/>
        <pt x="1233" y="1138" on="1"/>
      </contour>
      <contour>
        <pt x="1108" y="1138" on="1"/>
        <pt x="742" y="1138" on="1"/>
        <pt x="1713" y="163" on="1"/>
        <pt x="1713" y="534" on="1"/>
      </contour>
    </TTGlyph>
    <TTGlyph name="E" xMin="476" yMin="-266" xMax="1394" yMax="978">
      <contour>
        <pt x="476" y="-266" on="1"/>
        <pt x="939" y="-266" on="1"/>
        <pt x="1056" y="-266" on="0"/>
        <pt x="1216" y="-223" on="0"/>
        <pt x="1268" y="-183" on="1"/>
        <pt x="1321" y="-141" on="0"/>
        <pt x="1394" y="7" on="0"/>
        <pt x="1394" y="96" on="1"/>
        <pt x="1394" y="205" on="0"/>
        <pt x="1277" y="363" on="0"/>
        <pt x="1165" y="396" on="1"/>
        <pt x="1251" y="439" on="0"/>
        <pt x="1335" y="580" on="0"/>
        <pt x="1335" y="660" on="1"/>
        <pt x="1335" y="748" on="0"/>
        <pt x="1287" y="823" on="1"/>
        <pt x="1239" y="902" on="0"/>
        <pt x="1072" y="978" on="0"/>
        <pt x="932" y="978" on="1"/>
        <pt x="476" y="978" on="1"/>
      </contour>
      <contour>
        <pt x="637" y="455" on="1"/>
        <pt x="637" y="830" on="1"/>
        <pt x="880" y="830" on="1"/>
        <pt x="1019" y="830" on="0"/>
        <pt x="1065" y="814" on="1"/>
        <pt x="1120" y="796" on="0"/>
        <pt x="1177" y="702" on="0"/>
        <pt x="1177" y="639" on="1"/>
        <pt x="1177" y="507" on="0"/>
        <pt x="1053" y="469" on="1"/>
        <pt x="998" y="455" on="0"/>
        <pt x="901" y="455" on="1"/>
      </contour>
      <contour>
        <pt x="637" y="-118" on="1"/>
        <pt x="637" y="310" on="1"/>
        <pt x="917" y="310" on="1"/>
        <pt x="1035" y="310" on="0"/>
        <pt x="1095" y="289" on="1"/>
        <pt x="1158" y="267" on="0"/>
        <pt x="1227" y="165" on="0"/>
        <pt x="1227" y="96" on="1"/>
        <pt x="1227" y="0" on="0"/>
        <pt x="1126" y="-98" on="0"/>
        <pt x="1050" y="-112" on="1"/>
        <pt x="1027" y="-118" on="0"/>
        <pt x="939" y="-118" on="1"/>
      </contour>
    </TTGlyph>
    <TTGlyph name="Eacute" xMin="266" yMin="-184" xMax="1606" yMax="830">
      <contour>
        <pt x="1052" y="793" on="1"/>
        <pt x="1052" y="830" on="1"/>
        <pt x="1234" y="830" on="0"/>
        <pt x="1465" y="710" on="0"/>
        <pt x="1606" y="444" on="0"/>
        <pt x="1606" y="286" on="1"/>
        <pt x="1606" y="153" on="0"/>
        <pt x="1496" y="-69" on="0"/>
        <pt x="1305" y="-184" on="0"/>
        <pt x="1219" y="-184" on="1"/>
        <pt x="1125" y="-184" on="0"/>
        <pt x="991" y="-79" on="0"/>
        <pt x="938" y="30" on="1"/>
        <pt x="879" y="-80" on="0"/>
        <pt x="729" y="-184" on="0"/>
        <pt x="637" y="-184" on="1"/>
        <pt x="556" y="-184" on="0"/>
        <pt x="376" y="-71" on="0"/>
        <pt x="266" y="160" on="0"/>
        <pt x="266" y="295" on="1"/>
        <pt x="266" y="442" on="0"/>
        <pt x="327" y="563" on="1"/>
        <pt x="375" y="656" on="0"/>
        <pt x="522" y="779" on="0"/>
        <pt x="688" y="830" on="0"/>
        <pt x="816" y="830" on="1"/>
        <pt x="816" y="793" on="1"/>
        <pt x="667" y="778" on="0"/>
        <pt x="472" y="533" on="0"/>
        <pt x="472" y="296" on="1"/>
        <pt x="472" y="62" on="0"/>
        <pt x="546" y="-47" on="1"/>
        <pt x="591" y="-112" on="0"/>
        <pt x="673" y="-112" on="1"/>
        <pt x="741" y="-112" on="0"/>
        <pt x="863" y="-4" on="0"/>
        <pt x="906" y="137" on="1"/>
        <pt x="858" y="258" on="0"/>
        <pt x="829" y="377" on="0"/>
        <pt x="829" y="431" on="1"/>
        <pt x="829" y="532" on="0"/>
        <pt x="878" y="606" on="1"/>
        <pt x="902" y="642" on="0"/>
        <pt x="934" y="642" on="1"/>
        <pt x="967" y="642" on="0"/>
        <pt x="991" y="606" on="1"/>
        <pt x="1037" y="536" on="0"/>
        <pt x="1037" y="438" on="1"/>
        <pt x="1037" y="317" on="0"/>
        <pt x="967" y="137" on="1"/>
        <pt x="1009" y="-5" on="0"/>
        <pt x="1122" y="-103" on="0"/>
        <pt x="1193" y="-103" on="1"/>
        <pt x="1277" y="-103" on="0"/>
        <pt x="1329" y="-40" on="1"/>
        <pt x="1399" y="44" on="0"/>
        <pt x="1399" y="279" on="1"/>
        <pt x="1399" y="563" on="0"/>
        <pt x="1269" y="698" on="1"/>
        <pt x="1190" y="780" on="0"/>
      </contour>
    </TTGlyph>
    <TTGlyph name="Ecircumflex" xMin="560" yMin="-158" xMax="1263" yMax="881">
      <contour>
        <pt x="904" y="881" on="1"/>
        <pt x="922" y="810" on="1"/>
        <pt x="931" y="781" on="1"/>
        <pt x="942" y="752" on="1"/>
        <pt x="964" y="694" on="0"/>
        <pt x="987" y="647" on="1"/>
        <pt x="1015" y="589" on="0"/>
        <pt x="1139" y="439" on="1"/>
        <pt x="1231" y="328" on="0"/>
        <pt x="1252" y="197" on="1"/>
        <pt x="1253" y="179" on="1"/>
        <pt x="1254" y="167" on="1"/>
        <pt x="1263" y="58" on="0"/>
        <pt x="1150" y="-54" on="1"/>
        <pt x="1085" y="-119" on="0"/>
        <pt x="965" y="-149" on="1"/>
        <pt x="936" y="-152" on="1"/>
        <pt x="905" y="-153" on="1"/>
        <pt x="747" y="-158" on="0"/>
        <pt x="628" y="-13" on="1"/>
        <pt x="560" y="70" on="0"/>
        <pt x="560" y="187" on="1"/>
        <pt x="560" y="280" on="0"/>
        <pt x="600" y="339" on="1"/>
        <pt x="644" y="404" on="1"/>
        <pt x="662" y="426" on="1"/>
        <pt x="698" y="469" on="1"/>
        <pt x="785" y="573" on="0"/>
        <pt x="831" y="662" on="1"/>
        <pt x="849" y="708" on="1"/>
        <pt x="867" y="760" on="1"/>
      </contour>
    </TTGlyph>
    <TTGlyph name="Edieresis" xMin="509" yMin="-189" xMax="1219" yMax="1010">
      <contour>
        <pt x="849" y="1010" on="1"/>
        <pt x="858" y="988" on="0"/>
        <pt x="876" y="956" on="1"/>
        <pt x="890" y="932" on="0"/>
        <pt x="923" y="876" on="1"/>
        <pt x="1036" y="675" on="1"/>
        <pt x="1080" y="596" on="0"/>
        <pt x="1170" y="398" on="1"/>
        <pt x="1192" y="348" on="0"/>
        <pt x="1219" y="208" on="0"/>
        <pt x="1219" y="158" on="1"/>
        <pt x="1219" y="-1" on="0"/>
        <pt x="1141" y="-92" on="1"/>
        <pt x="1058" y="-189" on="0"/>
        <pt x="901" y="-189" on="1"/>
        <pt x="718" y="-189" on="0"/>
        <pt x="617" y="-101" on="1"/>
        <pt x="509" y="-8" on="0"/>
        <pt x="509" y="170" on="1"/>
        <pt x="509" y="199" on="1"/>
        <pt x="509" y="217" on="0"/>
        <pt x="511" y="227" on="1"/>
        <pt x="512" y="248" on="1"/>
        <pt x="512" y="249" on="0"/>
        <pt x="520" y="284" on="1"/>
        <pt x="552" y="424" on="0"/>
        <pt x="684" y="700" on="1"/>
        <pt x="741" y="819" on="0"/>
        <pt x="799" y="923" on="1"/>
        <pt x="810" y="943" on="0"/>
        <pt x="822" y="966" on="1"/>
        <pt x="828" y="976" on="0"/>
        <pt x="842" y="998" on="1"/>
      </contour>
      <contour>
        <pt x="860" y="844" on="1"/>
        <pt x="821" y="775" on="1"/>
        <pt x="771" y="683" on="1"/>
        <pt x="728" y="596" on="1"/>
        <pt x="672" y="483" on="0"/>
        <pt x="623" y="354" on="1"/>
        <pt x="588" y="262" on="0"/>
        <pt x="588" y="172" on="1"/>
        <pt x="588" y="-115" on="0"/>
        <pt x="901" y="-115" on="1"/>
        <pt x="1030" y="-115" on="0"/>
        <pt x="1098" y="-30" on="1"/>
        <pt x="1156" y="43" on="0"/>
        <pt x="1156" y="163" on="1"/>
        <pt x="1156" y="260" on="0"/>
        <pt x="1117" y="354" on="1"/>
        <pt x="1081" y="440" on="0"/>
        <pt x="1010" y="575" on="1"/>
        <pt x="984" y="620" on="0"/>
        <pt x="919" y="736" on="1"/>
      </contour>
    </TTGlyph>
    <TTGlyph name="Egrave" xMin="394" yMin="-418" xMax="1251" yMax="1032">
      <contour>
        <pt x="793" y="-73" on="1"/>
        <pt x="765" y="-73" on="1"/>
        <pt x="668" y="-70" on="1"/>
        <pt x="650" y="-70" on="0"/>
        <pt x="620" y="-67" on="1"/>
        <pt x="593" y="-60" on="1"/>
        <pt x="507" y="-38" on="0"/>
        <pt x="442" y="73" on="1"/>
        <pt x="394" y="154" on="0"/>
        <pt x="394" y="252" on="1"/>
        <pt x="394" y="287" on="1"/>
        <pt x="398" y="310" on="1"/>
        <pt x="422" y="450" on="0"/>
        <pt x="486" y="543" on="1"/>
        <pt x="520" y="593" on="0"/>
        <pt x="621" y="671" on="1"/>
        <pt x="645" y="684" on="1"/>
        <pt x="696" y="706" on="1"/>
        <pt x="793" y="745" on="1"/>
        <pt x="793" y="946" on="1"/>
        <pt x="769" y="951" on="0"/>
        <pt x="766" y="984" on="1"/>
        <pt x="766" y="996" on="0"/>
        <pt x="844" y="1025" on="1"/>
        <pt x="867" y="1027" on="1"/>
        <pt x="924" y="1032" on="0"/>
        <pt x="924" y="971" on="1"/>
        <pt x="924" y="962" on="0"/>
        <pt x="898" y="946" on="1"/>
        <pt x="898" y="780" on="1"/>
        <pt x="955" y="803" on="0"/>
        <pt x="1011" y="800" on="1"/>
        <pt x="1065" y="797" on="1"/>
        <pt x="1156" y="792" on="0"/>
        <pt x="1218" y="725" on="1"/>
        <pt x="1244" y="697" on="0"/>
        <pt x="1244" y="671" on="1"/>
        <pt x="1244" y="647" on="0"/>
        <pt x="1196" y="601" on="0"/>
        <pt x="1171" y="601" on="1"/>
        <pt x="1142" y="601" on="0"/>
        <pt x="1120" y="638" on="1"/>
        <pt x="1108" y="713" on="0"/>
        <pt x="1029" y="713" on="1"/>
        <pt x="976" y="713" on="0"/>
        <pt x="898" y="689" on="1"/>
        <pt x="898" y="40" on="1"/>
        <pt x="1044" y="84" on="0"/>
        <pt x="1133" y="185" on="1"/>
        <pt x="1133" y="249" on="0"/>
        <pt x="1178" y="246" on="1"/>
        <pt x="1192" y="245" on="1"/>
        <pt x="1251" y="241" on="0"/>
        <pt x="1251" y="198" on="1"/>
        <pt x="1251" y="124" on="0"/>
        <pt x="1108" y="52" on="1"/>
        <pt x="984" y="-10" on="1"/>
        <pt x="898" y="-49" on="1"/>
        <pt x="898" y="-343" on="1"/>
        <pt x="905" y="-363" on="1"/>
        <pt x="909" y="-382" on="1"/>
        <pt x="909" y="-418" on="0"/>
        <pt x="862" y="-418" on="1"/>
        <pt x="793" y="-418" on="0"/>
        <pt x="793" y="-381" on="1"/>
      </contour>
      <contour>
        <pt x="793" y="22" on="1"/>
        <pt x="793" y="658" on="1"/>
        <pt x="504" y="545" on="0"/>
        <pt x="504" y="270" on="1"/>
        <pt x="504" y="183" on="0"/>
        <pt x="594" y="64" on="1"/>
        <pt x="653" y="-1" on="0"/>
        <pt x="716" y="-1" on="1"/>
        <pt x="753" y="-1" on="0"/>
      </contour>
    </TTGlyph>
    <TTGlyph name="Eth" xMin="466" yMin="-430" xMax="1362" yMax="1103">
      <contour>
        <pt x="831" y="-430" on="1"/>
        <pt x="831" y="65" on="1"/>
        <pt x="466" y="65" on="1"/>
        <pt x="466" y="207" on="1"/>
        <pt x="831" y="207" on="1"/>
        <pt x="831" y="502" on="1"/>
        <pt x="466" y="502" on="1"/>
        <pt x="466" y="643" on="1"/>
        <pt x="831" y="643" on="1"/>
        <pt x="831" y="1103" on="1"/>
        <pt x="997" y="1103" on="1"/>
        <pt x="997" y="643" on="1"/>
        <pt x="1362" y="643" on="1"/>
        <pt x="1362" y="502" on="1"/>
        <pt x="997" y="502" on="1"/>
        <pt x="997" y="207" on="1"/>
        <pt x="1362" y="207" on="1"/>
        <pt x="1362" y="65" on="1"/>
        <pt x="997" y="65" on="1"/>
        <pt x="997" y="-429" on="1"/>
      </contour>
    </TTGlyph>
    <TTGlyph name="F" xMin="205" yMin="-381" xMax="1626" yMax="1027">
      <contour>
        <pt x="1626" y="-381" on="1"/>
        <pt x="205" y="-381" on="1"/>
        <pt x="205" y="1027" on="1"/>
        <pt x="1626" y="1027" on="1"/>
      </contour>
      <contour>
        <pt x="1530" y="-226" on="1"/>
        <pt x="913" y="306" on="1"/>
        <pt x="311" y="-226" on="1"/>
      </contour>
      <contour>
        <pt x="312" y="877" on="1"/>
        <pt x="914" y="344" on="1"/>
        <pt x="1531" y="877" on="1"/>
      </contour>
    </TTGlyph>
    <TTGlyph name="G" xMin="173" yMin="-409" xMax="1720" yMax="1129">
      <contour>
        <pt x="400" y="905" on="1"/>
        <pt x="625" y="1129" on="0"/>
        <pt x="1268" y="1129" on="0"/>
        <pt x="1495" y="905" on="1"/>
        <pt x="1720" y="680" on="0"/>
        <pt x="1719" y="40" on="0"/>
        <pt x="1494" y="-184" on="1"/>
        <pt x="1268" y="-409" on="0"/>
        <pt x="625" y="-409" on="0"/>
        <pt x="400" y="-184" on="1"/>
        <pt x="174" y="40" on="0"/>
        <pt x="173" y="680" on="0"/>
      </contour>
      <contour>
        <pt x="481" y="818" on="1"/>
        <pt x="290" y="628" on="0"/>
        <pt x="290" y="82" on="0"/>
        <pt x="481" y="-107" on="1"/>
        <pt x="665" y="-291" on="0"/>
        <pt x="1219" y="-296" on="0"/>
        <pt x="1411" y="-106" on="1"/>
        <pt x="1510" y="-9" on="0"/>
        <pt x="1602" y="213" on="0"/>
        <pt x="1603" y="355" on="1"/>
        <pt x="1604" y="627" on="0"/>
        <pt x="1412" y="818" on="1"/>
        <pt x="1223" y="1006" on="0"/>
        <pt x="672" y="1008" on="0"/>
      </contour>
      <contour>
        <pt x="434" y="770" on="1"/>
        <pt x="847" y="356" on="1"/>
        <pt x="435" y="-53" on="1"/>
        <pt x="457" y="-79" on="1"/>
        <pt x="482" y="-105" on="1"/>
        <pt x="508" y="-130" on="1"/>
        <pt x="535" y="-152" on="1"/>
        <pt x="947" y="258" on="1"/>
        <pt x="1359" y="-150" on="1"/>
        <pt x="1410" y="-105" on="1"/>
        <pt x="1441" y="-74" on="1"/>
        <pt x="1458" y="-53" on="1"/>
        <pt x="1047" y="357" on="1"/>
        <pt x="1459" y="768" on="1"/>
        <pt x="1423" y="808" on="1"/>
        <pt x="1390" y="841" on="1"/>
        <pt x="1363" y="869" on="1"/>
        <pt x="948" y="457" on="1"/>
        <pt x="535" y="866" on="1"/>
        <pt x="470" y="808" on="1"/>
      </contour>
    </TTGlyph>
    <TTGlyph name="H" xMin="294" yMin="-248" xMax="1536" yMax="960">
      <contour>
        <pt x="637" y="295" on="1"/>
        <pt x="637" y="-248" on="1"/>
        <pt x="294" y="-248" on="1"/>
        <pt x="294" y="-214" on="1"/>
        <pt x="335" y="-214" on="1"/>
        <pt x="410" y="-214" on="0"/>
        <pt x="444" y="-170" on="1"/>
        <pt x="466" y="-141" on="0"/>
        <pt x="466" y="-33" on="1"/>
        <pt x="466" y="746" on="1"/>
        <pt x="466" y="817" on="0"/>
        <pt x="463" y="834" on="1"/>
        <pt x="445" y="926" on="0"/>
        <pt x="335" y="926" on="1"/>
        <pt x="294" y="926" on="1"/>
        <pt x="294" y="960" on="1"/>
        <pt x="637" y="960" on="1"/>
        <pt x="637" y="430" on="1"/>
        <pt x="903" y="509" on="1"/>
        <pt x="1193" y="430" on="1"/>
        <pt x="1193" y="960" on="1"/>
        <pt x="1536" y="960" on="1"/>
        <pt x="1536" y="926" on="1"/>
        <pt x="1493" y="926" on="1"/>
        <pt x="1397" y="926" on="0"/>
        <pt x="1374" y="863" on="1"/>
        <pt x="1364" y="833" on="0"/>
        <pt x="1364" y="746" on="1"/>
        <pt x="1364" y="-33" on="1"/>
        <pt x="1364" y="-106" on="0"/>
        <pt x="1367" y="-122" on="1"/>
        <pt x="1385" y="-214" on="0"/>
        <pt x="1493" y="-214" on="1"/>
        <pt x="1536" y="-214" on="1"/>
        <pt x="1536" y="-248" on="1"/>
        <pt x="1193" y="-248" on="1"/>
        <pt x="1193" y="287" on="1"/>
        <pt x="905" y="383" on="1"/>
      </contour>
    </TTGlyph>
    <TTGlyph name="I" xMin="312" yMin="-368" xMax="1591" yMax="920">
      <contour>
        <pt x="1591" y="739" on="1"/>
        <pt x="484" y="-368" on="1"/>
        <pt x="421" y="-298" on="1"/>
        <pt x="408" y="-281" on="1"/>
        <pt x="399" y="-265" on="1"/>
        <pt x="392" y="-249" on="1"/>
        <pt x="375" y="-219" on="1"/>
        <pt x="360" y="-184" on="1"/>
        <pt x="334" y="-140" on="0"/>
        <pt x="336" y="-113" on="1"/>
        <pt x="326" y="-71" on="0"/>
        <pt x="314" y="22" on="1"/>
        <pt x="312" y="82" on="0"/>
        <pt x="326" y="177" on="1"/>
        <pt x="364" y="437" on="0"/>
        <pt x="575" y="648" on="1"/>
        <pt x="779" y="852" on="0"/>
        <pt x="1046" y="897" on="1"/>
        <pt x="1184" y="920" on="0"/>
        <pt x="1335" y="888" on="1"/>
        <pt x="1401" y="862" on="1"/>
        <pt x="1470" y="830" on="1"/>
        <pt x="1531" y="790" on="1"/>
        <pt x="1570" y="759" on="1"/>
      </contour>
    </TTGlyph>
    <TTGlyph name="Iacute" xMin="250" yMin="-343" xMax="1599" yMax="966">
      <contour>
        <pt x="1256" y="731" on="1"/>
        <pt x="1436" y="731" on="0"/>
        <pt x="1599" y="458" on="0"/>
        <pt x="1599" y="304" on="1"/>
        <pt x="1568" y="173" on="0"/>
        <pt x="1457" y="107" on="1"/>
        <pt x="1472" y="49" on="1"/>
        <pt x="1476" y="14" on="1"/>
        <pt x="1477" y="-6" on="1"/>
        <pt x="1482" y="-115" on="0"/>
        <pt x="1385" y="-211" on="1"/>
        <pt x="1251" y="-343" on="0"/>
        <pt x="1070" y="-343" on="1"/>
        <pt x="1039" y="-343" on="0"/>
        <pt x="991" y="-322" on="1"/>
        <pt x="923" y="-277" on="1"/>
        <pt x="820" y="-340" on="0"/>
        <pt x="713" y="-340" on="1"/>
        <pt x="675" y="-340" on="0"/>
        <pt x="639" y="-327" on="1"/>
        <pt x="630" y="-323" on="0"/>
        <pt x="614" y="-314" on="1"/>
        <pt x="579" y="-296" on="0"/>
        <pt x="559" y="-282" on="1"/>
        <pt x="532" y="-263" on="1"/>
        <pt x="500" y="-237" on="1"/>
        <pt x="371" y="-132" on="0"/>
        <pt x="371" y="3" on="1"/>
        <pt x="371" y="51" on="0"/>
        <pt x="389" y="108" on="1"/>
        <pt x="271" y="170" on="0"/>
        <pt x="257" y="282" on="1"/>
        <pt x="252" y="321" on="1"/>
        <pt x="250" y="363" on="1"/>
        <pt x="251" y="394" on="1"/>
        <pt x="251" y="416" on="1"/>
        <pt x="255" y="431" on="1"/>
        <pt x="259" y="460" on="1"/>
        <pt x="263" y="478" on="1"/>
        <pt x="276" y="507" on="1"/>
        <pt x="343" y="657" on="0"/>
        <pt x="394" y="696" on="1"/>
        <pt x="408" y="704" on="0"/>
        <pt x="455" y="721" on="1"/>
        <pt x="519" y="729" on="1"/>
        <pt x="591" y="731" on="1"/>
        <pt x="612" y="881" on="0"/>
        <pt x="783" y="943" on="1"/>
        <pt x="877" y="966" on="0"/>
        <pt x="936" y="966" on="1"/>
        <pt x="1015" y="966" on="0"/>
        <pt x="1086" y="939" on="1"/>
        <pt x="1165" y="908" on="0"/>
        <pt x="1194" y="855" on="1"/>
        <pt x="1224" y="801" on="1"/>
      </contour>
      <contour>
        <pt x="941" y="718" on="1"/>
        <pt x="957" y="649" on="1"/>
        <pt x="965" y="623" on="1"/>
        <pt x="967" y="615" on="0"/>
        <pt x="976" y="595" on="1"/>
        <pt x="999" y="552" on="0"/>
        <pt x="1055" y="494" on="1"/>
        <pt x="1153" y="610" on="0"/>
        <pt x="1164" y="745" on="1"/>
        <pt x="1166" y="769" on="1"/>
        <pt x="1174" y="868" on="0"/>
        <pt x="986" y="921" on="1"/>
        <pt x="948" y="925" on="1"/>
        <pt x="929" y="926" on="1"/>
        <pt x="917" y="927" on="0"/>
        <pt x="874" y="922" on="1"/>
        <pt x="828" y="916" on="0"/>
        <pt x="824" y="912" on="1"/>
        <pt x="787" y="900" on="1"/>
        <pt x="679" y="865" on="0"/>
        <pt x="679" y="750" on="1"/>
        <pt x="679" y="689" on="0"/>
        <pt x="706" y="630" on="1"/>
        <pt x="721" y="597" on="1"/>
        <pt x="740" y="563" on="1"/>
        <pt x="761" y="530" on="1"/>
        <pt x="789" y="494" on="1"/>
        <pt x="814" y="519" on="0"/>
        <pt x="863" y="597" on="1"/>
        <pt x="909" y="718" on="1"/>
      </contour>
      <contour>
        <pt x="523" y="416" on="1"/>
        <pt x="566" y="416" on="1"/>
        <pt x="606" y="417" on="1"/>
        <pt x="629" y="417" on="1"/>
        <pt x="644" y="421" on="1"/>
        <pt x="695" y="427" on="0"/>
        <pt x="760" y="464" on="1"/>
        <pt x="643" y="665" on="0"/>
        <pt x="509" y="665" on="1"/>
        <pt x="408" y="665" on="0"/>
        <pt x="336" y="523" on="1"/>
        <pt x="300" y="433" on="0"/>
        <pt x="300" y="363" on="1"/>
        <pt x="300" y="328" on="0"/>
        <pt x="312" y="287" on="1"/>
        <pt x="327" y="235" on="0"/>
        <pt x="367" y="206" on="1"/>
        <pt x="393" y="192" on="0"/>
        <pt x="413" y="188" on="1"/>
        <pt x="439" y="183" on="1"/>
        <pt x="467" y="181" on="1"/>
        <pt x="518" y="177" on="0"/>
        <pt x="574" y="191" on="1"/>
        <pt x="623" y="203" on="1"/>
        <pt x="644" y="210" on="1"/>
        <pt x="668" y="220" on="1"/>
        <pt x="623" y="331" on="0"/>
        <pt x="511" y="388" on="1"/>
      </contour>
      <contour>
        <pt x="1324" y="383" on="1"/>
        <pt x="1266" y="346" on="0"/>
        <pt x="1236" y="313" on="1"/>
        <pt x="1223" y="298" on="0"/>
        <pt x="1180" y="218" on="1"/>
        <pt x="1223" y="202" on="1"/>
        <pt x="1282" y="189" on="1"/>
        <pt x="1342" y="184" on="1"/>
        <pt x="1413" y="182" on="1"/>
        <pt x="1479" y="180" on="0"/>
        <pt x="1516" y="237" on="1"/>
        <pt x="1547" y="286" on="0"/>
        <pt x="1547" y="355" on="1"/>
        <pt x="1547" y="521" on="0"/>
        <pt x="1422" y="618" on="1"/>
        <pt x="1374" y="655" on="0"/>
        <pt x="1324" y="655" on="1"/>
        <pt x="1245" y="655" on="0"/>
        <pt x="1167" y="564" on="1"/>
        <pt x="1131" y="522" on="1"/>
        <pt x="1088" y="467" on="1"/>
        <pt x="1122" y="447" on="0"/>
        <pt x="1196" y="424" on="1"/>
        <pt x="1249" y="418" on="1"/>
        <pt x="1312" y="416" on="1"/>
      </contour>
      <contour>
        <pt x="668" y="-48" on="1"/>
        <pt x="668" y="-23" on="0"/>
        <pt x="695" y="61" on="0"/>
        <pt x="695" y="86" on="1"/>
        <pt x="695" y="117" on="0"/>
        <pt x="683" y="180" on="1"/>
        <pt x="656" y="175" on="0"/>
        <pt x="600" y="150" on="1"/>
        <pt x="560" y="132" on="1"/>
        <pt x="517" y="109" on="1"/>
        <pt x="432" y="64" on="0"/>
        <pt x="432" y="-37" on="1"/>
        <pt x="432" y="-179" on="0"/>
        <pt x="630" y="-270" on="1"/>
        <pt x="711" y="-295" on="0"/>
        <pt x="735" y="-295" on="1"/>
        <pt x="800" y="-295" on="0"/>
        <pt x="854" y="-217" on="1"/>
        <pt x="882" y="-162" on="0"/>
        <pt x="890" y="-121" on="1"/>
        <pt x="899" y="-74" on="1"/>
        <pt x="903" y="-26" on="1"/>
        <pt x="900" y="27" on="1"/>
        <pt x="840" y="27" on="0"/>
        <pt x="788" y="-2" on="1"/>
        <pt x="772" y="-11" on="1"/>
        <pt x="743" y="-31" on="1"/>
        <pt x="693" y="-68" on="1"/>
      </contour>
      <contour>
        <pt x="1155" y="-68" on="1"/>
        <pt x="1120" y="-43" on="0"/>
        <pt x="1067" y="-16" on="1"/>
        <pt x="1015" y="5" on="1"/>
        <pt x="944" y="27" on="1"/>
        <pt x="944" y="-94" on="0"/>
        <pt x="965" y="-154" on="1"/>
        <pt x="995" y="-243" on="0"/>
        <pt x="1082" y="-287" on="1"/>
        <pt x="1093" y="-288" on="1"/>
        <pt x="1105" y="-288" on="1"/>
        <pt x="1248" y="-288" on="0"/>
        <pt x="1341" y="-181" on="1"/>
        <pt x="1387" y="-128" on="0"/>
        <pt x="1411" y="-50" on="1"/>
        <pt x="1412" y="-32" on="1"/>
        <pt x="1415" y="15" on="0"/>
        <pt x="1362" y="75" on="1"/>
        <pt x="1312" y="132" on="0"/>
        <pt x="1155" y="187" on="1"/>
        <pt x="1149" y="148" on="0"/>
        <pt x="1149" y="111" on="1"/>
        <pt x="1149" y="26" on="0"/>
        <pt x="1181" y="-50" on="1"/>
      </contour>
    </TTGlyph>
    <TTGlyph name="Icircumflex" xMin="263" yMin="-224" xMax="1577" yMax="1090">
      <contour>
        <pt x="777" y="-224" on="1"/>
        <pt x="877" y="235" on="1"/>
        <pt x="730" y="42" on="0"/>
        <pt x="554" y="42" on="1"/>
        <pt x="429" y="42" on="0"/>
        <pt x="263" y="206" on="0"/>
        <pt x="263" y="328" on="1"/>
        <pt x="263" y="428" on="0"/>
        <pt x="361" y="574" on="0"/>
        <pt x="503" y="686" on="1"/>
        <pt x="654" y="805" on="1"/>
        <pt x="807" y="926" on="0"/>
        <pt x="920" y="1090" on="1"/>
        <pt x="1033" y="926" on="0"/>
        <pt x="1187" y="805" on="1"/>
        <pt x="1338" y="686" on="1"/>
        <pt x="1479" y="574" on="0"/>
        <pt x="1577" y="428" on="0"/>
        <pt x="1577" y="328" on="1"/>
        <pt x="1577" y="206" on="0"/>
        <pt x="1411" y="42" on="0"/>
        <pt x="1287" y="42" on="1"/>
        <pt x="1111" y="42" on="0"/>
        <pt x="964" y="235" on="1"/>
        <pt x="1063" y="-224" on="1"/>
      </contour>
    </TTGlyph>
    <TTGlyph name="Idieresis" xMin="246" yMin="-325" xMax="1606" yMax="989">
      <contour>
        <pt x="1606" y="-325" on="1"/>
        <pt x="1230" y="-325" on="1"/>
        <pt x="1105" y="-140" on="0"/>
        <pt x="903" y="128" on="0"/>
        <pt x="785" y="270" on="1"/>
        <pt x="643" y="270" on="1"/>
        <pt x="643" y="-146" on="1"/>
        <pt x="643" y="-178" on="0"/>
        <pt x="664" y="-227" on="0"/>
        <pt x="700" y="-240" on="1"/>
        <pt x="717" y="-247" on="0"/>
        <pt x="806" y="-258" on="0"/>
        <pt x="836" y="-259" on="1"/>
        <pt x="836" y="-325" on="1"/>
        <pt x="246" y="-325" on="1"/>
        <pt x="246" y="-259" on="1"/>
        <pt x="270" y="-257" on="0"/>
        <pt x="359" y="-248" on="0"/>
        <pt x="377" y="-240" on="1"/>
        <pt x="406" y="-228" on="0"/>
        <pt x="433" y="-182" on="0"/>
        <pt x="433" y="-146" on="1"/>
        <pt x="433" y="804" on="1"/>
        <pt x="433" y="836" on="0"/>
        <pt x="413" y="886" on="0"/>
        <pt x="377" y="899" on="1"/>
        <pt x="352" y="908" on="0"/>
        <pt x="274" y="921" on="0"/>
        <pt x="246" y="923" on="1"/>
        <pt x="246" y="989" on="1"/>
        <pt x="891" y="989" on="1"/>
        <pt x="979" y="989" on="0"/>
        <pt x="1135" y="955" on="0"/>
        <pt x="1198" y="917" on="1"/>
        <pt x="1259" y="880" on="0"/>
        <pt x="1331" y="760" on="0"/>
        <pt x="1331" y="676" on="1"/>
        <pt x="1331" y="600" on="0"/>
        <pt x="1282" y="483" on="0"/>
        <pt x="1234" y="441" on="1"/>
        <pt x="1190" y="401" on="0"/>
        <pt x="1066" y="343" on="0"/>
        <pt x="991" y="322" on="1"/>
        <pt x="1094" y="194" on="0"/>
        <pt x="1231" y="18" on="0"/>
        <pt x="1330" y="-108" on="1"/>
        <pt x="1374" y="-163" on="0"/>
        <pt x="1444" y="-216" on="0"/>
        <pt x="1478" y="-233" on="1"/>
        <pt x="1504" y="-245" on="0"/>
        <pt x="1580" y="-258" on="0"/>
        <pt x="1606" y="-259" on="1"/>
      </contour>
      <contour>
        <pt x="1088" y="655" on="1"/>
        <pt x="1088" y="774" on="0"/>
        <pt x="943" y="914" on="0"/>
        <pt x="810" y="914" on="1"/>
        <pt x="643" y="914" on="1"/>
        <pt x="643" y="350" on="1"/>
        <pt x="771" y="350" on="1"/>
        <pt x="907" y="350" on="0"/>
        <pt x="1088" y="514" on="0"/>
      </contour>
    </TTGlyph>
    <TTGlyph name="Igrave" xMin="380" yMin="-327" xMax="1435" yMax="963">
      <contour>
        <pt x="1435" y="963" on="1"/>
        <pt x="1435" y="849" on="1"/>
        <pt x="1028" y="317" on="1"/>
        <pt x="1435" y="-203" on="1"/>
        <pt x="1435" y="-327" on="1"/>
        <pt x="380" y="-327" on="1"/>
        <pt x="380" y="-203" on="1"/>
        <pt x="816" y="317" on="1"/>
        <pt x="380" y="849" on="1"/>
        <pt x="380" y="963" on="1"/>
      </contour>
      <contour>
        <pt x="536" y="849" on="1"/>
        <pt x="927" y="383" on="1"/>
        <pt x="1278" y="849" on="1"/>
      </contour>
      <contour>
        <pt x="927" y="259" on="1"/>
        <pt x="556" y="-203" on="1"/>
        <pt x="1278" y="-203" on="1"/>
      </contour>
    </TTGlyph>
    <TTGlyph name="J" xMin="384" yMin="-230" xMax="1376" yMax="978">
      <contour>
        <pt x="917" y="978" on="1"/>
        <pt x="1376" y="978" on="1"/>
        <pt x="1376" y="906" on="1"/>
        <pt x="1330" y="906" on="1"/>
        <pt x="1284" y="906" on="0"/>
        <pt x="1245" y="887" on="0"/>
        <pt x="1225" y="846" on="0"/>
        <pt x="1225" y="805" on="1"/>
        <pt x="1225" y="178" on="1"/>
        <pt x="1225" y="36" on="0"/>
        <pt x="1132" y="-125" on="0"/>
        <pt x="928" y="-230" on="0"/>
        <pt x="790" y="-230" on="1"/>
        <pt x="607" y="-230" on="0"/>
        <pt x="384" y="-37" on="0"/>
        <pt x="384" y="90" on="1"/>
        <pt x="384" y="154" on="0"/>
        <pt x="443" y="224" on="0"/>
        <pt x="486" y="224" on="1"/>
        <pt x="521" y="224" on="0"/>
        <pt x="566" y="173" on="0"/>
        <pt x="566" y="132" on="1"/>
        <pt x="566" y="120" on="0"/>
        <pt x="560" y="83" on="1"/>
        <pt x="552" y="45" on="0"/>
        <pt x="552" y="30" on="1"/>
        <pt x="552" y="-33" on="0"/>
        <pt x="682" y="-136" on="0"/>
        <pt x="785" y="-136" on="1"/>
        <pt x="870" y="-136" on="0"/>
        <pt x="1006" y="-61" on="0"/>
        <pt x="1065" y="51" on="0"/>
        <pt x="1065" y="157" on="1"/>
        <pt x="1065" y="778" on="1"/>
        <pt x="1065" y="841" on="0"/>
        <pt x="1046" y="884" on="0"/>
        <pt x="1003" y="906" on="0"/>
        <pt x="945" y="906" on="1"/>
        <pt x="917" y="906" on="1"/>
      </contour>
    </TTGlyph>
    <TTGlyph name="K" xMin="247" yMin="-359" xMax="1591" yMax="1043">
      <contour>
        <pt x="866" y="366" on="1"/>
        <pt x="253" y="1043" on="1"/>
        <pt x="1586" y="1043" on="1"/>
        <pt x="972" y="366" on="1"/>
        <pt x="1591" y="-359" on="1"/>
        <pt x="247" y="-359" on="1"/>
      </contour>
    </TTGlyph>
    <TTGlyph name="L" xMin="346" yMin="-257" xMax="1405" yMax="951">
      <contour>
        <pt x="628" y="778" on="1"/>
        <pt x="628" y="-64" on="1"/>
        <pt x="628" y="-69" on="0"/>
        <pt x="626" y="-91" on="0"/>
        <pt x="626" y="-98" on="1"/>
        <pt x="626" y="-135" on="0"/>
        <pt x="647" y="-149" on="1"/>
        <pt x="659" y="-157" on="0"/>
        <pt x="700" y="-166" on="0"/>
        <pt x="750" y="-170" on="0"/>
        <pt x="774" y="-171" on="1"/>
        <pt x="797" y="-171" on="0"/>
        <pt x="811" y="-172" on="1"/>
        <pt x="911" y="-172" on="1"/>
        <pt x="1115" y="-162" on="1"/>
        <pt x="1186" y="-153" on="0"/>
        <pt x="1254" y="-129" on="0"/>
        <pt x="1304" y="-94" on="1"/>
        <pt x="1306" y="-93" on="0"/>
        <pt x="1338" y="-70" on="0"/>
        <pt x="1363" y="-58" on="0"/>
        <pt x="1373" y="-58" on="1"/>
        <pt x="1405" y="-58" on="0"/>
        <pt x="1405" y="-90" on="1"/>
        <pt x="1405" y="-103" on="0"/>
        <pt x="1380" y="-211" on="0"/>
        <pt x="1373" y="-223" on="1"/>
        <pt x="1362" y="-244" on="0"/>
        <pt x="1317" y="-257" on="0"/>
        <pt x="1278" y="-257" on="1"/>
        <pt x="420" y="-257" on="1"/>
        <pt x="390" y="-257" on="0"/>
        <pt x="355" y="-241" on="0"/>
        <pt x="355" y="-218" on="1"/>
        <pt x="355" y="-200" on="0"/>
        <pt x="375" y="-185" on="0"/>
        <pt x="398" y="-179" on="1"/>
        <pt x="442" y="-163" on="0"/>
        <pt x="461" y="-134" on="0"/>
        <pt x="461" y="-81" on="1"/>
        <pt x="461" y="836" on="1"/>
        <pt x="461" y="852" on="0"/>
        <pt x="426" y="866" on="0"/>
        <pt x="400" y="872" on="1"/>
        <pt x="371" y="878" on="0"/>
        <pt x="346" y="894" on="0"/>
        <pt x="346" y="915" on="1"/>
        <pt x="346" y="939" on="0"/>
        <pt x="381" y="951" on="0"/>
        <pt x="412" y="951" on="1"/>
        <pt x="665" y="951" on="1"/>
        <pt x="697" y="951" on="0"/>
        <pt x="733" y="939" on="0"/>
        <pt x="733" y="915" on="1"/>
        <pt x="733" y="896" on="0"/>
        <pt x="713" y="884" on="0"/>
        <pt x="688" y="875" on="1"/>
        <pt x="649" y="863" on="0"/>
        <pt x="628" y="841" on="0"/>
        <pt x="628" y="813" on="1"/>
      </contour>
    </TTGlyph>
    <TTGlyph name="M" xMin="324" yMin="-193" xMax="1476" yMax="1015">
      <contour>
        <pt x="324" y="-193" on="1"/>
        <pt x="324" y="1015" on="1"/>
        <pt x="564" y="1015" on="1"/>
        <pt x="850" y="160" on="1"/>
        <pt x="870" y="101" on="0"/>
        <pt x="898" y="11" on="0"/>
        <pt x="908" y="-19" on="1"/>
        <pt x="918" y="14" on="0"/>
        <pt x="950" y="110" on="0"/>
        <pt x="972" y="174" on="1"/>
        <pt x="1261" y="1015" on="1"/>
        <pt x="1476" y="1015" on="1"/>
        <pt x="1476" y="-193" on="1"/>
        <pt x="1322" y="-193" on="1"/>
        <pt x="1322" y="818" on="1"/>
        <pt x="971" y="-193" on="1"/>
        <pt x="827" y="-193" on="1"/>
        <pt x="478" y="835" on="1"/>
        <pt x="478" y="-193" on="1"/>
      </contour>
    </TTGlyph>
    <TTGlyph name="N" xMin="412" yMin="-238" xMax="1346" yMax="970">
      <contour>
        <pt x="412" y="-238" on="1"/>
        <pt x="562" y="-238" on="1"/>
        <pt x="562" y="712" on="1"/>
        <pt x="1186" y="-238" on="1"/>
        <pt x="1346" y="-238" on="1"/>
        <pt x="1346" y="970" on="1"/>
        <pt x="1196" y="970" on="1"/>
        <pt x="1196" y="23" on="1"/>
        <pt x="572" y="970" on="1"/>
        <pt x="412" y="970" on="1"/>
      </contour>
    </TTGlyph>
    <TTGlyph name="Ntilde" xMin="152" yMin="30" xMax="1696" yMax="642">
      <contour>
        <pt x="1696" y="410" on="1"/>
        <pt x="152" y="410" on="1"/>
        <pt x="152" y="642" on="1"/>
        <pt x="1696" y="642" on="1"/>
      </contour>
      <contour>
        <pt x="1696" y="30" on="1"/>
        <pt x="152" y="30" on="1"/>
        <pt x="152" y="262" on="1"/>
        <pt x="1696" y="262" on="1"/>
      </contour>
    </TTGlyph>
    <TTGlyph name="O" xMin="182" yMin="-396" xMax="1666" yMax="1070">
      <contour>
        <pt x="182" y="336" on="1"/>
        <pt x="182" y="625" on="0"/>
        <pt x="398" y="850" on="1"/>
        <pt x="505" y="961" on="0"/>
        <pt x="772" y="1070" on="0"/>
        <pt x="924" y="1070" on="1"/>
        <pt x="1224" y="1070" on="0"/>
        <pt x="1666" y="636" on="0"/>
        <pt x="1666" y="336" on="1"/>
        <pt x="1666" y="36" on="0"/>
        <pt x="1225" y="-396" on="0"/>
        <pt x="924" y="-396" on="1"/>
        <pt x="621" y="-396" on="0"/>
        <pt x="182" y="33" on="0"/>
      </contour>
    </TTGlyph>
    <TTGlyph name="OE" xMin="195" yMin="-283" xMax="1613" yMax="1073">
      <contour>
        <pt x="1000" y="-91" on="1"/>
        <pt x="1003" y="-178" on="0"/>
        <pt x="1032" y="-205" on="1"/>
        <pt x="1074" y="-245" on="0"/>
        <pt x="1147" y="-245" on="1"/>
        <pt x="1198" y="-246" on="1"/>
        <pt x="1198" y="-283" on="1"/>
        <pt x="610" y="-283" on="1"/>
        <pt x="610" y="-246" on="1"/>
        <pt x="664" y="-246" on="1"/>
        <pt x="738" y="-246" on="0"/>
        <pt x="809" y="-174" on="0"/>
        <pt x="809" y="-91" on="1"/>
        <pt x="595" y="-82" on="0"/>
        <pt x="345" y="20" on="0"/>
        <pt x="195" y="245" on="0"/>
        <pt x="195" y="395" on="1"/>
        <pt x="195" y="525" on="0"/>
        <pt x="251" y="627" on="1"/>
        <pt x="295" y="706" on="0"/>
        <pt x="441" y="815" on="0"/>
        <pt x="522" y="840" on="1"/>
        <pt x="633" y="874" on="0"/>
        <pt x="809" y="881" on="1"/>
        <pt x="808" y="967" on="0"/>
        <pt x="779" y="995" on="1"/>
        <pt x="737" y="1036" on="0"/>
        <pt x="664" y="1036" on="1"/>
        <pt x="610" y="1036" on="1"/>
        <pt x="610" y="1073" on="1"/>
        <pt x="1198" y="1073" on="1"/>
        <pt x="1198" y="1036" on="1"/>
        <pt x="1147" y="1036" on="1"/>
        <pt x="1074" y="1036" on="0"/>
        <pt x="1003" y="965" on="0"/>
        <pt x="1000" y="882" on="1"/>
        <pt x="1223" y="868" on="0"/>
        <pt x="1469" y="764" on="0"/>
        <pt x="1613" y="541" on="0"/>
        <pt x="1613" y="395" on="1"/>
        <pt x="1613" y="253" on="0"/>
        <pt x="1476" y="32" on="0"/>
        <pt x="1215" y="-83" on="0"/>
      </contour>
      <contour>
        <pt x="1000" y="-34" on="1"/>
        <pt x="1197" y="-32" on="0"/>
        <pt x="1405" y="183" on="0"/>
        <pt x="1405" y="395" on="1"/>
        <pt x="1405" y="606" on="0"/>
        <pt x="1197" y="821" on="0"/>
        <pt x="1000" y="823" on="1"/>
      </contour>
      <contour>
        <pt x="808" y="-34" on="1"/>
        <pt x="808" y="823" on="1"/>
        <pt x="665" y="818" on="0"/>
        <pt x="491" y="720" on="0"/>
        <pt x="401" y="516" on="0"/>
        <pt x="401" y="395" on="1"/>
        <pt x="401" y="207" on="0"/>
        <pt x="587" y="-27" on="0"/>
      </contour>
    </TTGlyph>
    <TTGlyph name="Oacute" xMin="602" yMin="-409" xMax="1166" yMax="1123">
      <contour>
        <pt x="759" y="1123" on="1"/>
        <pt x="759" y="-409" on="1"/>
        <pt x="602" y="-409" on="1"/>
        <pt x="602" y="1123" on="1"/>
      </contour>
      <contour>
        <pt x="1166" y="1123" on="1"/>
        <pt x="1166" y="-409" on="1"/>
        <pt x="1009" y="-409" on="1"/>
        <pt x="1009" y="1123" on="1"/>
      </contour>
    </TTGlyph>
    <TTGlyph name="Ocircumflex" xMin="371" yMin="-307" xMax="1545" yMax="869">
      <contour>
        <pt x="371" y="-307" on="1"/>
        <pt x="371" y="869" on="1"/>
        <pt x="1545" y="-306" on="1"/>
      </contour>
    </TTGlyph>
    <TTGlyph name="Odieresis" xMin="336" yMin="-224" xMax="1515" yMax="952">
      <contour>
        <pt x="336" y="-224" on="1"/>
        <pt x="336" y="952" on="1"/>
        <pt x="1515" y="952" on="1"/>
      </contour>
    </TTGlyph>
    <TTGlyph name="Ograve" xMin="390" yMin="-236" xMax="1428" yMax="930">
      <contour>
        <pt x="1428" y="-236" on="1"/>
        <pt x="390" y="-236" on="1"/>
        <pt x="390" y="930" on="1"/>
        <pt x="718" y="930" on="1"/>
        <pt x="718" y="65" on="1"/>
        <pt x="1428" y="65" on="1"/>
      </contour>
    </TTGlyph>
    <TTGlyph name="Oslash" xMin="328" yMin="-397" xMax="1500" yMax="1021">
      <contour>
        <pt x="1500" y="428" on="1"/>
        <pt x="1193" y="428" on="1"/>
        <pt x="1193" y="-397" on="1"/>
        <pt x="643" y="-397" on="1"/>
        <pt x="643" y="428" on="1"/>
        <pt x="328" y="428" on="1"/>
        <pt x="914" y="1021" on="1"/>
      </contour>
      <contour>
        <pt x="1312" y="506" on="1"/>
        <pt x="914" y="909" on="1"/>
        <pt x="516" y="506" on="1"/>
        <pt x="721" y="506" on="1"/>
        <pt x="721" y="-318" on="1"/>
        <pt x="1128" y="-318" on="1"/>
        <pt x="1128" y="506" on="1"/>
      </contour>
    </TTGlyph>
    <TTGlyph name="Otilde" xMin="307" yMin="-249" xMax="1481" yMax="936">
      <contour>
        <pt x="307" y="-249" on="1"/>
        <pt x="1481" y="936" on="1"/>
        <pt x="1481" y="-249" on="1"/>
      </contour>
    </TTGlyph>
    <TTGlyph name="P" xMin="77" yMin="-519" xMax="1769" yMax="1183">
      <contour>
        <pt x="1769" y="337" on="1"/>
        <pt x="1769" y="284" on="0"/>
        <pt x="1722" y="251" on="1"/>
        <pt x="1639" y="193" on="1"/>
        <pt x="1526" y="114" on="0"/>
        <pt x="1455" y="114" on="1"/>
        <pt x="1426" y="114" on="0"/>
        <pt x="1379" y="138" on="1"/>
        <pt x="1276" y="211" on="1"/>
        <pt x="1157" y="293" on="1"/>
        <pt x="1061" y="318" on="1"/>
        <pt x="1041" y="272" on="0"/>
        <pt x="1017" y="256" on="1"/>
        <pt x="957" y="216" on="1"/>
        <pt x="957" y="119" on="0"/>
        <pt x="1011" y="54" on="1"/>
        <pt x="1061" y="3" on="0"/>
        <pt x="1112" y="-48" on="1"/>
        <pt x="1166" y="-115" on="0"/>
        <pt x="1166" y="-216" on="1"/>
        <pt x="1166" y="-283" on="0"/>
        <pt x="1115" y="-343" on="1"/>
        <pt x="1021" y="-454" on="1"/>
        <pt x="966" y="-519" on="0"/>
        <pt x="924" y="-519" on="1"/>
        <pt x="898" y="-519" on="0"/>
        <pt x="876" y="-493" on="1"/>
        <pt x="822" y="-429" on="1"/>
        <pt x="756" y="-356" on="1"/>
        <pt x="684" y="-276" on="0"/>
        <pt x="684" y="-210" on="1"/>
        <pt x="684" y="-156" on="0"/>
        <pt x="725" y="-105" on="1"/>
        <pt x="820" y="13" on="0"/>
        <pt x="878" y="115" on="1"/>
        <pt x="890" y="154" on="1"/>
        <pt x="904" y="209" on="1"/>
        <pt x="857" y="229" on="0"/>
        <pt x="839" y="253" on="1"/>
        <pt x="817" y="282" on="1"/>
        <pt x="794" y="318" on="1"/>
        <pt x="693" y="318" on="0"/>
        <pt x="601" y="226" on="1"/>
        <pt x="535" y="160" on="0"/>
        <pt x="411" y="125" on="1"/>
        <pt x="364" y="121" on="1"/>
        <pt x="307" y="116" on="0"/>
        <pt x="256" y="153" on="1"/>
        <pt x="214" y="183" on="0"/>
        <pt x="133" y="252" on="1"/>
        <pt x="77" y="300" on="0"/>
        <pt x="77" y="338" on="1"/>
        <pt x="77" y="364" on="0"/>
        <pt x="102" y="387" on="1"/>
        <pt x="176" y="456" on="0"/>
        <pt x="219" y="501" on="1"/>
        <pt x="292" y="577" on="0"/>
        <pt x="366" y="577" on="1"/>
        <pt x="414" y="577" on="0"/>
        <pt x="470" y="539" on="1"/>
        <pt x="580" y="464" on="1"/>
        <pt x="703" y="387" on="1"/>
        <pt x="727" y="372" on="0"/>
        <pt x="802" y="363" on="1"/>
        <pt x="820" y="394" on="0"/>
        <pt x="904" y="467" on="1"/>
        <pt x="886" y="571" on="0"/>
        <pt x="808" y="641" on="1"/>
        <pt x="720" y="720" on="0"/>
        <pt x="700" y="817" on="1"/>
        <pt x="693" y="851" on="1"/>
        <pt x="690" y="886" on="1"/>
        <pt x="686" y="933" on="0"/>
        <pt x="719" y="981" on="1"/>
        <pt x="759" y="1040" on="0"/>
        <pt x="829" y="1121" on="1"/>
        <pt x="882" y="1183" on="0"/>
        <pt x="925" y="1183" on="1"/>
        <pt x="950" y="1177" on="1"/>
        <pt x="976" y="1162" on="0"/>
        <pt x="1051" y="1081" on="1"/>
        <pt x="1160" y="963" on="0"/>
        <pt x="1160" y="876" on="1"/>
        <pt x="1160" y="838" on="0"/>
        <pt x="1138" y="809" on="1"/>
        <pt x="1065" y="715" on="0"/>
        <pt x="985" y="566" on="1"/>
        <pt x="957" y="469" on="1"/>
        <pt x="993" y="442" on="0"/>
        <pt x="1015" y="420" on="1"/>
        <pt x="1062" y="358" on="1"/>
        <pt x="1131" y="370" on="0"/>
        <pt x="1196" y="416" on="1"/>
        <pt x="1257" y="459" on="1"/>
        <pt x="1324" y="504" on="1"/>
        <pt x="1385" y="545" on="0"/>
        <pt x="1459" y="561" on="1"/>
        <pt x="1487" y="564" on="1"/>
        <pt x="1529" y="564" on="0"/>
        <pt x="1606" y="522" on="1"/>
        <pt x="1706" y="437" on="1"/>
        <pt x="1769" y="383" on="0"/>
      </contour>
    </TTGlyph>
    <TTGlyph name="Q" xMin="222" yMin="-299" xMax="1586" yMax="1033">
      <contour>
        <pt x="897" y="638" on="1"/>
        <pt x="998" y="638" on="0"/>
        <pt x="1146" y="488" on="0"/>
        <pt x="1146" y="387" on="1"/>
        <pt x="1146" y="287" on="0"/>
        <pt x="997" y="138" on="0"/>
        <pt x="897" y="138" on="1"/>
        <pt x="794" y="138" on="0"/>
        <pt x="646" y="284" on="0"/>
        <pt x="646" y="387" on="1"/>
        <pt x="646" y="488" on="0"/>
        <pt x="718" y="564" on="1"/>
        <pt x="726" y="574" on="0"/>
        <pt x="733" y="579" on="1"/>
        <pt x="753" y="594" on="1"/>
        <pt x="799" y="618" on="1"/>
        <pt x="880" y="638" on="0"/>
      </contour>
      <contour>
        <pt x="905" y="921" on="1"/>
        <pt x="788" y="921" on="0"/>
        <pt x="692" y="882" on="1"/>
        <pt x="589" y="840" on="0"/>
        <pt x="502" y="758" on="1"/>
        <pt x="333" y="599" on="0"/>
        <pt x="333" y="366" on="1"/>
        <pt x="333" y="134" on="0"/>
        <pt x="504" y="-28" on="1"/>
        <pt x="672" y="-188" on="0"/>
        <pt x="905" y="-188" on="1"/>
        <pt x="1139" y="-188" on="0"/>
        <pt x="1475" y="133" on="0"/>
        <pt x="1475" y="366" on="1"/>
        <pt x="1475" y="589" on="0"/>
        <pt x="1306" y="758" on="1"/>
        <pt x="1143" y="921" on="0"/>
      </contour>
      <contour>
        <pt x="905" y="1033" on="1"/>
        <pt x="1185" y="1033" on="0"/>
        <pt x="1385" y="841" on="1"/>
        <pt x="1586" y="646" on="0"/>
        <pt x="1586" y="367" on="1"/>
        <pt x="1586" y="88" on="0"/>
        <pt x="1185" y="-299" on="0"/>
        <pt x="905" y="-299" on="1"/>
        <pt x="620" y="-299" on="0"/>
        <pt x="420" y="-105" on="1"/>
        <pt x="332" y="-20" on="0"/>
        <pt x="222" y="244" on="0"/>
        <pt x="222" y="367" on="1"/>
        <pt x="222" y="647" on="0"/>
        <pt x="624" y="1033" on="0"/>
      </contour>
    </TTGlyph>
    <TTGlyph name="R" xMin="203" yMin="-493" xMax="1671" yMax="1164">
      <contour>
        <pt x="932" y="1164" on="1"/>
        <pt x="1671" y="346" on="1"/>
        <pt x="932" y="-493" on="1"/>
        <pt x="203" y="346" on="1"/>
      </contour>
      <contour>
        <pt x="596" y="644" on="1"/>
        <pt x="325" y="345" on="1"/>
        <pt x="596" y="33" on="1"/>
        <pt x="884" y="344" on="1"/>
      </contour>
      <contour>
        <pt x="924" y="1027" on="1"/>
        <pt x="660" y="722" on="1"/>
        <pt x="943" y="416" on="1"/>
        <pt x="1216" y="713" on="1"/>
      </contour>
      <contour>
        <pt x="1296" y="644" on="1"/>
        <pt x="1035" y="342" on="1"/>
        <pt x="1302" y="45" on="1"/>
        <pt x="1566" y="345" on="1"/>
      </contour>
      <contour>
        <pt x="941" y="270" on="1"/>
        <pt x="648" y="-46" on="1"/>
        <pt x="924" y="-363" on="1"/>
        <pt x="1223" y="-43" on="1"/>
      </contour>
    </TTGlyph>
    <TTGlyph name="S" xMin="214" yMin="-363" xMax="1635" yMax="1045">
      <contour>
        <pt x="1635" y="1045" on="1"/>
        <pt x="1635" y="-363" on="1"/>
        <pt x="214" y="-363" on="1"/>
        <pt x="214" y="1045" on="1"/>
      </contour>
    </TTGlyph>
    <TTGlyph name="Scaron" xMin="273" yMin="-256" xMax="1613" yMax="1030">
      <contour>
        <pt x="1613" y="1003" on="1"/>
        <pt x="1612" y="852" on="1"/>
        <pt x="1485" y="665" on="1"/>
        <pt x="1314" y="459" on="1"/>
        <pt x="1175" y="294" on="1"/>
        <pt x="1065" y="185" on="1"/>
        <pt x="904" y="38" on="1"/>
        <pt x="747" y="-116" on="1"/>
        <pt x="531" y="-256" on="1"/>
        <pt x="448" y="-256" on="1"/>
        <pt x="365" y="-152" on="1"/>
        <pt x="299" y="52" on="1"/>
        <pt x="273" y="290" on="1"/>
        <pt x="300" y="475" on="1"/>
        <pt x="378" y="543" on="1"/>
        <pt x="463" y="542" on="1"/>
        <pt x="491" y="487" on="1"/>
        <pt x="509" y="375" on="1"/>
        <pt x="530" y="206" on="1"/>
        <pt x="579" y="102" on="1"/>
        <pt x="728" y="165" on="1"/>
        <pt x="867" y="309" on="1"/>
        <pt x="1010" y="522" on="1"/>
        <pt x="1177" y="784" on="1"/>
        <pt x="1326" y="976" on="1"/>
        <pt x="1470" y="1030" on="1"/>
      </contour>
    </TTGlyph>
    <TTGlyph name="T" xMin="350" yMin="-187" xMax="1438" yMax="871">
      <contour>
        <pt x="1438" y="871" on="1"/>
        <pt x="1438" y="665" on="1"/>
        <pt x="997" y="665" on="1"/>
        <pt x="997" y="-187" on="1"/>
        <pt x="791" y="-187" on="1"/>
        <pt x="791" y="665" on="1"/>
        <pt x="350" y="665" on="1"/>
        <pt x="350" y="871" on="1"/>
      </contour>
    </TTGlyph>
    <TTGlyph name="Thorn" xMin="287" yMin="-353" xMax="1501" yMax="1056">
      <contour>
        <pt x="1501" y="-353" on="1"/>
        <pt x="287" y="356" on="1"/>
        <pt x="1501" y="1056" on="1"/>
      </contour>
      <contour>
        <pt x="1419" y="-209" on="1"/>
        <pt x="1419" y="913" on="1"/>
        <pt x="451" y="355" on="1"/>
      </contour>
    </TTGlyph>
    <TTGlyph name="U" xMin="353" yMin="-179" xMax="1493" yMax="961">
      <contour>
        <pt x="458" y="-74" on="1"/>
        <pt x="1382" y="-74" on="1"/>
        <pt x="1382" y="844" on="1"/>
      </contour>
      <contour>
        <pt x="353" y="961" on="1"/>
        <pt x="1493" y="961" on="1"/>
        <pt x="1493" y="-179" on="1"/>
        <pt x="353" y="-179" on="1"/>
      </contour>
    </TTGlyph>
    <TTGlyph name="Uacute" xMin="316" yMin="-354" xMax="1492" yMax="1038">
      <contour>
        <pt x="1492" y="238" on="1"/>
        <pt x="902" y="-354" on="1"/>
        <pt x="316" y="238" on="1"/>
        <pt x="631" y="238" on="1"/>
        <pt x="631" y="1038" on="1"/>
        <pt x="1182" y="1038" on="1"/>
        <pt x="1182" y="238" on="1"/>
      </contour>
      <contour>
        <pt x="1317" y="160" on="1"/>
        <pt x="1103" y="160" on="1"/>
        <pt x="1103" y="959" on="1"/>
        <pt x="710" y="959" on="1"/>
        <pt x="710" y="160" on="1"/>
        <pt x="504" y="160" on="1"/>
        <pt x="912" y="-252" on="1"/>
      </contour>
    </TTGlyph>
    <TTGlyph name="Ucircumflex" xMin="223" yMin="-244" xMax="1625" yMax="928">
      <contour>
        <pt x="1625" y="73" on="1"/>
        <pt x="813" y="73" on="1"/>
        <pt x="813" y="-244" on="1"/>
        <pt x="223" y="352" on="1"/>
        <pt x="813" y="928" on="1"/>
        <pt x="813" y="623" on="1"/>
        <pt x="1625" y="623" on="1"/>
      </contour>
      <contour>
        <pt x="1547" y="151" on="1"/>
        <pt x="1547" y="558" on="1"/>
        <pt x="734" y="558" on="1"/>
        <pt x="734" y="741" on="1"/>
        <pt x="334" y="352" on="1"/>
        <pt x="734" y="-53" on="1"/>
        <pt x="734" y="151" on="1"/>
      </contour>
    </TTGlyph>
    <TTGlyph name="Udieresis" xMin="325" yMin="-3" xMax="1517" yMax="838">
      <contour>
        <pt x="876" y="452" on="1"/>
        <pt x="876" y="517" on="1"/>
        <pt x="876" y="624" on="0"/>
        <pt x="800" y="683" on="1"/>
        <pt x="772" y="705" on="0"/>
        <pt x="725" y="725" on="1"/>
        <pt x="664" y="741" on="0"/>
        <pt x="644" y="741" on="1"/>
        <pt x="570" y="741" on="0"/>
        <pt x="493" y="687" on="1"/>
        <pt x="455" y="661" on="0"/>
        <pt x="417" y="576" on="0"/>
        <pt x="417" y="517" on="1"/>
        <pt x="417" y="-3" on="1"/>
        <pt x="325" y="-3" on="1"/>
        <pt x="325" y="517" on="1"/>
        <pt x="325" y="658" on="0"/>
        <pt x="497" y="838" on="0"/>
        <pt x="637" y="838" on="1"/>
        <pt x="759" y="838" on="0"/>
        <pt x="859" y="758" on="1"/>
        <pt x="909" y="718" on="0"/>
        <pt x="940" y="656" on="1"/>
        <pt x="961" y="590" on="1"/>
        <pt x="966" y="555" on="1"/>
        <pt x="966" y="321" on="1"/>
        <pt x="966" y="211" on="0"/>
        <pt x="1042" y="152" on="1"/>
        <pt x="1070" y="130" on="0"/>
        <pt x="1117" y="110" on="1"/>
        <pt x="1178" y="94" on="0"/>
        <pt x="1198" y="94" on="1"/>
        <pt x="1270" y="94" on="0"/>
        <pt x="1349" y="148" on="1"/>
        <pt x="1425" y="200" on="0"/>
        <pt x="1425" y="318" on="1"/>
        <pt x="1425" y="838" on="1"/>
        <pt x="1517" y="838" on="1"/>
        <pt x="1517" y="318" on="1"/>
        <pt x="1517" y="178" on="0"/>
        <pt x="1345" y="-3" on="0"/>
        <pt x="1205" y="-3" on="1"/>
        <pt x="1083" y="-3" on="0"/>
        <pt x="983" y="77" on="1"/>
        <pt x="933" y="117" on="0"/>
        <pt x="902" y="179" on="1"/>
        <pt x="881" y="245" on="1"/>
        <pt x="876" y="280" on="1"/>
        <pt x="874" y="321" on="1"/>
      </contour>
    </TTGlyph>
    <TTGlyph name="Ugrave" xMin="238" yMin="-249" xMax="1640" yMax="923">
      <contour>
        <pt x="1640" y="332" on="1"/>
        <pt x="1050" y="-249" on="1"/>
        <pt x="1050" y="55" on="1"/>
        <pt x="238" y="55" on="1"/>
        <pt x="238" y="605" on="1"/>
        <pt x="1050" y="605" on="1"/>
        <pt x="1050" y="923" on="1"/>
      </contour>
      <contour>
        <pt x="1538" y="341" on="1"/>
        <pt x="1129" y="751" on="1"/>
        <pt x="1129" y="526" on="1"/>
        <pt x="316" y="526" on="1"/>
        <pt x="316" y="133" on="1"/>
        <pt x="1129" y="133" on="1"/>
        <pt x="1129" y="-62" on="1"/>
      </contour>
    </TTGlyph>
    <TTGlyph name="V" xMin="95" yMin="-388" xMax="1748" yMax="1065">
      <contour>
        <pt x="670" y="-386" on="1"/>
        <pt x="1533" y="1065" on="1"/>
        <pt x="1748" y="1065" on="1"/>
        <pt x="913" y="-387" on="1"/>
      </contour>
      <contour>
        <pt x="976" y="1065" on="1"/>
        <pt x="1208" y="1064" on="1"/>
        <pt x="312" y="-388" on="1"/>
        <pt x="95" y="-388" on="1"/>
      </contour>
    </TTGlyph>
    <TTGlyph name="W" xMin="91" yMin="-369" xMax="1757" yMax="1012">
      <contour>
        <pt x="923" y="724" on="1"/>
        <pt x="941" y="768" on="1"/>
        <pt x="963" y="808" on="1"/>
        <pt x="1007" y="878" on="1"/>
        <pt x="1012" y="888" on="0"/>
        <pt x="1061" y="930" on="1"/>
        <pt x="1093" y="951" on="1"/>
        <pt x="1134" y="974" on="1"/>
        <pt x="1196" y="996" on="1"/>
        <pt x="1219" y="1002" on="1"/>
        <pt x="1266" y="1010" on="1"/>
        <pt x="1309" y="1012" on="1"/>
        <pt x="1372" y="1012" on="1"/>
        <pt x="1389" y="1011" on="1"/>
        <pt x="1406" y="1010" on="0"/>
        <pt x="1418" y="1007" on="1"/>
        <pt x="1431" y="1006" on="1"/>
        <pt x="1449" y="1002" on="1"/>
        <pt x="1493" y="991" on="1"/>
        <pt x="1511" y="985" on="1"/>
        <pt x="1531" y="979" on="1"/>
        <pt x="1567" y="964" on="1"/>
        <pt x="1603" y="949" on="0"/>
        <pt x="1638" y="923" on="1"/>
        <pt x="1692" y="883" on="0"/>
        <pt x="1726" y="822" on="1"/>
        <pt x="1740" y="796" on="0"/>
        <pt x="1747" y="766" on="1"/>
        <pt x="1754" y="734" on="1"/>
        <pt x="1757" y="701" on="1"/>
        <pt x="1757" y="688" on="1"/>
        <pt x="1752" y="621" on="1"/>
        <pt x="1751" y="606" on="0"/>
        <pt x="1744" y="592" on="1"/>
        <pt x="1726" y="536" on="1"/>
        <pt x="1714" y="512" on="1"/>
        <pt x="1698" y="487" on="1"/>
        <pt x="1664" y="439" on="1"/>
        <pt x="1642" y="409" on="0"/>
        <pt x="1618" y="384" on="1"/>
        <pt x="1563" y="327" on="1"/>
        <pt x="1237" y="16" on="1"/>
        <pt x="1172" y="-57" on="1"/>
        <pt x="1127" y="-115" on="1"/>
        <pt x="1112" y="-136" on="1"/>
        <pt x="1099" y="-156" on="1"/>
        <pt x="1062" y="-203" on="1"/>
        <pt x="1031" y="-245" on="1"/>
        <pt x="1023" y="-262" on="1"/>
        <pt x="1011" y="-281" on="1"/>
        <pt x="1006" y="-293" on="1"/>
        <pt x="996" y="-311" on="1"/>
        <pt x="977" y="-342" on="1"/>
        <pt x="957" y="-361" on="1"/>
        <pt x="942" y="-366" on="1"/>
        <pt x="921" y="-369" on="1"/>
        <pt x="904" y="-366" on="1"/>
        <pt x="896" y="-363" on="1"/>
        <pt x="883" y="-356" on="1"/>
        <pt x="880" y="-353" on="1"/>
        <pt x="872" y="-343" on="1"/>
        <pt x="850" y="-311" on="1"/>
        <pt x="845" y="-299" on="1"/>
        <pt x="822" y="-260" on="1"/>
        <pt x="812" y="-244" on="1"/>
        <pt x="802" y="-229" on="1"/>
        <pt x="749" y="-156" on="1"/>
        <pt x="674" y="-62" on="1"/>
        <pt x="608" y="16" on="1"/>
        <pt x="584" y="40" on="1"/>
        <pt x="575" y="51" on="1"/>
        <pt x="552" y="73" on="1"/>
        <pt x="469" y="155" on="1"/>
        <pt x="259" y="348" on="1"/>
        <pt x="233" y="376" on="1"/>
        <pt x="195" y="423" on="1"/>
        <pt x="152" y="481" on="1"/>
        <pt x="124" y="530" on="1"/>
        <pt x="113" y="555" on="1"/>
        <pt x="103" y="584" on="1"/>
        <pt x="91" y="638" on="0"/>
        <pt x="91" y="697" on="1"/>
        <pt x="91" y="844" on="0"/>
        <pt x="235" y="934" on="1"/>
        <pt x="360" y="1012" on="0"/>
        <pt x="515" y="1012" on="1"/>
        <pt x="547" y="1012" on="1"/>
        <pt x="569" y="1012" on="0"/>
        <pt x="572" y="1010" on="1"/>
        <pt x="600" y="1007" on="1"/>
        <pt x="627" y="1002" on="1"/>
        <pt x="675" y="993" on="0"/>
        <pt x="714" y="974" on="1"/>
        <pt x="789" y="937" on="0"/>
        <pt x="840" y="878" on="1"/>
        <pt x="866" y="841" on="1"/>
        <pt x="883" y="812" on="1"/>
        <pt x="906" y="766" on="1"/>
      </contour>
    </TTGlyph>
    <TTGlyph name="X" xMin="224" yMin="-351" xMax="1645" yMax="1057">
      <contour>
        <pt x="1645" y="1057" on="1"/>
        <pt x="224" y="1057" on="1"/>
        <pt x="224" y="-351" on="1"/>
        <pt x="1645" y="-351" on="1"/>
      </contour>
      <contour>
        <pt x="752" y="353" on="1"/>
        <pt x="312" y="789" on="1"/>
        <pt x="312" y="972" on="1"/>
        <pt x="496" y="972" on="1"/>
        <pt x="936" y="535" on="1"/>
        <pt x="1382" y="972" on="1"/>
        <pt x="1560" y="972" on="1"/>
        <pt x="1560" y="789" on="1"/>
        <pt x="1120" y="353" on="1"/>
        <pt x="1560" y="-82" on="1"/>
        <pt x="1560" y="-266" on="1"/>
        <pt x="1382" y="-266" on="1"/>
        <pt x="936" y="170" on="1"/>
        <pt x="496" y="-266" on="1"/>
        <pt x="312" y="-266" on="1"/>
        <pt x="312" y="-89" on="1"/>
      </contour>
    </TTGlyph>
    <TTGlyph name="Y" xMin="305" yMin="-223" xMax="1525" yMax="897">
      <contour>
        <pt x="1525" y="797" on="1"/>
        <pt x="726" y="-223" on="1"/>
        <pt x="495" y="-223" on="1"/>
        <pt x="899" y="271" on="1"/>
        <pt x="305" y="797" on="1"/>
        <pt x="305" y="887" on="1"/>
        <pt x="430" y="887" on="1"/>
        <pt x="1002" y="410" on="1"/>
        <pt x="1383" y="897" on="1"/>
        <pt x="1525" y="897" on="1"/>
      </contour>
    </TTGlyph>
    <TTGlyph name="Yacute" xMin="406" yMin="-453" xMax="1472" yMax="1127">
      <contour>
        <pt x="827" y="1127" on="1"/>
        <pt x="849" y="1127" on="0"/>
        <pt x="994" y="1041" on="1"/>
        <pt x="1184" y="928" on="0"/>
        <pt x="1304" y="785" on="1"/>
        <pt x="1351" y="728" on="0"/>
        <pt x="1377" y="681" on="1"/>
        <pt x="1403" y="633" on="1"/>
        <pt x="1430" y="571" on="1"/>
        <pt x="1472" y="475" on="0"/>
        <pt x="1472" y="341" on="1"/>
        <pt x="1472" y="107" on="0"/>
        <pt x="1304" y="-103" on="1"/>
        <pt x="1191" y="-245" on="0"/>
        <pt x="994" y="-360" on="1"/>
        <pt x="936" y="-394" on="1"/>
        <pt x="884" y="-422" on="1"/>
        <pt x="850" y="-436" on="1"/>
        <pt x="827" y="-453" on="1"/>
        <pt x="406" y="-453" on="1"/>
        <pt x="449" y="-428" on="1"/>
        <pt x="511" y="-393" on="1"/>
        <pt x="578" y="-351" on="1"/>
        <pt x="610" y="-331" on="0"/>
        <pt x="669" y="-287" on="1"/>
        <pt x="712" y="-255" on="1"/>
        <pt x="754" y="-222" on="1"/>
        <pt x="775" y="-205" on="0"/>
        <pt x="827" y="-156" on="1"/>
        <pt x="868" y="-117" on="0"/>
        <pt x="904" y="-76" on="1"/>
        <pt x="1078" y="122" on="0"/>
        <pt x="1078" y="337" on="1"/>
        <pt x="1078" y="544" on="0"/>
        <pt x="904" y="748" on="1"/>
        <pt x="768" y="908" on="0"/>
        <pt x="580" y="1025" on="1"/>
        <pt x="460" y="1100" on="1"/>
        <pt x="406" y="1127" on="1"/>
      </contour>
    </TTGlyph>
    <TTGlyph name="Ydieresis" xMin="243" yMin="-419" xMax="1622" yMax="1000">
      <contour>
        <pt x="1120" y="25" on="1"/>
        <pt x="1120" y="6" on="1"/>
        <pt x="666" y="462" on="1"/>
        <pt x="327" y="462" on="1"/>
        <pt x="243" y="571" on="1"/>
        <pt x="243" y="890" on="1"/>
        <pt x="353" y="1000" on="1"/>
        <pt x="666" y="1000" on="1"/>
        <pt x="774" y="888" on="1"/>
        <pt x="774" y="516" on="1"/>
        <pt x="1200" y="89" on="1"/>
      </contour>
      <contour>
        <pt x="1622" y="-316" on="1"/>
        <pt x="1520" y="-419" on="1"/>
        <pt x="1200" y="-419" on="1"/>
        <pt x="1120" y="-316" on="1"/>
        <pt x="1120" y="25" on="1"/>
        <pt x="1200" y="89" on="1"/>
        <pt x="1520" y="89" on="1"/>
        <pt x="1622" y="-16" on="1"/>
      </contour>
    </TTGlyph>
    <TTGlyph name="Z" xMin="433" yMin="-421" xMax="1430" yMax="1097">
      <contour>
        <pt x="838" y="-421" on="1"/>
        <pt x="838" y="641" on="1"/>
        <pt x="433" y="126" on="1"/>
        <pt x="435" y="459" on="1"/>
        <pt x="934" y="1097" on="1"/>
        <pt x="1430" y="462" on="1"/>
        <pt x="1430" y="128" on="1"/>
        <pt x="1029" y="641" on="1"/>
        <pt x="1029" y="-421" on="1"/>
      </contour>
    </TTGlyph>
    <TTGlyph name="a" xMin="309" yMin="-238" xMax="1530" yMax="970">
      <contour>
        <pt x="1209" y="-194" on="1"/>
        <pt x="1209" y="-37" on="1"/>
        <pt x="978" y="-238" on="0"/>
        <pt x="715" y="-238" on="1"/>
        <pt x="523" y="-238" on="0"/>
        <pt x="309" y="-38" on="0"/>
        <pt x="309" y="105" on="1"/>
        <pt x="309" y="264" on="0"/>
        <pt x="592" y="500" on="0"/>
        <pt x="864" y="500" on="1"/>
        <pt x="937" y="500" on="0"/>
        <pt x="1109" y="481" on="0"/>
        <pt x="1209" y="460" on="1"/>
        <pt x="1209" y="637" on="1"/>
        <pt x="1209" y="727" on="0"/>
        <pt x="1047" y="859" on="0"/>
        <pt x="885" y="859" on="1"/>
        <pt x="762" y="859" on="0"/>
        <pt x="538" y="785" on="1"/>
        <pt x="497" y="773" on="0"/>
        <pt x="486" y="773" on="1"/>
        <pt x="466" y="773" on="0"/>
        <pt x="437" y="804" on="0"/>
        <pt x="437" y="827" on="1"/>
        <pt x="437" y="849" on="0"/>
        <pt x="449" y="862" on="1"/>
        <pt x="467" y="881" on="0"/>
        <pt x="592" y="916" on="1"/>
        <pt x="789" y="970" on="0"/>
        <pt x="890" y="970" on="1"/>
        <pt x="1091" y="970" on="0"/>
        <pt x="1317" y="765" on="0"/>
        <pt x="1317" y="637" on="1"/>
        <pt x="1317" y="-85" on="1"/>
        <pt x="1458" y="-85" on="1"/>
        <pt x="1498" y="-85" on="0"/>
        <pt x="1530" y="-114" on="0"/>
        <pt x="1530" y="-139" on="1"/>
        <pt x="1530" y="-162" on="0"/>
        <pt x="1498" y="-194" on="0"/>
        <pt x="1458" y="-194" on="1"/>
      </contour>
      <contour>
        <pt x="1155" y="331" on="1"/>
        <pt x="1088" y="354" on="0"/>
        <pt x="936" y="373" on="0"/>
        <pt x="851" y="373" on="1"/>
        <pt x="640" y="373" on="0"/>
        <pt x="521" y="275" on="1"/>
        <pt x="432" y="202" on="0"/>
        <pt x="432" y="101" on="1"/>
        <pt x="432" y="7" on="0"/>
        <pt x="569" y="-120" on="0"/>
        <pt x="701" y="-120" on="1"/>
        <pt x="825" y="-120" on="0"/>
        <pt x="1041" y="-13" on="0"/>
        <pt x="1155" y="103" on="1"/>
      </contour>
    </TTGlyph>
    <TTGlyph name="aacute" xMin="183" yMin="-468" xMax="1671" yMax="265">
      <contour>
        <pt x="1671" y="-468" on="1"/>
        <pt x="183" y="-468" on="1"/>
        <pt x="187" y="-363" on="1"/>
        <pt x="190" y="-339" on="1"/>
        <pt x="195" y="-319" on="1"/>
        <pt x="201" y="-301" on="1"/>
        <pt x="210" y="-264" on="1"/>
        <pt x="223" y="-224" on="1"/>
        <pt x="235" y="-169" on="0"/>
        <pt x="255" y="-149" on="1"/>
        <pt x="276" y="-108" on="0"/>
        <pt x="331" y="-24" on="1"/>
        <pt x="370" y="25" on="0"/>
        <pt x="443" y="89" on="1"/>
        <pt x="644" y="265" on="0"/>
        <pt x="927" y="265" on="1"/>
        <pt x="1201" y="265" on="0"/>
        <pt x="1411" y="89" on="1"/>
        <pt x="1520" y="-2" on="0"/>
        <pt x="1599" y="-147" on="1"/>
        <pt x="1627" y="-220" on="1"/>
        <pt x="1652" y="-300" on="1"/>
        <pt x="1666" y="-380" on="1"/>
        <pt x="1671" y="-436" on="1"/>
      </contour>
    </TTGlyph>
    <TTGlyph name="acircumflex" xMin="136" yMin="-163" xMax="1749" yMax="919">
      <contour>
        <pt x="1707" y="757" on="1"/>
        <pt x="1707" y="626" on="1"/>
        <pt x="1320" y="799" on="0"/>
        <pt x="959" y="799" on="1"/>
        <pt x="723" y="799" on="0"/>
        <pt x="574" y="738" on="1"/>
        <pt x="669" y="692" on="0"/>
        <pt x="762" y="548" on="0"/>
        <pt x="762" y="453" on="1"/>
        <pt x="762" y="327" on="0"/>
        <pt x="577" y="147" on="0"/>
        <pt x="447" y="147" on="1"/>
        <pt x="318" y="147" on="0"/>
        <pt x="136" y="326" on="0"/>
        <pt x="136" y="451" on="1"/>
        <pt x="136" y="653" on="0"/>
        <pt x="638" y="919" on="0"/>
        <pt x="1017" y="919" on="1"/>
        <pt x="1344" y="919" on="0"/>
      </contour>
      <contour>
        <pt x="686" y="461" on="1"/>
        <pt x="686" y="554" on="0"/>
        <pt x="547" y="685" on="0"/>
        <pt x="451" y="685" on="1"/>
        <pt x="355" y="685" on="0"/>
        <pt x="223" y="556" on="0"/>
        <pt x="223" y="462" on="1"/>
        <pt x="223" y="367" on="0"/>
        <pt x="358" y="234" on="0"/>
        <pt x="453" y="234" on="1"/>
        <pt x="549" y="234" on="0"/>
        <pt x="686" y="367" on="0"/>
      </contour>
      <contour>
        <pt x="178" y="-1" on="1"/>
        <pt x="178" y="130" on="1"/>
        <pt x="565" y="-42" on="0"/>
        <pt x="926" y="-42" on="1"/>
        <pt x="1162" y="-42" on="0"/>
        <pt x="1311" y="18" on="1"/>
        <pt x="1216" y="64" on="0"/>
        <pt x="1123" y="208" on="0"/>
        <pt x="1123" y="303" on="1"/>
        <pt x="1123" y="429" on="0"/>
        <pt x="1308" y="609" on="0"/>
        <pt x="1438" y="609" on="1"/>
        <pt x="1567" y="609" on="0"/>
        <pt x="1749" y="430" on="0"/>
        <pt x="1749" y="305" on="1"/>
        <pt x="1749" y="103" on="0"/>
        <pt x="1247" y="-163" on="0"/>
        <pt x="868" y="-163" on="1"/>
        <pt x="541" y="-163" on="0"/>
      </contour>
      <contour>
        <pt x="1199" y="295" on="1"/>
        <pt x="1199" y="202" on="0"/>
        <pt x="1338" y="71" on="0"/>
        <pt x="1434" y="71" on="1"/>
        <pt x="1530" y="71" on="0"/>
        <pt x="1662" y="200" on="0"/>
        <pt x="1662" y="294" on="1"/>
        <pt x="1662" y="389" on="0"/>
        <pt x="1527" y="522" on="0"/>
        <pt x="1432" y="522" on="1"/>
        <pt x="1336" y="522" on="0"/>
        <pt x="1199" y="389" on="0"/>
      </contour>
    </TTGlyph>
    <TTGlyph name="acute" xMin="305" yMin="-129" xMax="1526" yMax="782">
      <contour>
        <pt x="1526" y="-129" on="1"/>
        <pt x="305" y="-129" on="1"/>
        <pt x="305" y="60" on="1"/>
        <pt x="806" y="60" on="1"/>
        <pt x="806" y="782" on="1"/>
        <pt x="1028" y="782" on="1"/>
        <pt x="1028" y="64" on="1"/>
        <pt x="1526" y="64" on="1"/>
      </contour>
    </TTGlyph>
    <TTGlyph name="adieresis" xMin="305" yMin="-318" xMax="1573" yMax="946">
      <contour>
        <pt x="1573" y="946" on="1"/>
        <pt x="1573" y="-318" on="1"/>
        <pt x="305" y="-318" on="1"/>
        <pt x="305" y="946" on="1"/>
      </contour>
      <contour>
        <pt x="1448" y="823" on="1"/>
        <pt x="430" y="823" on="1"/>
        <pt x="430" y="-195" on="1"/>
        <pt x="1448" y="-195" on="1"/>
      </contour>
    </TTGlyph>
    <TTGlyph name="ae" xMin="74" yMin="-495" xMax="1764" yMax="1189">
      <contour>
        <pt x="74" y="344" on="1"/>
        <pt x="913" y="1189" on="1"/>
        <pt x="1764" y="344" on="1"/>
        <pt x="913" y="-495" on="1"/>
      </contour>
      <contour>
        <pt x="277" y="344" on="1"/>
        <pt x="914" y="-292" on="1"/>
        <pt x="1560" y="344" on="1"/>
        <pt x="914" y="985" on="1"/>
      </contour>
      <contour>
        <pt x="592" y="344" on="1"/>
        <pt x="915" y="670" on="1"/>
        <pt x="1243" y="344" on="1"/>
        <pt x="915" y="21" on="1"/>
      </contour>
    </TTGlyph>
    <TTGlyph name="agrave" xMin="359" yMin="-440" xMax="1479" yMax="1134">
      <contour>
        <pt x="1479" y="345" on="1"/>
        <pt x="920" y="-440" on="1"/>
        <pt x="359" y="345" on="1"/>
        <pt x="920" y="1134" on="1"/>
      </contour>
      <contour>
        <pt x="1349" y="345" on="1"/>
        <pt x="920" y="951" on="1"/>
        <pt x="489" y="345" on="1"/>
        <pt x="919" y="-257" on="1"/>
      </contour>
      <contour>
        <pt x="1082" y="336" on="1"/>
        <pt x="919" y="107" on="1"/>
        <pt x="750" y="345" on="1"/>
        <pt x="910" y="577" on="1"/>
      </contour>
    </TTGlyph>
    <TTGlyph name="ampersand" xMin="272" yMin="-290" xMax="1618" yMax="1013">
      <contour>
        <pt x="1169" y="541" on="1"/>
        <pt x="1557" y="541" on="1"/>
        <pt x="1557" y="507" on="1"/>
        <pt x="1477" y="500" on="0"/>
        <pt x="1400" y="442" on="0"/>
        <pt x="1237" y="150" on="0"/>
        <pt x="1135" y="23" on="1"/>
        <pt x="1218" y="-72" on="0"/>
        <pt x="1347" y="-148" on="0"/>
        <pt x="1412" y="-148" on="1"/>
        <pt x="1476" y="-148" on="0"/>
        <pt x="1565" y="-79" on="0"/>
        <pt x="1584" y="-12" on="1"/>
        <pt x="1618" y="-37" on="1"/>
        <pt x="1584" y="-166" on="0"/>
        <pt x="1432" y="-290" on="0"/>
        <pt x="1331" y="-290" on="1"/>
        <pt x="1255" y="-290" on="0"/>
        <pt x="1098" y="-208" on="0"/>
        <pt x="1007" y="-110" on="1"/>
        <pt x="892" y="-210" on="0"/>
        <pt x="708" y="-290" on="0"/>
        <pt x="604" y="-290" on="1"/>
        <pt x="450" y="-290" on="0"/>
        <pt x="272" y="-128" on="0"/>
        <pt x="272" y="-15" on="1"/>
        <pt x="272" y="95" on="0"/>
        <pt x="433" y="316" on="0"/>
        <pt x="655" y="435" on="1"/>
        <pt x="611" y="531" on="0"/>
        <pt x="580" y="653" on="0"/>
        <pt x="580" y="708" on="1"/>
        <pt x="580" y="866" on="0"/>
        <pt x="697" y="950" on="1"/>
        <pt x="788" y="1013" on="0"/>
        <pt x="902" y="1013" on="1"/>
        <pt x="1012" y="1013" on="0"/>
        <pt x="1151" y="883" on="0"/>
        <pt x="1151" y="789" on="1"/>
        <pt x="1151" y="691" on="0"/>
        <pt x="1075" y="608" on="1"/>
        <pt x="1016" y="544" on="0"/>
        <pt x="847" y="457" on="1"/>
        <pt x="964" y="249" on="0"/>
        <pt x="1092" y="77" on="1"/>
        <pt x="1255" y="270" on="0"/>
        <pt x="1255" y="400" on="1"/>
        <pt x="1255" y="444" on="0"/>
        <pt x="1226" y="478" on="1"/>
        <pt x="1207" y="502" on="0"/>
        <pt x="1169" y="507" on="1"/>
      </contour>
      <contour>
        <pt x="793" y="516" on="1"/>
        <pt x="1022" y="623" on="0"/>
        <pt x="1022" y="791" on="1"/>
        <pt x="1022" y="859" on="0"/>
        <pt x="939" y="945" on="0"/>
        <pt x="878" y="945" on="1"/>
        <pt x="810" y="945" on="0"/>
        <pt x="716" y="847" on="0"/>
        <pt x="716" y="777" on="1"/>
        <pt x="716" y="735" on="0"/>
        <pt x="747" y="622" on="0"/>
      </contour>
      <contour>
        <pt x="937" y="-58" on="1"/>
        <pt x="815" y="107" on="0"/>
        <pt x="719" y="260" on="0"/>
        <pt x="664" y="373" on="1"/>
        <pt x="441" y="246" on="0"/>
        <pt x="441" y="67" on="1"/>
        <pt x="441" y="-29" on="0"/>
        <pt x="568" y="-179" on="0"/>
        <pt x="678" y="-179" on="1"/>
        <pt x="735" y="-179" on="0"/>
        <pt x="843" y="-133" on="0"/>
      </contour>
    </TTGlyph>
    <TTGlyph name="aring" xMin="434" yMin="-158" xMax="1404" yMax="811">
      <contour>
        <pt x="741" y="148" on="1"/>
        <pt x="1097" y="148" on="1"/>
        <pt x="1097" y="504" on="1"/>
        <pt x="741" y="504" on="1"/>
      </contour>
      <contour>
        <pt x="434" y="-158" on="1"/>
        <pt x="434" y="811" on="1"/>
        <pt x="1404" y="811" on="1"/>
        <pt x="1404" y="-158" on="1"/>
      </contour>
    </TTGlyph>
    <TTGlyph name="asciicircum" xMin="378" yMin="-262" xMax="1459" yMax="990">
      <contour>
        <pt x="918" y="247" on="1"/>
        <pt x="455" y="-259" on="1"/>
        <pt x="378" y="-137" on="1"/>
        <pt x="773" y="290" on="1"/>
        <pt x="841" y="391" on="1"/>
        <pt x="841" y="990" on="1"/>
        <pt x="984" y="990" on="1"/>
        <pt x="985" y="407" on="1"/>
        <pt x="1066" y="289" on="1"/>
        <pt x="1459" y="-138" on="1"/>
        <pt x="1382" y="-262" on="1"/>
      </contour>
    </TTGlyph>
    <TTGlyph name="asciitilde" xMin="434" yMin="-158" xMax="1404" yMax="811">
      <contour>
        <pt x="434" y="-158" on="1"/>
        <pt x="434" y="811" on="1"/>
        <pt x="1404" y="811" on="1"/>
        <pt x="1404" y="-158" on="1"/>
      </contour>
    </TTGlyph>
    <TTGlyph name="asterisk" xMin="188" yMin="-368" xMax="1620" yMax="1062">
      <contour>
        <pt x="958" y="196" on="1"/>
        <pt x="958" y="-368" on="1"/>
        <pt x="850" y="-368" on="1"/>
        <pt x="850" y="196" on="1"/>
        <pt x="772" y="131" on="1"/>
        <pt x="736" y="99" on="1"/>
        <pt x="534" y="-81" on="1"/>
        <pt x="434" y="-187" on="1"/>
        <pt x="358" y="-110" on="1"/>
        <pt x="748" y="304" on="1"/>
        <pt x="188" y="304" on="1"/>
        <pt x="188" y="413" on="1"/>
        <pt x="741" y="413" on="1"/>
        <pt x="645" y="521" on="1"/>
        <pt x="595" y="568" on="1"/>
        <pt x="458" y="714" on="1"/>
        <pt x="360" y="824" on="1"/>
        <pt x="435" y="901" on="1"/>
        <pt x="850" y="509" on="1"/>
        <pt x="850" y="1062" on="1"/>
        <pt x="958" y="1062" on="1"/>
        <pt x="958" y="511" on="1"/>
        <pt x="1371" y="901" on="1"/>
        <pt x="1448" y="825" on="1"/>
        <pt x="1056" y="439" on="1"/>
        <pt x="1065" y="413" on="1"/>
        <pt x="1620" y="413" on="1"/>
        <pt x="1620" y="304" on="1"/>
        <pt x="1070" y="304" on="1"/>
        <pt x="1068" y="292" on="1"/>
        <pt x="1061" y="280" on="1"/>
        <pt x="1449" y="-110" on="1"/>
        <pt x="1371" y="-186" on="1"/>
      </contour>
    </TTGlyph>
    <TTGlyph name="at" xMin="129" yMin="-275" xMax="1689" yMax="969">
      <contour>
        <pt x="737" y="73" on="1"/>
        <pt x="730" y="199" on="1"/>
        <pt x="573" y="328" on="1"/>
        <pt x="410" y="327" on="1"/>
        <pt x="247" y="211" on="1"/>
        <pt x="247" y="77" on="1"/>
        <pt x="437" y="-183" on="1"/>
        <pt x="542" y="-182" on="1"/>
      </contour>
      <contour>
        <pt x="1574" y="74" on="1"/>
        <pt x="1571" y="217" on="1"/>
        <pt x="1453" y="327" on="1"/>
        <pt x="1262" y="327" on="1"/>
        <pt x="1070" y="210" on="1"/>
        <pt x="1085" y="76" on="1"/>
        <pt x="1272" y="-181" on="1"/>
        <pt x="1378" y="-182" on="1"/>
      </contour>
      <contour>
        <pt x="1151" y="611" on="1"/>
        <pt x="1151" y="790" on="1"/>
        <pt x="1028" y="877" on="1"/>
        <pt x="790" y="877" on="1"/>
        <pt x="667" y="790" on="1"/>
        <pt x="667" y="610" on="1"/>
        <pt x="876" y="353" on="1"/>
        <pt x="967" y="353" on="1"/>
      </contour>
      <contour>
        <pt x="850" y="75" on="1"/>
        <pt x="605" y="-275" on="1"/>
        <pt x="358" y="-275" on="1"/>
        <pt x="132" y="79" on="1"/>
        <pt x="129" y="245" on="1"/>
        <pt x="251" y="334" on="1"/>
        <pt x="372" y="418" on="1"/>
        <pt x="606" y="418" on="1"/>
        <pt x="850" y="242" on="1"/>
      </contour>
      <contour>
        <pt x="1689" y="77" on="1"/>
        <pt x="1440" y="-275" on="1"/>
        <pt x="1211" y="-275" on="1"/>
        <pt x="955" y="77" on="1"/>
        <pt x="955" y="241" on="1"/>
        <pt x="1210" y="418" on="1"/>
        <pt x="1470" y="418" on="1"/>
        <pt x="1600" y="332" on="1"/>
        <pt x="1689" y="241" on="1"/>
      </contour>
      <contour>
        <pt x="1265" y="613" on="1"/>
        <pt x="1046" y="261" on="1"/>
        <pt x="782" y="261" on="1"/>
        <pt x="662" y="430" on="1"/>
        <pt x="549" y="609" on="1"/>
        <pt x="549" y="778" on="1"/>
        <pt x="639" y="889" on="1"/>
        <pt x="758" y="969" on="1"/>
        <pt x="1039" y="969" on="1"/>
        <pt x="1178" y="879" on="1"/>
        <pt x="1269" y="813" on="1"/>
      </contour>
    </TTGlyph>
    <TTGlyph name="atilde" xMin="86" yMin="-219" xMax="1738" yMax="892">
      <contour>
        <pt x="86" y="-127" on="1"/>
        <pt x="585" y="203" on="1"/>
        <pt x="695" y="-52" on="1"/>
        <pt x="1082" y="203" on="1"/>
        <pt x="1190" y="-52" on="1"/>
        <pt x="1577" y="203" on="1"/>
        <pt x="1737" y="-173" on="1"/>
        <pt x="1633" y="-219" on="1"/>
        <pt x="1526" y="37" on="1"/>
        <pt x="1138" y="-219" on="1"/>
        <pt x="1030" y="37" on="1"/>
        <pt x="644" y="-219" on="1"/>
        <pt x="536" y="37" on="1"/>
        <pt x="147" y="-219" on="1"/>
      </contour>
      <contour>
        <pt x="86" y="561" on="1"/>
        <pt x="586" y="892" on="1"/>
        <pt x="696" y="636" on="1"/>
        <pt x="1083" y="892" on="1"/>
        <pt x="1191" y="636" on="1"/>
        <pt x="1578" y="892" on="1"/>
        <pt x="1738" y="515" on="1"/>
        <pt x="1634" y="470" on="1"/>
        <pt x="1527" y="725" on="1"/>
        <pt x="1138" y="470" on="1"/>
        <pt x="1030" y="725" on="1"/>
        <pt x="644" y="470" on="1"/>
        <pt x="536" y="725" on="1"/>
        <pt x="148" y="470" on="1"/>
      </contour>
    </TTGlyph>
    <TTGlyph name="b" xMin="192" yMin="-516" xMax="1626" yMax="1189">
      <contour>
        <pt x="192" y="343" on="1"/>
        <pt x="908" y="1189" on="1"/>
        <pt x="1626" y="343" on="1"/>
        <pt x="908" y="-516" on="1"/>
      </contour>
    </TTGlyph>
    <TTGlyph name="backslash" xMin="432" yMin="-409" xMax="1429" yMax="1109">
      <contour>
        <pt x="1024" y="1109" on="1"/>
        <pt x="1024" y="47" on="1"/>
        <pt x="1429" y="562" on="1"/>
        <pt x="1427" y="229" on="1"/>
        <pt x="928" y="-409" on="1"/>
        <pt x="432" y="226" on="1"/>
        <pt x="432" y="560" on="1"/>
        <pt x="833" y="47" on="1"/>
        <pt x="833" y="1109" on="1"/>
      </contour>
    </TTGlyph>
    <TTGlyph name="bar" xMin="587" yMin="-285" xMax="1258" yMax="973">
      <contour>
        <pt x="587" y="973" on="1"/>
        <pt x="710" y="973" on="0"/>
        <pt x="749" y="962" on="1"/>
        <pt x="786" y="954" on="1"/>
        <pt x="821" y="945" on="1"/>
        <pt x="877" y="921" on="1"/>
        <pt x="991" y="868" on="1"/>
        <pt x="1025" y="849" on="0"/>
        <pt x="1049" y="827" on="1"/>
        <pt x="1075" y="802" on="1"/>
        <pt x="1095" y="783" on="1"/>
        <pt x="1119" y="757" on="0"/>
        <pt x="1135" y="733" on="1"/>
        <pt x="1152" y="711" on="0"/>
        <pt x="1165" y="687" on="1"/>
        <pt x="1194" y="637" on="1"/>
        <pt x="1205" y="611" on="1"/>
        <pt x="1218" y="583" on="1"/>
        <pt x="1238" y="535" on="0"/>
        <pt x="1248" y="484" on="1"/>
        <pt x="1255" y="435" on="1"/>
        <pt x="1258" y="385" on="1"/>
        <pt x="1258" y="265" on="0"/>
        <pt x="1218" y="158" on="1"/>
        <pt x="1192" y="101" on="1"/>
        <pt x="1165" y="51" on="1"/>
        <pt x="1134" y="4" on="1"/>
        <pt x="1097" y="-42" on="1"/>
        <pt x="1043" y="-97" on="1"/>
        <pt x="991" y="-143" on="1"/>
        <pt x="934" y="-182" on="1"/>
        <pt x="877" y="-211" on="1"/>
        <pt x="836" y="-231" on="1"/>
        <pt x="811" y="-239" on="1"/>
        <pt x="741" y="-259" on="1"/>
        <pt x="670" y="-272" on="1"/>
        <pt x="587" y="-285" on="1"/>
      </contour>
    </TTGlyph>
    <TTGlyph name="braceleft" xMin="399" yMin="-236" xMax="1453" yMax="972">
      <contour>
        <pt x="399" y="898" on="1"/>
        <pt x="399" y="972" on="1"/>
        <pt x="765" y="972" on="1"/>
        <pt x="1016" y="972" on="0"/>
        <pt x="1115" y="935" on="1"/>
        <pt x="1261" y="880" on="0"/>
        <pt x="1352" y="731" on="1"/>
        <pt x="1453" y="567" on="0"/>
        <pt x="1453" y="353" on="1"/>
        <pt x="1453" y="208" on="0"/>
        <pt x="1354" y="-42" on="0"/>
        <pt x="1273" y="-118" on="1"/>
        <pt x="1206" y="-183" on="0"/>
        <pt x="1018" y="-236" on="0"/>
        <pt x="923" y="-236" on="1"/>
        <pt x="399" y="-236" on="1"/>
        <pt x="399" y="-162" on="1"/>
        <pt x="442" y="-162" on="1"/>
        <pt x="456" y="-163" on="1"/>
        <pt x="483" y="-163" on="0"/>
        <pt x="517" y="-137" on="0"/>
        <pt x="524" y="-115" on="1"/>
        <pt x="530" y="-99" on="0"/>
        <pt x="530" y="-40" on="1"/>
        <pt x="530" y="768" on="1"/>
        <pt x="530" y="836" on="0"/>
        <pt x="522" y="856" on="1"/>
        <pt x="512" y="883" on="0"/>
        <pt x="489" y="893" on="1"/>
        <pt x="476" y="898" on="0"/>
      </contour>
      <contour>
        <pt x="667" y="-141" on="1"/>
        <pt x="888" y="-141" on="1"/>
        <pt x="921" y="-141" on="0"/>
        <pt x="1075" y="-114" on="0"/>
        <pt x="1108" y="-94" on="1"/>
        <pt x="1156" y="-64" on="0"/>
        <pt x="1247" y="66" on="0"/>
        <pt x="1296" y="248" on="0"/>
        <pt x="1296" y="365" on="1"/>
        <pt x="1296" y="483" on="0"/>
        <pt x="1247" y="654" on="0"/>
        <pt x="1148" y="791" on="0"/>
        <pt x="1027" y="863" on="0"/>
        <pt x="952" y="872" on="1"/>
        <pt x="912" y="877" on="0"/>
        <pt x="817" y="877" on="1"/>
        <pt x="667" y="877" on="1"/>
      </contour>
    </TTGlyph>
    <TTGlyph name="braceright" xMin="485" yMin="-94" xMax="1373" yMax="792">
      <contour>
        <pt x="1211" y="229" on="1"/>
        <pt x="1277" y="229" on="0"/>
        <pt x="1373" y="133" on="0"/>
        <pt x="1373" y="67" on="1"/>
        <pt x="1373" y="3" on="0"/>
        <pt x="1275" y="-94" on="0"/>
        <pt x="1211" y="-94" on="1"/>
        <pt x="1151" y="-94" on="0"/>
        <pt x="1049" y="7" on="0"/>
        <pt x="1049" y="67" on="1"/>
        <pt x="1049" y="134" on="0"/>
        <pt x="1144" y="229" on="0"/>
      </contour>
      <contour>
        <pt x="647" y="229" on="1"/>
        <pt x="713" y="229" on="0"/>
        <pt x="809" y="133" on="0"/>
        <pt x="809" y="67" on="1"/>
        <pt x="809" y="3" on="0"/>
        <pt x="711" y="-94" on="0"/>
        <pt x="647" y="-94" on="1"/>
        <pt x="587" y="-94" on="0"/>
        <pt x="485" y="7" on="0"/>
        <pt x="485" y="67" on="1"/>
        <pt x="485" y="134" on="0"/>
        <pt x="580" y="229" on="0"/>
      </contour>
      <contour>
        <pt x="1211" y="792" on="1"/>
        <pt x="1277" y="792" on="0"/>
        <pt x="1373" y="696" on="0"/>
        <pt x="1373" y="630" on="1"/>
        <pt x="1373" y="578" on="0"/>
        <pt x="1325" y="515" on="1"/>
        <pt x="1276" y="468" on="0"/>
        <pt x="1211" y="468" on="1"/>
        <pt x="1158" y="468" on="0"/>
        <pt x="1096" y="516" on="1"/>
        <pt x="1049" y="565" on="0"/>
        <pt x="1049" y="630" on="1"/>
        <pt x="1049" y="697" on="0"/>
        <pt x="1144" y="792" on="0"/>
      </contour>
      <contour>
        <pt x="647" y="792" on="1"/>
        <pt x="713" y="792" on="0"/>
        <pt x="809" y="696" on="0"/>
        <pt x="809" y="630" on="1"/>
        <pt x="809" y="578" on="0"/>
        <pt x="761" y="515" on="1"/>
        <pt x="712" y="468" on="0"/>
        <pt x="647" y="468" on="1"/>
        <pt x="594" y="468" on="0"/>
        <pt x="532" y="516" on="1"/>
        <pt x="485" y="565" on="0"/>
        <pt x="485" y="630" on="1"/>
        <pt x="485" y="697" on="0"/>
        <pt x="580" y="792" on="0"/>
      </contour>
    </TTGlyph>
    <TTGlyph name="bracketleft" xMin="148" yMin="-144" xMax="1666" yMax="853">
      <contour>
        <pt x="148" y="452" on="1"/>
        <pt x="1210" y="452" on="1"/>
        <pt x="697" y="853" on="1"/>
        <pt x="1031" y="853" on="1"/>
        <pt x="1666" y="357" on="1"/>
        <pt x="1028" y="-141" on="1"/>
        <pt x="695" y="-144" on="1"/>
        <pt x="1210" y="261" on="1"/>
        <pt x="148" y="261" on="1"/>
      </contour>
    </TTGlyph>
    <TTGlyph name="bracketright" xMin="148" yMin="-144" xMax="1666" yMax="853">
      <contour>
        <pt x="1666" y="261" on="1"/>
        <pt x="604" y="261" on="1"/>
        <pt x="1119" y="-144" on="1"/>
        <pt x="786" y="-141" on="1"/>
        <pt x="148" y="357" on="1"/>
        <pt x="783" y="853" on="1"/>
        <pt x="1117" y="853" on="1"/>
        <pt x="604" y="452" on="1"/>
        <pt x="1666" y="452" on="1"/>
      </contour>
    </TTGlyph>
    <TTGlyph name="brokenbar" xMin="269" yMin="-292" xMax="1593" yMax="1018">
      <contour>
        <pt x="1593" y="-292" on="1"/>
        <pt x="269" y="-292" on="1"/>
        <pt x="269" y="1018" on="1"/>
        <pt x="1593" y="1018" on="1"/>
      </contour>
      <contour>
        <pt x="1387" y="898" on="1"/>
        <pt x="407" y="898" on="1"/>
        <pt x="931" y="434" on="1"/>
      </contour>
      <contour>
        <pt x="1438" y="-190" on="1"/>
        <pt x="926" y="303" on="1"/>
        <pt x="424" y="-190" on="1"/>
      </contour>
      <contour>
        <pt x="1506" y="-113" on="1"/>
        <pt x="1506" y="848" on="1"/>
        <pt x="1020" y="379" on="1"/>
      </contour>
      <contour>
        <pt x="373" y="-95" on="1"/>
        <pt x="848" y="371" on="1"/>
        <pt x="373" y="792" on="1"/>
      </contour>
    </TTGlyph>
    <TTGlyph name="bullet" xMin="497" yMin="-480" xMax="1327" yMax="1154">
      <contour>
        <pt x="1327" y="-242" on="1"/>
        <pt x="1268" y="-364" on="0"/>
        <pt x="1214" y="-415" on="1"/>
        <pt x="1146" y="-480" on="0"/>
        <pt x="1056" y="-480" on="1"/>
        <pt x="996" y="-480" on="0"/>
        <pt x="884" y="-354" on="1"/>
        <pt x="804" y="-264" on="0"/>
        <pt x="735" y="-142" on="1"/>
        <pt x="652" y="127" on="1"/>
        <pt x="613" y="386" on="1"/>
        <pt x="637" y="627" on="0"/>
        <pt x="697" y="837" on="1"/>
        <pt x="716" y="907" on="0"/>
        <pt x="749" y="980" on="1"/>
        <pt x="827" y="1154" on="0"/>
        <pt x="922" y="1154" on="1"/>
        <pt x="1021" y="1154" on="0"/>
        <pt x="1094" y="973" on="1"/>
        <pt x="1153" y="828" on="0"/>
        <pt x="1178" y="621" on="1"/>
        <pt x="1195" y="483" on="1"/>
        <pt x="1201" y="434" on="0"/>
        <pt x="1201" y="382" on="1"/>
        <pt x="1184" y="204" on="0"/>
        <pt x="1179" y="181" on="1"/>
        <pt x="1173" y="130" on="0"/>
        <pt x="1152" y="62" on="1"/>
        <pt x="1088" y="-141" on="1"/>
        <pt x="1049" y="-212" on="1"/>
        <pt x="1029" y="-249" on="0"/>
        <pt x="1008" y="-276" on="1"/>
        <pt x="950" y="-352" on="1"/>
        <pt x="928" y="-380" on="0"/>
        <pt x="895" y="-411" on="1"/>
        <pt x="827" y="-473" on="0"/>
        <pt x="772" y="-473" on="1"/>
        <pt x="685" y="-473" on="0"/>
        <pt x="628" y="-436" on="1"/>
        <pt x="564" y="-394" on="0"/>
        <pt x="497" y="-264" on="1"/>
        <pt x="578" y="-217" on="1"/>
        <pt x="629" y="-320" on="0"/>
        <pt x="667" y="-350" on="1"/>
        <pt x="674" y="-356" on="0"/>
        <pt x="697" y="-366" on="1"/>
        <pt x="725" y="-373" on="0"/>
        <pt x="743" y="-373" on="1"/>
        <pt x="771" y="-373" on="1"/>
        <pt x="831" y="-373" on="0"/>
        <pt x="908" y="-290" on="1"/>
        <pt x="937" y="-259" on="0"/>
        <pt x="957" y="-227" on="1"/>
        <pt x="1009" y="-145" on="1"/>
        <pt x="1069" y="42" on="1"/>
        <pt x="1121" y="204" on="0"/>
        <pt x="1121" y="372" on="1"/>
        <pt x="1121" y="389" on="1"/>
        <pt x="1122" y="404" on="1"/>
        <pt x="1126" y="466" on="0"/>
        <pt x="1106" y="626" on="1"/>
        <pt x="1053" y="1048" on="0"/>
        <pt x="922" y="1048" on="1"/>
        <pt x="849" y="1048" on="0"/>
        <pt x="792" y="900" on="1"/>
        <pt x="742" y="770" on="0"/>
        <pt x="722" y="604" on="1"/>
        <pt x="706" y="472" on="1"/>
        <pt x="700" y="420" on="0"/>
        <pt x="700" y="387" on="1"/>
        <pt x="729" y="187" on="0"/>
        <pt x="744" y="120" on="1"/>
        <pt x="762" y="37" on="0"/>
        <pt x="811" y="-137" on="1"/>
        <pt x="847" y="-204" on="0"/>
        <pt x="917" y="-280" on="1"/>
        <pt x="1003" y="-374" on="0"/>
        <pt x="1056" y="-374" on="1"/>
        <pt x="1152" y="-374" on="0"/>
        <pt x="1202" y="-303" on="1"/>
        <pt x="1263" y="-196" on="1"/>
      </contour>
    </TTGlyph>
    <TTGlyph name="c" xMin="425" yMin="-150" xMax="1432" yMax="926">
      <contour>
        <pt x="1292" y="228" on="1"/>
        <pt x="1432" y="229" on="1"/>
        <pt x="1401" y="45" on="0"/>
        <pt x="1258" y="-56" on="1"/>
        <pt x="1129" y="-150" on="0"/>
        <pt x="951" y="-150" on="1"/>
        <pt x="711" y="-150" on="0"/>
        <pt x="572" y="-16" on="1"/>
        <pt x="425" y="124" on="0"/>
        <pt x="425" y="384" on="1"/>
        <pt x="425" y="733" on="0"/>
        <pt x="672" y="860" on="1"/>
        <pt x="799" y="926" on="0"/>
        <pt x="947" y="926" on="1"/>
        <pt x="1117" y="926" on="0"/>
        <pt x="1234" y="851" on="1"/>
        <pt x="1367" y="766" on="0"/>
        <pt x="1404" y="597" on="1"/>
        <pt x="1277" y="596" on="1"/>
        <pt x="1265" y="633" on="0"/>
        <pt x="1229" y="689" on="1"/>
        <pt x="1196" y="724" on="1"/>
        <pt x="1160" y="757" on="1"/>
        <pt x="1144" y="769" on="0"/>
        <pt x="1058" y="801" on="1"/>
        <pt x="993" y="814" on="1"/>
        <pt x="941" y="818" on="1"/>
        <pt x="927" y="819" on="0"/>
        <pt x="914" y="819" on="1"/>
        <pt x="780" y="819" on="0"/>
        <pt x="676" y="712" on="1"/>
        <pt x="560" y="592" on="0"/>
        <pt x="560" y="387" on="1"/>
        <pt x="560" y="191" on="0"/>
        <pt x="649" y="74" on="1"/>
        <pt x="663" y="44" on="0"/>
        <pt x="764" y="-3" on="1"/>
        <pt x="805" y="-17" on="1"/>
        <pt x="852" y="-28" on="1"/>
        <pt x="898" y="-35" on="1"/>
        <pt x="944" y="-38" on="1"/>
        <pt x="989" y="-40" on="0"/>
        <pt x="1070" y="-18" on="1"/>
        <pt x="1148" y="3" on="0"/>
        <pt x="1194" y="38" on="1"/>
        <pt x="1257" y="85" on="0"/>
      </contour>
    </TTGlyph>
    <TTGlyph name="c129" xMin="99" yMin="-487" xMax="1727" yMax="1141">
      <contour>
        <pt x="913" y="341" on="1"/>
        <pt x="914" y="314" on="1"/>
        <pt x="917" y="226" on="0"/>
        <pt x="943" y="172" on="1"/>
        <pt x="974" y="106" on="0"/>
        <pt x="1030" y="52" on="1"/>
        <pt x="1137" y="-52" on="0"/>
        <pt x="1294" y="-52" on="1"/>
        <pt x="1455" y="-52" on="0"/>
        <pt x="1673" y="177" on="0"/>
        <pt x="1673" y="339" on="1"/>
        <pt x="1673" y="646" on="0"/>
        <pt x="1221" y="1088" on="0"/>
        <pt x="913" y="1088" on="1"/>
        <pt x="599" y="1088" on="0"/>
        <pt x="383" y="875" on="1"/>
        <pt x="153" y="649" on="0"/>
        <pt x="153" y="327" on="1"/>
        <pt x="173" y="501" on="0"/>
        <pt x="264" y="600" on="1"/>
        <pt x="364" y="708" on="0"/>
        <pt x="533" y="708" on="1"/>
        <pt x="688" y="708" on="0"/>
        <pt x="796" y="602" on="1"/>
        <pt x="866" y="534" on="0"/>
        <pt x="895" y="453" on="1"/>
        <pt x="911" y="407" on="0"/>
      </contour>
      <contour>
        <pt x="1727" y="327" on="1"/>
        <pt x="1727" y="-13" on="0"/>
        <pt x="1253" y="-487" on="0"/>
        <pt x="913" y="-487" on="1"/>
        <pt x="575" y="-487" on="0"/>
        <pt x="99" y="-11" on="0"/>
        <pt x="99" y="327" on="1"/>
        <pt x="99" y="667" on="0"/>
        <pt x="573" y="1141" on="0"/>
        <pt x="913" y="1141" on="1"/>
        <pt x="1253" y="1141" on="0"/>
        <pt x="1727" y="667" on="0"/>
      </contour>
    </TTGlyph>
    <TTGlyph name="c141" xMin="447" yMin="-274" xMax="1379" yMax="943">
      <contour>
        <pt x="582" y="-274" on="1"/>
        <pt x="447" y="-274" on="1"/>
        <pt x="447" y="943" on="1"/>
        <pt x="582" y="943" on="1"/>
      </contour>
      <contour>
        <pt x="981" y="-274" on="1"/>
        <pt x="845" y="-274" on="1"/>
        <pt x="845" y="943" on="1"/>
        <pt x="981" y="943" on="1"/>
      </contour>
      <contour>
        <pt x="1379" y="-274" on="1"/>
        <pt x="1243" y="-274" on="1"/>
        <pt x="1243" y="943" on="1"/>
        <pt x="1379" y="943" on="1"/>
      </contour>
    </TTGlyph>
    <TTGlyph name="c142" xMin="248" yMin="20" xMax="1680" yMax="603">
      <contour>
        <pt x="1550" y="371" on="1"/>
        <pt x="1106" y="571" on="1"/>
        <pt x="1078" y="526" on="0"/>
        <pt x="1057" y="445" on="1"/>
        <pt x="259" y="445" on="1"/>
        <pt x="384" y="603" on="1"/>
        <pt x="1065" y="603" on="1"/>
        <pt x="1112" y="603" on="0"/>
        <pt x="1124" y="598" on="1"/>
        <pt x="1178" y="576" on="1"/>
        <pt x="1614" y="379" on="1"/>
        <pt x="1680" y="349" on="0"/>
        <pt x="1680" y="310" on="1"/>
        <pt x="1680" y="275" on="0"/>
        <pt x="1617" y="246" on="1"/>
        <pt x="1129" y="26" on="1"/>
        <pt x="1104" y="22" on="1"/>
        <pt x="1065" y="20" on="1"/>
        <pt x="384" y="20" on="1"/>
        <pt x="259" y="178" on="1"/>
        <pt x="1055" y="178" on="1"/>
        <pt x="1072" y="112" on="0"/>
        <pt x="1106" y="52" on="1"/>
        <pt x="1550" y="252" on="1"/>
        <pt x="1532" y="285" on="0"/>
        <pt x="1532" y="313" on="1"/>
        <pt x="1532" y="338" on="0"/>
      </contour>
      <contour>
        <pt x="1050" y="401" on="1"/>
        <pt x="1045" y="311" on="1"/>
        <pt x="1045" y="274" on="1"/>
        <pt x="1049" y="222" on="1"/>
        <pt x="248" y="222" on="1"/>
        <pt x="248" y="401" on="1"/>
      </contour>
    </TTGlyph>
    <TTGlyph name="c143" xMin="108" yMin="-280" xMax="1752" yMax="860">
      <contour>
        <pt x="678" y="24" on="1"/>
        <pt x="678" y="-280" on="1"/>
        <pt x="108" y="290" on="1"/>
        <pt x="678" y="860" on="1"/>
        <pt x="678" y="556" on="1"/>
        <pt x="1182" y="556" on="1"/>
        <pt x="1182" y="860" on="1"/>
        <pt x="1752" y="290" on="1"/>
        <pt x="1182" y="-280" on="1"/>
        <pt x="1182" y="24" on="1"/>
      </contour>
      <contour>
        <pt x="589" y="113" on="1"/>
        <pt x="1270" y="113" on="1"/>
        <pt x="1270" y="-65" on="1"/>
        <pt x="1626" y="290" on="1"/>
        <pt x="1270" y="645" on="1"/>
        <pt x="1270" y="467" on="1"/>
        <pt x="589" y="467" on="1"/>
        <pt x="589" y="645" on="1"/>
        <pt x="234" y="290" on="1"/>
        <pt x="589" y="-65" on="1"/>
      </contour>
    </TTGlyph>
    <TTGlyph name="c144" xMin="253" yMin="-577" xMax="1519" yMax="1249">
      <contour>
        <pt x="1182" y="56" on="1"/>
        <pt x="1519" y="56" on="1"/>
        <pt x="886" y="-577" on="1"/>
        <pt x="253" y="56" on="1"/>
        <pt x="590" y="56" on="1"/>
        <pt x="590" y="616" on="1"/>
        <pt x="253" y="616" on="1"/>
        <pt x="886" y="1249" on="1"/>
        <pt x="1519" y="616" on="1"/>
        <pt x="1182" y="616" on="1"/>
      </contour>
      <contour>
        <pt x="1083" y="-43" on="1"/>
        <pt x="1083" y="714" on="1"/>
        <pt x="1281" y="714" on="1"/>
        <pt x="886" y="1109" on="1"/>
        <pt x="491" y="714" on="1"/>
        <pt x="689" y="714" on="1"/>
        <pt x="689" y="-43" on="1"/>
        <pt x="491" y="-43" on="1"/>
        <pt x="886" y="-437" on="1"/>
        <pt x="1281" y="-43" on="1"/>
      </contour>
    </TTGlyph>
    <TTGlyph name="c157" xMin="519" yMin="-380" xMax="1362" yMax="1091">
      <contour>
        <pt x="519" y="1091" on="1"/>
        <pt x="1362" y="1091" on="1"/>
        <pt x="1362" y="946" on="1"/>
        <pt x="666" y="946" on="1"/>
        <pt x="666" y="486" on="1"/>
        <pt x="1356" y="486" on="1"/>
        <pt x="1356" y="342" on="1"/>
        <pt x="666" y="342" on="1"/>
        <pt x="666" y="-235" on="1"/>
        <pt x="1356" y="-235" on="1"/>
        <pt x="1356" y="-380" on="1"/>
        <pt x="519" y="-380" on="1"/>
      </contour>
    </TTGlyph>
    <TTGlyph name="ccedilla" xMin="323" yMin="-356" xMax="1484" yMax="1133">
      <contour>
        <pt x="653" y="1133" on="1"/>
        <pt x="672" y="1121" on="1"/>
        <pt x="661" y="1006" on="0"/>
        <pt x="661" y="660" on="1"/>
        <pt x="661" y="413" on="1"/>
        <pt x="745" y="482" on="0"/>
        <pt x="817" y="550" on="1"/>
        <pt x="838" y="569" on="0"/>
        <pt x="876" y="587" on="0"/>
        <pt x="961" y="607" on="0"/>
        <pt x="1006" y="607" on="1"/>
        <pt x="1082" y="607" on="0"/>
        <pt x="1225" y="545" on="0"/>
        <pt x="1298" y="460" on="0"/>
        <pt x="1326" y="344" on="0"/>
        <pt x="1326" y="259" on="1"/>
        <pt x="1326" y="83" on="1"/>
        <pt x="1326" y="66" on="0"/>
        <pt x="1331" y="-166" on="1"/>
        <pt x="1334" y="-261" on="0"/>
        <pt x="1371" y="-297" on="0"/>
        <pt x="1476" y="-297" on="1"/>
        <pt x="1484" y="-305" on="1"/>
        <pt x="1484" y="-348" on="1"/>
        <pt x="1476" y="-356" on="1"/>
        <pt x="1349" y="-348" on="0"/>
        <pt x="1304" y="-348" on="1"/>
        <pt x="1281" y="-348" on="0"/>
        <pt x="1158" y="-356" on="1"/>
        <pt x="1146" y="-345" on="1"/>
        <pt x="1159" y="-215" on="0"/>
        <pt x="1159" y="-6" on="1"/>
        <pt x="1159" y="125" on="1"/>
        <pt x="1159" y="243" on="0"/>
        <pt x="1148" y="347" on="0"/>
        <pt x="1092" y="432" on="0"/>
        <pt x="999" y="479" on="0"/>
        <pt x="933" y="479" on="1"/>
        <pt x="865" y="479" on="0"/>
        <pt x="774" y="442" on="0"/>
        <pt x="680" y="354" on="0"/>
        <pt x="661" y="295" on="0"/>
        <pt x="661" y="211" on="1"/>
        <pt x="661" y="33" on="1"/>
        <pt x="661" y="11" on="0"/>
        <pt x="669" y="-228" on="0"/>
        <pt x="678" y="-268" on="0"/>
        <pt x="696" y="-286" on="0"/>
        <pt x="722" y="-291" on="0"/>
        <pt x="817" y="-297" on="1"/>
        <pt x="826" y="-305" on="1"/>
        <pt x="826" y="-347" on="1"/>
        <pt x="818" y="-356" on="1"/>
        <pt x="693" y="-348" on="0"/>
        <pt x="577" y="-348" on="1"/>
        <pt x="462" y="-348" on="0"/>
        <pt x="337" y="-356" on="1"/>
        <pt x="328" y="-347" on="1"/>
        <pt x="328" y="-305" on="1"/>
        <pt x="337" y="-297" on="1"/>
        <pt x="434" y="-291" on="0"/>
        <pt x="459" y="-285" on="0"/>
        <pt x="478" y="-266" on="0"/>
        <pt x="485" y="-227" on="0"/>
        <pt x="494" y="-8" on="0"/>
        <pt x="494" y="48" on="1"/>
        <pt x="494" y="566" on="1"/>
        <pt x="490" y="778" on="1"/>
        <pt x="487" y="889" on="0"/>
        <pt x="480" y="975" on="0"/>
        <pt x="468" y="991" on="0"/>
        <pt x="438" y="999" on="0"/>
        <pt x="332" y="999" on="1"/>
        <pt x="323" y="1008" on="1"/>
        <pt x="323" y="1050" on="1"/>
        <pt x="331" y="1059" on="1"/>
        <pt x="522" y="1081" on="0"/>
      </contour>
    </TTGlyph>
    <TTGlyph name="cedilla" xMin="264" yMin="-248" xMax="1578" yMax="1064">
      <contour>
        <pt x="1578" y="346" on="1"/>
        <pt x="1578" y="219" on="0"/>
        <pt x="1412" y="45" on="0"/>
        <pt x="1286" y="45" on="1"/>
        <pt x="1137" y="45" on="0"/>
        <pt x="1024" y="162" on="1"/>
        <pt x="997" y="191" on="0"/>
        <pt x="932" y="298" on="1"/>
        <pt x="941" y="-10" on="0"/>
        <pt x="1128" y="-134" on="1"/>
        <pt x="1194" y="-178" on="0"/>
        <pt x="1366" y="-210" on="1"/>
        <pt x="1375" y="-248" on="1"/>
        <pt x="471" y="-248" on="1"/>
        <pt x="480" y="-210" on="1"/>
        <pt x="659" y="-173" on="0"/>
        <pt x="714" y="-138" on="1"/>
        <pt x="805" y="-79" on="0"/>
        <pt x="910" y="134" on="0"/>
        <pt x="910" y="248" on="1"/>
        <pt x="910" y="265" on="0"/>
        <pt x="908" y="298" on="1"/>
        <pt x="783" y="42" on="0"/>
        <pt x="561" y="42" on="1"/>
        <pt x="434" y="42" on="0"/>
        <pt x="264" y="215" on="0"/>
        <pt x="264" y="341" on="1"/>
        <pt x="264" y="455" on="0"/>
        <pt x="410" y="634" on="0"/>
        <pt x="522" y="634" on="1"/>
        <pt x="585" y="634" on="0"/>
        <pt x="696" y="579" on="1"/>
        <pt x="624" y="699" on="0"/>
        <pt x="624" y="774" on="1"/>
        <pt x="624" y="898" on="0"/>
        <pt x="794" y="1064" on="0"/>
        <pt x="919" y="1064" on="1"/>
        <pt x="1043" y="1064" on="0"/>
        <pt x="1216" y="905" on="0"/>
        <pt x="1216" y="780" on="1"/>
        <pt x="1216" y="684" on="0"/>
        <pt x="1141" y="579" on="1"/>
        <pt x="1227" y="621" on="0"/>
        <pt x="1251" y="627" on="1"/>
        <pt x="1283" y="636" on="0"/>
        <pt x="1314" y="636" on="1"/>
        <pt x="1430" y="636" on="0"/>
        <pt x="1578" y="464" on="0"/>
      </contour>
    </TTGlyph>
    <TTGlyph name="cent" xMin="260" yMin="-343" xMax="1558" yMax="998">
      <contour>
        <pt x="833" y="832" on="1"/>
        <pt x="884" y="876" on="0"/>
        <pt x="938" y="872" on="1"/>
        <pt x="974" y="869" on="1"/>
        <pt x="983" y="868" on="0"/>
        <pt x="989" y="865" on="1"/>
        <pt x="1005" y="858" on="1"/>
        <pt x="1029" y="847" on="0"/>
        <pt x="1059" y="811" on="1"/>
        <pt x="1100" y="761" on="0"/>
        <pt x="1100" y="700" on="1"/>
        <pt x="1100" y="644" on="0"/>
        <pt x="1043" y="575" on="1"/>
        <pt x="997" y="534" on="0"/>
        <pt x="938" y="534" on="1"/>
        <pt x="919" y="534" on="1"/>
        <pt x="899" y="537" on="1"/>
        <pt x="893" y="537" on="0"/>
        <pt x="888" y="541" on="1"/>
        <pt x="872" y="548" on="1"/>
        <pt x="843" y="561" on="0"/>
        <pt x="815" y="593" on="1"/>
        <pt x="797" y="619" on="1"/>
        <pt x="783" y="646" on="1"/>
        <pt x="774" y="672" on="0"/>
        <pt x="774" y="704" on="1"/>
        <pt x="777" y="737" on="1"/>
        <pt x="781" y="752" on="1"/>
        <pt x="788" y="771" on="1"/>
        <pt x="798" y="792" on="0"/>
      </contour>
      <contour>
        <pt x="842" y="-343" on="1"/>
        <pt x="260" y="998" on="1"/>
        <pt x="397" y="997" on="1"/>
        <pt x="917" y="-202" on="1"/>
        <pt x="1421" y="997" on="1"/>
        <pt x="1558" y="998" on="1"/>
        <pt x="980" y="-343" on="1"/>
      </contour>
    </TTGlyph>
    <TTGlyph name="circumflex" xMin="481" yMin="-425" xMax="1299" yMax="1048">
      <contour>
        <pt x="934" y="382" on="1"/>
        <pt x="934" y="-189" on="1"/>
        <pt x="934" y="-195" on="0"/>
        <pt x="932" y="-214" on="1"/>
        <pt x="931" y="-232" on="0"/>
        <pt x="931" y="-242" on="1"/>
        <pt x="931" y="-292" on="0"/>
        <pt x="948" y="-312" on="1"/>
        <pt x="955" y="-319" on="0"/>
        <pt x="977" y="-329" on="0"/>
        <pt x="1011" y="-338" on="0"/>
        <pt x="1019" y="-341" on="1"/>
        <pt x="1079" y="-355" on="0"/>
        <pt x="1079" y="-381" on="1"/>
        <pt x="1079" y="-408" on="0"/>
        <pt x="1028" y="-425" on="0"/>
        <pt x="981" y="-425" on="1"/>
        <pt x="642" y="-425" on="1"/>
        <pt x="598" y="-425" on="0"/>
        <pt x="565" y="-409" on="0"/>
        <pt x="565" y="-381" on="1"/>
        <pt x="565" y="-355" on="0"/>
        <pt x="615" y="-343" on="1"/>
        <pt x="660" y="-329" on="1"/>
        <pt x="710" y="-312" on="0"/>
        <pt x="710" y="-229" on="1"/>
        <pt x="710" y="-189" on="1"/>
        <pt x="710" y="382" on="1"/>
        <pt x="639" y="382" on="1"/>
        <pt x="550" y="382" on="0"/>
        <pt x="481" y="400" on="0"/>
        <pt x="481" y="429" on="1"/>
        <pt x="481" y="475" on="0"/>
        <pt x="570" y="475" on="1"/>
        <pt x="587" y="475" on="0"/>
        <pt x="624" y="473" on="0"/>
        <pt x="633" y="473" on="1"/>
        <pt x="710" y="473" on="1"/>
        <pt x="710" y="475" on="0"/>
        <pt x="713" y="551" on="1"/>
        <pt x="715" y="626" on="0"/>
        <pt x="721" y="707" on="0"/>
        <pt x="741" y="795" on="0"/>
        <pt x="758" y="834" on="1"/>
        <pt x="801" y="924" on="0"/>
        <pt x="985" y="1048" on="0"/>
        <pt x="1118" y="1048" on="1"/>
        <pt x="1189" y="1048" on="0"/>
        <pt x="1299" y="993" on="0"/>
        <pt x="1299" y="950" on="1"/>
        <pt x="1299" y="921" on="0"/>
        <pt x="1236" y="877" on="0"/>
        <pt x="1192" y="877" on="1"/>
        <pt x="1177" y="877" on="0"/>
        <pt x="1141" y="893" on="1"/>
        <pt x="1083" y="921" on="0"/>
        <pt x="1052" y="921" on="1"/>
        <pt x="934" y="921" on="0"/>
        <pt x="934" y="727" on="1"/>
        <pt x="934" y="687" on="1"/>
        <pt x="934" y="473" on="1"/>
        <pt x="1109" y="473" on="1"/>
        <pt x="1184" y="473" on="0"/>
        <pt x="1237" y="457" on="0"/>
        <pt x="1237" y="426" on="1"/>
        <pt x="1237" y="397" on="0"/>
        <pt x="1172" y="382" on="0"/>
        <pt x="1114" y="382" on="1"/>
      </contour>
    </TTGlyph>
    <TTGlyph name="colon" xMin="760" yMin="-146" xMax="1078" yMax="819">
      <contour>
        <pt x="1078" y="185" on="1"/>
        <pt x="1078" y="-146" on="1"/>
        <pt x="760" y="-146" on="1"/>
        <pt x="760" y="185" on="1"/>
      </contour>
      <contour>
        <pt x="1078" y="819" on="1"/>
        <pt x="1078" y="488" on="1"/>
        <pt x="760" y="488" on="1"/>
        <pt x="760" y="819" on="1"/>
      </contour>
    </TTGlyph>
    <TTGlyph name="comma" xMin="307" yMin="-375" xMax="1461" yMax="1039">
      <contour>
        <pt x="1461" y="374" on="1"/>
        <pt x="1330" y="374" on="1"/>
        <pt x="936" y="842" on="1"/>
        <pt x="936" y="-375" on="1"/>
        <pt x="818" y="-375" on="1"/>
        <pt x="818" y="841" on="1"/>
        <pt x="434" y="375" on="1"/>
        <pt x="307" y="375" on="1"/>
        <pt x="307" y="445" on="1"/>
        <pt x="815" y="1039" on="1"/>
        <pt x="949" y="1039" on="1"/>
        <pt x="1460" y="442" on="1"/>
      </contour>
    </TTGlyph>
    <TTGlyph name="copyright" xMin="266" yMin="-318" xMax="1572" yMax="992">
      <contour>
        <pt x="1572" y="-318" on="1"/>
        <pt x="1454" y="-318" on="1"/>
        <pt x="736" y="394" on="1"/>
        <pt x="360" y="394" on="1"/>
        <pt x="266" y="515" on="1"/>
        <pt x="266" y="870" on="1"/>
        <pt x="388" y="992" on="1"/>
        <pt x="736" y="992" on="1"/>
        <pt x="856" y="868" on="1"/>
        <pt x="856" y="441" on="1"/>
        <pt x="1571" y="-268" on="1"/>
      </contour>
    </TTGlyph>
    <TTGlyph name="currency" xMin="479" yMin="-289" xMax="1194" yMax="990">
      <contour>
        <pt x="1084" y="264" on="0"/>
        <pt x="1125" y="200" on="1"/>
        <pt x="1146" y="164" on="0"/>
        <pt x="1168" y="104" on="0"/>
        <pt x="1175" y="56" on="1"/>
        <pt x="1194" y="-72" on="0"/>
        <pt x="1126" y="-166" on="1"/>
        <pt x="1078" y="-233" on="0"/>
        <pt x="960" y="-289" on="0"/>
        <pt x="883" y="-289" on="1"/>
        <pt x="826" y="-289" on="0"/>
        <pt x="761" y="-269" on="1"/>
        <pt x="703" y="-243" on="1"/>
        <pt x="647" y="-206" on="1"/>
        <pt x="616" y="-181" on="1"/>
        <pt x="588" y="-151" on="1"/>
        <pt x="561" y="-119" on="0"/>
        <pt x="541" y="-85" on="1"/>
        <pt x="509" y="-28" on="1"/>
        <pt x="498" y="5" on="1"/>
        <pt x="495" y="24" on="1"/>
        <pt x="489" y="55" on="1"/>
        <pt x="479" y="121" on="0"/>
        <pt x="489" y="178" on="1"/>
        <pt x="509" y="234" on="1"/>
        <pt x="537" y="281" on="1"/>
        <pt x="575" y="346" on="0"/>
        <pt x="640" y="373" on="1"/>
        <pt x="678" y="390" on="1"/>
        <pt x="694" y="396" on="0"/>
        <pt x="709" y="398" on="1"/>
        <pt x="720" y="405" on="0"/>
        <pt x="740" y="405" on="1"/>
        <pt x="754" y="405" on="1"/>
        <pt x="779" y="405" on="1"/>
        <pt x="839" y="400" on="1"/>
        <pt x="898" y="382" on="1"/>
        <pt x="959" y="356" on="1"/>
        <pt x="1013" y="323" on="1"/>
      </contour>
      <contour>
        <pt x="1176" y="-47" on="1"/>
        <pt x="1038" y="-47" on="1"/>
        <pt x="1038" y="990" on="1"/>
        <pt x="1176" y="990" on="1"/>
      </contour>
    </TTGlyph>
    <TTGlyph name="d" xMin="555" yMin="-297" xMax="1382" yMax="1036">
      <contour>
        <pt x="971" y="523" on="1"/>
        <pt x="933" y="559" on="0"/>
        <pt x="890" y="591" on="1"/>
        <pt x="751" y="695" on="0"/>
        <pt x="669" y="808" on="0"/>
        <pt x="669" y="856" on="1"/>
        <pt x="669" y="928" on="0"/>
        <pt x="811" y="1036" on="0"/>
        <pt x="966" y="1036" on="1"/>
        <pt x="1144" y="1036" on="0"/>
        <pt x="1245" y="970" on="1"/>
        <pt x="1307" y="929" on="0"/>
        <pt x="1307" y="872" on="1"/>
        <pt x="1307" y="841" on="0"/>
        <pt x="1261" y="797" on="0"/>
        <pt x="1226" y="797" on="1"/>
        <pt x="1205" y="797" on="0"/>
        <pt x="1189" y="806" on="1"/>
        <pt x="1165" y="819" on="0"/>
        <pt x="1049" y="942" on="0"/>
        <pt x="1015" y="959" on="1"/>
        <pt x="970" y="980" on="0"/>
        <pt x="910" y="980" on="1"/>
        <pt x="826" y="980" on="0"/>
        <pt x="736" y="909" on="0"/>
        <pt x="736" y="867" on="1"/>
        <pt x="736" y="827" on="0"/>
        <pt x="836" y="727" on="0"/>
        <pt x="1008" y="627" on="1"/>
        <pt x="1227" y="501" on="0"/>
        <pt x="1304" y="393" on="1"/>
        <pt x="1382" y="285" on="0"/>
        <pt x="1382" y="156" on="1"/>
        <pt x="1382" y="-31" on="0"/>
        <pt x="1118" y="-297" on="0"/>
        <pt x="938" y="-297" on="1"/>
        <pt x="775" y="-297" on="0"/>
        <pt x="555" y="-76" on="0"/>
        <pt x="555" y="85" on="1"/>
        <pt x="555" y="181" on="0"/>
        <pt x="644" y="365" on="0"/>
        <pt x="822" y="485" on="0"/>
      </contour>
      <contour>
        <pt x="1019" y="457" on="1"/>
        <pt x="863" y="434" on="0"/>
        <pt x="706" y="259" on="0"/>
        <pt x="706" y="95" on="1"/>
        <pt x="706" y="-69" on="0"/>
        <pt x="862" y="-241" on="0"/>
        <pt x="964" y="-241" on="1"/>
        <pt x="1087" y="-241" on="0"/>
        <pt x="1226" y="-61" on="0"/>
        <pt x="1226" y="77" on="1"/>
        <pt x="1226" y="151" on="0"/>
        <pt x="1179" y="282" on="0"/>
        <pt x="1145" y="325" on="1"/>
        <pt x="1119" y="357" on="0"/>
      </contour>
    </TTGlyph>
    <TTGlyph name="dagger" xMin="219" yMin="-319" xMax="1609" yMax="1013">
      <contour>
        <pt x="219" y="500" on="1"/>
        <pt x="751" y="500" on="1"/>
        <pt x="915" y="1013" on="1"/>
        <pt x="1079" y="500" on="1"/>
        <pt x="1609" y="500" on="1"/>
        <pt x="1183" y="185" on="1"/>
        <pt x="1347" y="-317" on="1"/>
        <pt x="915" y="-7" on="1"/>
        <pt x="485" y="-319" on="1"/>
        <pt x="647" y="184" on="1"/>
      </contour>
    </TTGlyph>
    <TTGlyph name="daggerdbl" xMin="187" yMin="-383" xMax="1651" yMax="1077">
      <contour>
        <pt x="580" y="469" on="1"/>
        <pt x="285" y="721" on="1"/>
        <pt x="655" y="610" on="1"/>
        <pt x="553" y="991" on="1"/>
        <pt x="818" y="721" on="1"/>
        <pt x="919" y="1077" on="1"/>
        <pt x="1026" y="721" on="1"/>
        <pt x="1285" y="991" on="1"/>
        <pt x="1175" y="610" on="1"/>
        <pt x="1553" y="721" on="1"/>
        <pt x="1240" y="469" on="1"/>
        <pt x="1651" y="355" on="1"/>
        <pt x="1240" y="269" on="1"/>
        <pt x="1553" y="-10" on="1"/>
        <pt x="1175" y="135" on="1"/>
        <pt x="1285" y="-275" on="1"/>
        <pt x="1051" y="46" on="1"/>
        <pt x="919" y="-383" on="1"/>
        <pt x="818" y="46" on="1"/>
        <pt x="553" y="-280" on="1"/>
        <pt x="655" y="135" on="1"/>
        <pt x="285" y="-10" on="1"/>
        <pt x="580" y="269" on="1"/>
        <pt x="187" y="355" on="1"/>
      </contour>
    </TTGlyph>
    <TTGlyph name="degree" xMin="366" yMin="-227" xMax="1492" yMax="874">
      <contour>
        <pt x="366" y="874" on="1"/>
        <pt x="444" y="874" on="1"/>
        <pt x="882" y="435" on="1"/>
        <pt x="979" y="435" on="1"/>
        <pt x="1407" y="862" on="1"/>
        <pt x="1492" y="864" on="1"/>
        <pt x="1492" y="801" on="1"/>
        <pt x="1035" y="339" on="1"/>
        <pt x="1474" y="-103" on="1"/>
        <pt x="1474" y="-227" on="1"/>
        <pt x="385" y="-227" on="1"/>
        <pt x="385" y="-103" on="1"/>
        <pt x="823" y="339" on="1"/>
        <pt x="366" y="801" on="1"/>
      </contour>
    </TTGlyph>
    <TTGlyph name="dieresis" xMin="239" yMin="-296" xMax="1549" yMax="1000">
      <contour>
        <pt x="1078" y="528" on="1"/>
        <pt x="1431" y="528" on="1"/>
        <pt x="1431" y="882" on="1"/>
        <pt x="1078" y="882" on="1"/>
      </contour>
      <contour>
        <pt x="1453" y="410" on="1"/>
        <pt x="1078" y="410" on="1"/>
        <pt x="287" y="-296" on="1"/>
        <pt x="239" y="-296" on="1"/>
        <pt x="239" y="-199" on="1"/>
        <pt x="960" y="465" on="1"/>
        <pt x="960" y="882" on="1"/>
        <pt x="1080" y="1000" on="1"/>
        <pt x="1427" y="1000" on="1"/>
        <pt x="1549" y="883" on="1"/>
        <pt x="1549" y="530" on="1"/>
      </contour>
    </TTGlyph>
    <TTGlyph name="divide" xMin="210" yMin="-356" xMax="1640" yMax="1074">
      <contour>
        <pt x="561" y="829" on="1"/>
        <pt x="603" y="829" on="0"/>
        <pt x="664" y="768" on="0"/>
        <pt x="664" y="726" on="1"/>
        <pt x="664" y="683" on="0"/>
        <pt x="604" y="623" on="0"/>
        <pt x="561" y="623" on="1"/>
        <pt x="528" y="623" on="0"/>
        <pt x="489" y="653" on="1"/>
        <pt x="458" y="683" on="0"/>
        <pt x="458" y="726" on="1"/>
        <pt x="458" y="767" on="0"/>
        <pt x="521" y="829" on="0"/>
      </contour>
      <contour>
        <pt x="1289" y="1074" on="1"/>
        <pt x="1331" y="1074" on="0"/>
        <pt x="1392" y="1013" on="0"/>
        <pt x="1392" y="971" on="1"/>
        <pt x="1392" y="928" on="0"/>
        <pt x="1332" y="868" on="0"/>
        <pt x="1289" y="868" on="1"/>
        <pt x="1256" y="868" on="0"/>
        <pt x="1217" y="898" on="1"/>
        <pt x="1186" y="928" on="0"/>
        <pt x="1186" y="971" on="1"/>
        <pt x="1186" y="1012" on="0"/>
        <pt x="1249" y="1074" on="0"/>
      </contour>
      <contour>
        <pt x="1049" y="829" on="1"/>
        <pt x="1091" y="829" on="0"/>
        <pt x="1152" y="768" on="0"/>
        <pt x="1152" y="726" on="1"/>
        <pt x="1152" y="683" on="0"/>
        <pt x="1092" y="623" on="0"/>
        <pt x="1049" y="623" on="1"/>
        <pt x="1016" y="623" on="0"/>
        <pt x="977" y="653" on="1"/>
        <pt x="946" y="683" on="0"/>
        <pt x="946" y="726" on="1"/>
        <pt x="946" y="767" on="0"/>
        <pt x="1009" y="829" on="0"/>
      </contour>
      <contour>
        <pt x="313" y="1074" on="1"/>
        <pt x="354" y="1074" on="0"/>
        <pt x="416" y="1013" on="0"/>
        <pt x="416" y="971" on="1"/>
        <pt x="416" y="928" on="0"/>
        <pt x="356" y="868" on="0"/>
        <pt x="313" y="868" on="1"/>
        <pt x="280" y="868" on="0"/>
        <pt x="241" y="898" on="1"/>
        <pt x="210" y="928" on="0"/>
        <pt x="210" y="971" on="1"/>
        <pt x="210" y="1012" on="0"/>
        <pt x="272" y="1074" on="0"/>
      </contour>
      <contour>
        <pt x="801" y="1074" on="1"/>
        <pt x="842" y="1074" on="0"/>
        <pt x="904" y="1013" on="0"/>
        <pt x="904" y="971" on="1"/>
        <pt x="904" y="928" on="0"/>
        <pt x="844" y="868" on="0"/>
        <pt x="801" y="868" on="1"/>
        <pt x="768" y="868" on="0"/>
        <pt x="729" y="898" on="1"/>
        <pt x="698" y="928" on="0"/>
        <pt x="698" y="971" on="1"/>
        <pt x="698" y="1012" on="0"/>
        <pt x="760" y="1074" on="0"/>
      </contour>
      <contour>
        <pt x="313" y="584" on="1"/>
        <pt x="354" y="584" on="0"/>
        <pt x="416" y="523" on="0"/>
        <pt x="416" y="481" on="1"/>
        <pt x="416" y="439" on="0"/>
        <pt x="356" y="379" on="0"/>
        <pt x="313" y="379" on="1"/>
        <pt x="280" y="379" on="0"/>
        <pt x="241" y="408" on="1"/>
        <pt x="210" y="439" on="0"/>
        <pt x="210" y="481" on="1"/>
        <pt x="210" y="522" on="0"/>
        <pt x="272" y="584" on="0"/>
      </contour>
      <contour>
        <pt x="801" y="584" on="1"/>
        <pt x="842" y="584" on="0"/>
        <pt x="904" y="523" on="0"/>
        <pt x="904" y="481" on="1"/>
        <pt x="904" y="439" on="0"/>
        <pt x="844" y="379" on="0"/>
        <pt x="801" y="379" on="1"/>
        <pt x="768" y="379" on="0"/>
        <pt x="729" y="408" on="1"/>
        <pt x="698" y="439" on="0"/>
        <pt x="698" y="481" on="1"/>
        <pt x="698" y="522" on="0"/>
        <pt x="760" y="584" on="0"/>
      </contour>
      <contour>
        <pt x="1289" y="584" on="1"/>
        <pt x="1331" y="584" on="0"/>
        <pt x="1392" y="523" on="0"/>
        <pt x="1392" y="481" on="1"/>
        <pt x="1392" y="439" on="0"/>
        <pt x="1332" y="379" on="0"/>
        <pt x="1289" y="379" on="1"/>
        <pt x="1256" y="379" on="0"/>
        <pt x="1217" y="408" on="1"/>
        <pt x="1186" y="439" on="0"/>
        <pt x="1186" y="481" on="1"/>
        <pt x="1186" y="522" on="0"/>
        <pt x="1249" y="584" on="0"/>
      </contour>
      <contour>
        <pt x="561" y="339" on="1"/>
        <pt x="603" y="339" on="0"/>
        <pt x="664" y="278" on="0"/>
        <pt x="664" y="237" on="1"/>
        <pt x="664" y="195" on="0"/>
        <pt x="603" y="134" on="0"/>
        <pt x="561" y="134" on="1"/>
        <pt x="518" y="134" on="0"/>
        <pt x="458" y="194" on="0"/>
        <pt x="458" y="237" on="1"/>
        <pt x="458" y="277" on="0"/>
        <pt x="521" y="339" on="0"/>
      </contour>
      <contour>
        <pt x="1049" y="339" on="1"/>
        <pt x="1091" y="339" on="0"/>
        <pt x="1152" y="278" on="0"/>
        <pt x="1152" y="237" on="1"/>
        <pt x="1152" y="195" on="0"/>
        <pt x="1091" y="134" on="0"/>
        <pt x="1049" y="134" on="1"/>
        <pt x="1006" y="134" on="0"/>
        <pt x="946" y="194" on="0"/>
        <pt x="946" y="237" on="1"/>
        <pt x="946" y="277" on="0"/>
        <pt x="1009" y="339" on="0"/>
      </contour>
      <contour>
        <pt x="1537" y="835" on="1"/>
        <pt x="1579" y="835" on="0"/>
        <pt x="1640" y="774" on="0"/>
        <pt x="1640" y="732" on="1"/>
        <pt x="1640" y="690" on="0"/>
        <pt x="1580" y="630" on="0"/>
        <pt x="1537" y="630" on="1"/>
        <pt x="1504" y="630" on="0"/>
        <pt x="1465" y="659" on="1"/>
        <pt x="1434" y="690" on="0"/>
        <pt x="1434" y="732" on="1"/>
        <pt x="1434" y="773" on="0"/>
        <pt x="1497" y="835" on="0"/>
      </contour>
      <contour>
        <pt x="1537" y="347" on="1"/>
        <pt x="1579" y="347" on="0"/>
        <pt x="1640" y="286" on="0"/>
        <pt x="1640" y="244" on="1"/>
        <pt x="1640" y="201" on="0"/>
        <pt x="1580" y="141" on="0"/>
        <pt x="1537" y="141" on="1"/>
        <pt x="1504" y="141" on="0"/>
        <pt x="1465" y="170" on="1"/>
        <pt x="1434" y="201" on="0"/>
        <pt x="1434" y="244" on="1"/>
        <pt x="1434" y="284" on="0"/>
        <pt x="1497" y="347" on="0"/>
      </contour>
      <contour>
        <pt x="561" y="-150" on="1"/>
        <pt x="603" y="-150" on="0"/>
        <pt x="664" y="-211" on="0"/>
        <pt x="664" y="-253" on="1"/>
        <pt x="664" y="-296" on="0"/>
        <pt x="604" y="-356" on="0"/>
        <pt x="561" y="-356" on="1"/>
        <pt x="528" y="-356" on="0"/>
        <pt x="489" y="-326" on="1"/>
        <pt x="458" y="-296" on="0"/>
        <pt x="458" y="-253" on="1"/>
        <pt x="458" y="-212" on="0"/>
        <pt x="521" y="-150" on="0"/>
      </contour>
      <contour>
        <pt x="1289" y="95" on="1"/>
        <pt x="1331" y="95" on="0"/>
        <pt x="1392" y="33" on="0"/>
        <pt x="1392" y="-8" on="1"/>
        <pt x="1392" y="-51" on="0"/>
        <pt x="1332" y="-111" on="0"/>
        <pt x="1289" y="-111" on="1"/>
        <pt x="1256" y="-111" on="0"/>
        <pt x="1217" y="-81" on="1"/>
        <pt x="1186" y="-51" on="0"/>
        <pt x="1186" y="-8" on="1"/>
        <pt x="1186" y="32" on="0"/>
        <pt x="1249" y="95" on="0"/>
      </contour>
      <contour>
        <pt x="1049" y="-150" on="1"/>
        <pt x="1091" y="-150" on="0"/>
        <pt x="1152" y="-211" on="0"/>
        <pt x="1152" y="-253" on="1"/>
        <pt x="1152" y="-296" on="0"/>
        <pt x="1092" y="-356" on="0"/>
        <pt x="1049" y="-356" on="1"/>
        <pt x="1016" y="-356" on="0"/>
        <pt x="977" y="-326" on="1"/>
        <pt x="946" y="-296" on="0"/>
        <pt x="946" y="-253" on="1"/>
        <pt x="946" y="-212" on="0"/>
        <pt x="1009" y="-150" on="0"/>
      </contour>
      <contour>
        <pt x="313" y="95" on="1"/>
        <pt x="354" y="95" on="0"/>
        <pt x="416" y="33" on="0"/>
        <pt x="416" y="-8" on="1"/>
        <pt x="416" y="-51" on="0"/>
        <pt x="356" y="-111" on="0"/>
        <pt x="313" y="-111" on="1"/>
        <pt x="280" y="-111" on="0"/>
        <pt x="241" y="-81" on="1"/>
        <pt x="210" y="-51" on="0"/>
        <pt x="210" y="-8" on="1"/>
        <pt x="210" y="32" on="0"/>
        <pt x="272" y="95" on="0"/>
      </contour>
      <contour>
        <pt x="801" y="95" on="1"/>
        <pt x="842" y="95" on="0"/>
        <pt x="904" y="33" on="0"/>
        <pt x="904" y="-8" on="1"/>
        <pt x="904" y="-51" on="0"/>
        <pt x="844" y="-111" on="0"/>
        <pt x="801" y="-111" on="1"/>
        <pt x="768" y="-111" on="0"/>
        <pt x="729" y="-81" on="1"/>
        <pt x="698" y="-51" on="0"/>
        <pt x="698" y="-8" on="1"/>
        <pt x="698" y="32" on="0"/>
        <pt x="760" y="95" on="0"/>
      </contour>
      <contour>
        <pt x="1537" y="-144" on="1"/>
        <pt x="1579" y="-144" on="0"/>
        <pt x="1640" y="-205" on="0"/>
        <pt x="1640" y="-247" on="1"/>
        <pt x="1640" y="-289" on="0"/>
        <pt x="1580" y="-349" on="0"/>
        <pt x="1537" y="-349" on="1"/>
        <pt x="1504" y="-349" on="0"/>
        <pt x="1465" y="-320" on="1"/>
        <pt x="1434" y="-289" on="0"/>
        <pt x="1434" y="-247" on="1"/>
        <pt x="1434" y="-206" on="0"/>
        <pt x="1497" y="-144" on="0"/>
      </contour>
    </TTGlyph>
    <TTGlyph name="dollar" xMin="436" yMin="-475" xMax="1392" yMax="1149">
      <contour>
        <pt x="986" y="-69" on="1"/>
        <pt x="1261" y="-69" on="1"/>
        <pt x="1261" y="192" on="1"/>
        <pt x="986" y="192" on="1"/>
      </contour>
      <contour>
        <pt x="567" y="481" on="1"/>
        <pt x="842" y="481" on="1"/>
        <pt x="842" y="743" on="1"/>
        <pt x="567" y="743" on="1"/>
      </contour>
      <contour>
        <pt x="436" y="-67" on="1"/>
        <pt x="436" y="195" on="1"/>
        <pt x="554" y="195" on="1"/>
        <pt x="554" y="-5" on="1"/>
        <pt x="625" y="-69" on="1"/>
        <pt x="855" y="-69" on="1"/>
        <pt x="855" y="336" on="1"/>
        <pt x="571" y="336" on="1"/>
        <pt x="436" y="476" on="1"/>
        <pt x="436" y="747" on="1"/>
        <pt x="571" y="887" on="1"/>
        <pt x="855" y="887" on="1"/>
        <pt x="855" y="1149" on="1"/>
        <pt x="973" y="1149" on="1"/>
        <pt x="973" y="887" on="1"/>
        <pt x="1254" y="887" on="1"/>
        <pt x="1392" y="744" on="1"/>
        <pt x="1392" y="478" on="1"/>
        <pt x="1274" y="478" on="1"/>
        <pt x="1274" y="682" on="1"/>
        <pt x="1202" y="756" on="1"/>
        <pt x="973" y="756" on="1"/>
        <pt x="973" y="336" on="1"/>
        <pt x="1254" y="336" on="1"/>
        <pt x="1392" y="200" on="1"/>
        <pt x="1392" y="-66" on="1"/>
        <pt x="1254" y="-200" on="1"/>
        <pt x="973" y="-200" on="1"/>
        <pt x="973" y="-475" on="1"/>
        <pt x="855" y="-475" on="1"/>
        <pt x="855" y="-200" on="1"/>
        <pt x="571" y="-200" on="1"/>
      </contour>
    </TTGlyph>
    <TTGlyph name="e" xMin="399" yMin="-173" xMax="1377" yMax="759">
      <contour>
        <pt x="1377" y="210" on="1"/>
        <pt x="1358" y="150" on="0"/>
        <pt x="1336" y="104" on="1"/>
        <pt x="1262" y="-53" on="0"/>
        <pt x="1094" y="-138" on="1"/>
        <pt x="1043" y="-157" on="0"/>
        <pt x="999" y="-162" on="1"/>
        <pt x="951" y="-168" on="1"/>
        <pt x="898" y="-170" on="1"/>
        <pt x="827" y="-173" on="0"/>
        <pt x="802" y="-162" on="1"/>
        <pt x="701" y="-138" on="1"/>
        <pt x="546" y="-101" on="0"/>
        <pt x="458" y="85" on="1"/>
        <pt x="399" y="209" on="0"/>
        <pt x="404" y="320" on="1"/>
        <pt x="407" y="402" on="1"/>
        <pt x="418" y="465" on="1"/>
        <pt x="463" y="600" on="0"/>
        <pt x="616" y="684" on="1"/>
        <pt x="658" y="707" on="0"/>
        <pt x="754" y="739" on="1"/>
        <pt x="822" y="754" on="1"/>
        <pt x="894" y="759" on="1"/>
        <pt x="964" y="756" on="1"/>
        <pt x="1005" y="752" on="1"/>
        <pt x="1030" y="746" on="1"/>
        <pt x="1101" y="729" on="0"/>
        <pt x="1140" y="706" on="1"/>
        <pt x="1204" y="653" on="0"/>
        <pt x="1180" y="542" on="1"/>
        <pt x="1098" y="409" on="0"/>
        <pt x="943" y="285" on="1"/>
        <pt x="838" y="201" on="1"/>
        <pt x="735" y="116" on="1"/>
        <pt x="635" y="29" on="1"/>
        <pt x="703" y="-36" on="0"/>
        <pt x="823" y="-69" on="1"/>
        <pt x="860" y="-74" on="1"/>
        <pt x="900" y="-76" on="1"/>
        <pt x="955" y="-79" on="0"/>
        <pt x="1023" y="-57" on="1"/>
        <pt x="1241" y="13" on="0"/>
        <pt x="1261" y="205" on="1"/>
        <pt x="1319" y="206" on="1"/>
      </contour>
      <contour>
        <pt x="1076" y="549" on="1"/>
        <pt x="1095" y="627" on="0"/>
        <pt x="1006" y="649" on="1"/>
        <pt x="957" y="661" on="0"/>
        <pt x="903" y="661" on="1"/>
        <pt x="864" y="661" on="0"/>
        <pt x="825" y="655" on="1"/>
        <pt x="737" y="641" on="0"/>
        <pt x="651" y="586" on="1"/>
        <pt x="636" y="580" on="0"/>
        <pt x="612" y="557" on="1"/>
        <pt x="584" y="530" on="1"/>
        <pt x="556" y="503" on="0"/>
        <pt x="536" y="448" on="1"/>
        <pt x="515" y="348" on="1"/>
        <pt x="515" y="255" on="1"/>
        <pt x="515" y="244" on="0"/>
        <pt x="522" y="230" on="1"/>
        <pt x="536" y="202" on="1"/>
        <pt x="548" y="181" on="1"/>
        <pt x="562" y="162" on="1"/>
        <pt x="570" y="144" on="0"/>
        <pt x="583" y="123" on="1"/>
        <pt x="670" y="202" on="0"/>
        <pt x="856" y="348" on="1"/>
        <pt x="984" y="448" on="1"/>
        <pt x="1054" y="506" on="1"/>
      </contour>
    </TTGlyph>
    <TTGlyph name="eacute" xMin="93" yMin="-491" xMax="1745" yMax="1149">
      <contour>
        <pt x="93" y="335" on="1"/>
        <pt x="93" y="666" on="0"/>
        <pt x="335" y="911" on="1"/>
        <pt x="392" y="969" on="0"/>
        <pt x="457" y="1009" on="1"/>
        <pt x="494" y="1032" on="1"/>
        <pt x="522" y="1048" on="1"/>
        <pt x="601" y="1089" on="1"/>
        <pt x="717" y="1149" on="0"/>
        <pt x="917" y="1149" on="1"/>
        <pt x="1255" y="1149" on="0"/>
        <pt x="1499" y="912" on="1"/>
        <pt x="1745" y="672" on="0"/>
        <pt x="1745" y="335" on="1"/>
        <pt x="1745" y="6" on="0"/>
        <pt x="1501" y="-236" on="1"/>
        <pt x="1381" y="-355" on="0"/>
        <pt x="1235" y="-414" on="1"/>
        <pt x="1148" y="-449" on="0"/>
        <pt x="1081" y="-459" on="1"/>
        <pt x="999" y="-471" on="1"/>
        <pt x="917" y="-475" on="1"/>
        <pt x="598" y="-491" on="0"/>
        <pt x="337" y="-237" on="1"/>
        <pt x="214" y="-117" on="0"/>
        <pt x="93" y="174" on="0"/>
      </contour>
      <contour>
        <pt x="735" y="368" on="1"/>
        <pt x="526" y="266" on="0"/>
        <pt x="526" y="90" on="1"/>
        <pt x="526" y="-45" on="0"/>
        <pt x="656" y="-122" on="1"/>
        <pt x="765" y="-187" on="0"/>
        <pt x="909" y="-187" on="1"/>
        <pt x="1067" y="-187" on="0"/>
        <pt x="1174" y="-116" on="1"/>
        <pt x="1299" y="-34" on="0"/>
        <pt x="1299" y="116" on="1"/>
        <pt x="1299" y="274" on="0"/>
        <pt x="1076" y="406" on="1"/>
        <pt x="1247" y="499" on="0"/>
        <pt x="1247" y="641" on="1"/>
        <pt x="1247" y="753" on="0"/>
        <pt x="1140" y="818" on="1"/>
        <pt x="1049" y="874" on="0"/>
        <pt x="930" y="874" on="1"/>
        <pt x="797" y="874" on="0"/>
        <pt x="701" y="808" on="1"/>
        <pt x="591" y="733" on="0"/>
        <pt x="591" y="606" on="1"/>
        <pt x="591" y="485" on="0"/>
      </contour>
      <contour>
        <pt x="990" y="441" on="1"/>
        <pt x="929" y="473" on="1"/>
        <pt x="762" y="561" on="0"/>
        <pt x="762" y="648" on="1"/>
        <pt x="762" y="702" on="0"/>
        <pt x="809" y="742" on="1"/>
        <pt x="840" y="768" on="0"/>
        <pt x="896" y="779" on="1"/>
        <pt x="911" y="782" on="0"/>
        <pt x="921" y="782" on="1"/>
        <pt x="1076" y="782" on="0"/>
        <pt x="1076" y="624" on="1"/>
        <pt x="1076" y="527" on="0"/>
      </contour>
      <contour>
        <pt x="799" y="316" on="1"/>
        <pt x="890" y="269" on="1"/>
        <pt x="922" y="254" on="1"/>
        <pt x="937" y="245" on="1"/>
        <pt x="956" y="235" on="1"/>
        <pt x="1037" y="189" on="1"/>
        <pt x="1076" y="161" on="1"/>
        <pt x="1105" y="117" on="1"/>
        <pt x="1116" y="89" on="0"/>
        <pt x="1116" y="64" on="1"/>
        <pt x="1116" y="-5" on="0"/>
        <pt x="1059" y="-53" on="1"/>
        <pt x="1009" y="-95" on="0"/>
        <pt x="921" y="-95" on="1"/>
        <pt x="722" y="-95" on="0"/>
        <pt x="722" y="111" on="1"/>
        <pt x="722" y="163" on="0"/>
        <pt x="740" y="213" on="1"/>
        <pt x="743" y="228" on="0"/>
        <pt x="750" y="241" on="1"/>
        <pt x="763" y="264" on="1"/>
      </contour>
    </TTGlyph>
    <TTGlyph name="ecircumflex" xMin="80" yMin="-460" xMax="1758" yMax="1144">
      <contour>
        <pt x="1758" y="525" on="1"/>
        <pt x="1240" y="139" on="1"/>
        <pt x="1452" y="-460" on="1"/>
        <pt x="932" y="-66" on="1"/>
        <pt x="402" y="-457" on="1"/>
        <pt x="614" y="139" on="1"/>
        <pt x="80" y="525" on="1"/>
        <pt x="719" y="525" on="1"/>
        <pt x="933" y="1144" on="1"/>
        <pt x="1118" y="525" on="1"/>
      </contour>
      <contour>
        <pt x="1503" y="433" on="1"/>
        <pt x="1063" y="433" on="1"/>
        <pt x="928" y="887" on="1"/>
        <pt x="770" y="433" on="1"/>
        <pt x="341" y="433" on="1"/>
        <pt x="708" y="169" on="1"/>
        <pt x="562" y="-241" on="1"/>
        <pt x="933" y="32" on="1"/>
        <pt x="1291" y="-239" on="1"/>
        <pt x="1147" y="168" on="1"/>
      </contour>
    </TTGlyph>
    <TTGlyph name="edieresis" xMin="470" yMin="-278" xMax="1298" yMax="961">
      <contour>
        <pt x="919" y="961" on="1"/>
        <pt x="1298" y="961" on="1"/>
        <pt x="859" y="340" on="1"/>
        <pt x="1298" y="-278" on="1"/>
        <pt x="919" y="-278" on="1"/>
        <pt x="470" y="340" on="1"/>
      </contour>
    </TTGlyph>
    <TTGlyph name="egrave" xMin="365" yMin="-202" xMax="1453" yMax="885">
      <contour>
        <pt x="365" y="341" on="1"/>
        <pt x="365" y="564" on="0"/>
        <pt x="522" y="724" on="1"/>
        <pt x="567" y="770" on="0"/>
        <pt x="600" y="790" on="1"/>
        <pt x="641" y="815" on="1"/>
        <pt x="696" y="843" on="1"/>
        <pt x="778" y="885" on="0"/>
        <pt x="908" y="885" on="1"/>
        <pt x="1132" y="885" on="0"/>
        <pt x="1453" y="565" on="0"/>
        <pt x="1453" y="341" on="1"/>
        <pt x="1453" y="114" on="0"/>
        <pt x="1135" y="-202" on="0"/>
        <pt x="908" y="-202" on="1"/>
        <pt x="682" y="-202" on="0"/>
        <pt x="365" y="115" on="0"/>
      </contour>
      <contour>
        <pt x="653" y="341" on="1"/>
        <pt x="653" y="243" on="0"/>
        <pt x="810" y="86" on="0"/>
        <pt x="908" y="86" on="1"/>
        <pt x="1011" y="86" on="0"/>
        <pt x="1087" y="160" on="1"/>
        <pt x="1107" y="180" on="0"/>
        <pt x="1145" y="244" on="1"/>
        <pt x="1153" y="269" on="1"/>
        <pt x="1159" y="289" on="1"/>
        <pt x="1165" y="309" on="0"/>
        <pt x="1165" y="341" on="1"/>
        <pt x="1165" y="446" on="0"/>
        <pt x="1013" y="597" on="0"/>
        <pt x="908" y="597" on="1"/>
        <pt x="808" y="597" on="0"/>
        <pt x="653" y="448" on="0"/>
      </contour>
    </TTGlyph>
    <TTGlyph name="eight" xMin="509" yMin="-315" xMax="1346" yMax="1027">
      <contour>
        <pt x="1034" y="458" on="1"/>
        <pt x="942" y="458" on="0"/>
        <pt x="834" y="382" on="1"/>
        <pt x="744" y="320" on="0"/>
        <pt x="676" y="232" on="1"/>
        <pt x="603" y="137" on="0"/>
        <pt x="579" y="29" on="1"/>
        <pt x="573" y="1" on="0"/>
        <pt x="573" y="-25" on="1"/>
        <pt x="573" y="-95" on="0"/>
        <pt x="623" y="-157" on="1"/>
        <pt x="675" y="-224" on="0"/>
        <pt x="743" y="-224" on="1"/>
        <pt x="763" y="-224" on="1"/>
        <pt x="770" y="-222" on="1"/>
        <pt x="875" y="-192" on="0"/>
        <pt x="948" y="-147" on="1"/>
        <pt x="983" y="-125" on="0"/>
        <pt x="1029" y="-84" on="1"/>
        <pt x="1069" y="-48" on="1"/>
        <pt x="1107" y="-10" on="1"/>
        <pt x="1205" y="107" on="1"/>
        <pt x="1254" y="199" on="0"/>
        <pt x="1254" y="259" on="1"/>
        <pt x="1254" y="305" on="0"/>
        <pt x="1235" y="347" on="1"/>
        <pt x="1185" y="458" on="0"/>
      </contour>
      <contour>
        <pt x="788" y="486" on="1"/>
        <pt x="804" y="489" on="1"/>
        <pt x="827" y="499" on="1"/>
        <pt x="850" y="512" on="1"/>
        <pt x="877" y="528" on="0"/>
        <pt x="923" y="551" on="1"/>
        <pt x="1000" y="573" on="0"/>
        <pt x="1068" y="701" on="1"/>
        <pt x="1094" y="750" on="0"/>
        <pt x="1094" y="803" on="1"/>
        <pt x="1094" y="851" on="0"/>
        <pt x="1054" y="892" on="1"/>
        <pt x="990" y="947" on="0"/>
        <pt x="928" y="947" on="1"/>
        <pt x="854" y="947" on="0"/>
        <pt x="790" y="874" on="1"/>
        <pt x="739" y="814" on="0"/>
        <pt x="712" y="732" on="1"/>
        <pt x="697" y="686" on="0"/>
        <pt x="697" y="639" on="1"/>
        <pt x="697" y="606" on="0"/>
        <pt x="712" y="550" on="1"/>
        <pt x="718" y="527" on="0"/>
        <pt x="765" y="486" on="0"/>
      </contour>
      <contour>
        <pt x="742" y="-315" on="1"/>
        <pt x="636" y="-315" on="0"/>
        <pt x="560" y="-195" on="1"/>
        <pt x="509" y="-115" on="0"/>
        <pt x="509" y="-18" on="1"/>
        <pt x="509" y="52" on="0"/>
        <pt x="539" y="140" on="1"/>
        <pt x="604" y="332" on="0"/>
        <pt x="742" y="414" on="1"/>
        <pt x="624" y="432" on="0"/>
        <pt x="624" y="576" on="1"/>
        <pt x="624" y="593" on="1"/>
        <pt x="626" y="611" on="1"/>
        <pt x="647" y="801" on="0"/>
        <pt x="683" y="866" on="1"/>
        <pt x="730" y="951" on="0"/>
        <pt x="846" y="1005" on="1"/>
        <pt x="892" y="1021" on="1"/>
        <pt x="916" y="1027" on="0"/>
        <pt x="940" y="1027" on="1"/>
        <pt x="1001" y="1027" on="0"/>
        <pt x="1056" y="989" on="1"/>
        <pt x="1162" y="916" on="0"/>
        <pt x="1154" y="824" on="1"/>
        <pt x="1151" y="788" on="1"/>
        <pt x="1130" y="688" on="0"/>
        <pt x="1070" y="576" on="1"/>
        <pt x="1068" y="573" on="1"/>
        <pt x="1057" y="563" on="1"/>
        <pt x="1051" y="560" on="0"/>
        <pt x="1048" y="549" on="1"/>
        <pt x="1180" y="549" on="0"/>
        <pt x="1281" y="424" on="1"/>
        <pt x="1346" y="343" on="0"/>
        <pt x="1346" y="251" on="1"/>
        <pt x="1346" y="214" on="0"/>
        <pt x="1336" y="178" on="1"/>
        <pt x="1263" y="-82" on="0"/>
        <pt x="973" y="-240" on="1"/>
        <pt x="835" y="-315" on="0"/>
      </contour>
    </TTGlyph>
    <TTGlyph name="ellipsis" xMin="226" yMin="-370" xMax="1628" yMax="1034">
      <contour>
        <pt x="1624" y="-101" on="1"/>
        <pt x="1628" y="-227" on="0"/>
        <pt x="1542" y="-295" on="1"/>
        <pt x="1460" y="-359" on="0"/>
        <pt x="1361" y="-359" on="1"/>
        <pt x="1248" y="-359" on="0"/>
        <pt x="1099" y="-211" on="0"/>
        <pt x="1099" y="-98" on="1"/>
        <pt x="1099" y="69" on="1"/>
        <pt x="759" y="69" on="1"/>
        <pt x="759" y="-118" on="1"/>
        <pt x="759" y="-205" on="0"/>
        <pt x="681" y="-286" on="1"/>
        <pt x="598" y="-370" on="0"/>
        <pt x="509" y="-366" on="1"/>
        <pt x="486" y="-365" on="1"/>
        <pt x="402" y="-361" on="0"/>
        <pt x="323" y="-287" on="1"/>
        <pt x="253" y="-221" on="0"/>
        <pt x="232" y="-111" on="1"/>
        <pt x="231" y="-98" on="1"/>
        <pt x="231" y="-87" on="1"/>
        <pt x="231" y="-5" on="0"/>
        <pt x="312" y="83" on="1"/>
        <pt x="381" y="158" on="0"/>
        <pt x="478" y="159" on="1"/>
        <pt x="667" y="161" on="1"/>
        <pt x="667" y="502" on="1"/>
        <pt x="478" y="503" on="1"/>
        <pt x="391" y="503" on="0"/>
        <pt x="311" y="578" on="1"/>
        <pt x="226" y="657" on="0"/>
        <pt x="230" y="747" on="1"/>
        <pt x="231" y="768" on="1"/>
        <pt x="236" y="868" on="0"/>
        <pt x="387" y="1019" on="0"/>
        <pt x="483" y="1026" on="1"/>
        <pt x="510" y="1028" on="1"/>
        <pt x="592" y="1034" on="0"/>
        <pt x="681" y="947" on="1"/>
        <pt x="756" y="873" on="0"/>
        <pt x="757" y="782" on="1"/>
        <pt x="759" y="594" on="1"/>
        <pt x="1099" y="594" on="1"/>
        <pt x="1099" y="698" on="0"/>
        <pt x="1111" y="819" on="1"/>
        <pt x="1123" y="944" on="0"/>
        <pt x="1259" y="1007" on="1"/>
        <pt x="1312" y="1032" on="0"/>
        <pt x="1361" y="1028" on="1"/>
        <pt x="1400" y="1025" on="1"/>
        <pt x="1412" y="1024" on="0"/>
        <pt x="1419" y="1021" on="1"/>
        <pt x="1441" y="1014" on="1"/>
        <pt x="1522" y="988" on="0"/>
        <pt x="1574" y="914" on="1"/>
        <pt x="1623" y="844" on="0"/>
        <pt x="1623" y="751" on="1"/>
        <pt x="1623" y="657" on="0"/>
        <pt x="1475" y="501" on="0"/>
        <pt x="1382" y="501" on="1"/>
        <pt x="1191" y="502" on="1"/>
        <pt x="1191" y="161" on="1"/>
        <pt x="1378" y="158" on="1"/>
        <pt x="1471" y="157" on="0"/>
        <pt x="1543" y="85" on="1"/>
        <pt x="1579" y="49" on="0"/>
        <pt x="1604" y="-1" on="1"/>
        <pt x="1612" y="-23" on="1"/>
        <pt x="1619" y="-49" on="1"/>
        <pt x="1623" y="-72" on="1"/>
      </contour>
      <contour>
        <pt x="1532" y="766" on="1"/>
        <pt x="1532" y="856" on="0"/>
        <pt x="1456" y="905" on="1"/>
        <pt x="1413" y="924" on="1"/>
        <pt x="1384" y="931" on="1"/>
        <pt x="1361" y="933" on="1"/>
        <pt x="1334" y="935" on="0"/>
        <pt x="1327" y="931" on="1"/>
        <pt x="1296" y="922" on="1"/>
        <pt x="1262" y="912" on="0"/>
        <pt x="1219" y="868" on="1"/>
        <pt x="1194" y="832" on="0"/>
        <pt x="1193" y="779" on="1"/>
        <pt x="1191" y="594" on="1"/>
        <pt x="1370" y="594" on="0"/>
        <pt x="1415" y="606" on="1"/>
        <pt x="1532" y="638" on="0"/>
      </contour>
      <contour>
        <pt x="1099" y="161" on="1"/>
        <pt x="1099" y="502" on="1"/>
        <pt x="759" y="502" on="1"/>
        <pt x="759" y="161" on="1"/>
      </contour>
      <contour>
        <pt x="667" y="594" on="1"/>
        <pt x="667" y="774" on="0"/>
        <pt x="656" y="816" on="1"/>
        <pt x="626" y="934" on="0"/>
        <pt x="501" y="934" on="1"/>
        <pt x="430" y="934" on="0"/>
        <pt x="338" y="834" on="0"/>
        <pt x="338" y="763" on="1"/>
        <pt x="338" y="688" on="0"/>
        <pt x="424" y="594" on="0"/>
        <pt x="498" y="594" on="1"/>
      </contour>
      <contour>
        <pt x="1532" y="-100" on="1"/>
        <pt x="1532" y="41" on="0"/>
        <pt x="1416" y="53" on="1"/>
        <pt x="1301" y="65" on="1"/>
        <pt x="1191" y="69" on="1"/>
        <pt x="1193" y="-117" on="1"/>
        <pt x="1194" y="-213" on="0"/>
        <pt x="1297" y="-258" on="1"/>
        <pt x="1328" y="-267" on="1"/>
        <pt x="1360" y="-271" on="1"/>
        <pt x="1408" y="-271" on="0"/>
        <pt x="1455" y="-240" on="1"/>
        <pt x="1532" y="-189" on="0"/>
      </contour>
      <contour>
        <pt x="667" y="-100" on="1"/>
        <pt x="667" y="69" on="1"/>
        <pt x="512" y="65" on="1"/>
        <pt x="490" y="61" on="1"/>
        <pt x="436" y="52" on="1"/>
        <pt x="339" y="36" on="0"/>
        <pt x="339" y="-133" on="1"/>
        <pt x="339" y="-177" on="0"/>
        <pt x="383" y="-219" on="1"/>
        <pt x="443" y="-276" on="0"/>
        <pt x="498" y="-276" on="1"/>
        <pt x="532" y="-276" on="0"/>
        <pt x="564" y="-257" on="1"/>
        <pt x="651" y="-206" on="0"/>
      </contour>
    </TTGlyph>
    <TTGlyph name="emdash" xMin="68" yMin="-467" xMax="1761" yMax="1126">
      <contour>
        <pt x="1322" y="263" on="1"/>
        <pt x="1322" y="236" on="1"/>
        <pt x="1319" y="221" on="1"/>
        <pt x="1319" y="209" on="0"/>
        <pt x="1313" y="197" on="1"/>
        <pt x="1309" y="177" on="0"/>
        <pt x="1286" y="125" on="1"/>
        <pt x="1256" y="57" on="0"/>
        <pt x="1204" y="5" on="1"/>
        <pt x="1199" y="2" on="1"/>
        <pt x="1100" y="-100" on="0"/>
        <pt x="950" y="-118" on="1"/>
        <pt x="950" y="-467" on="1"/>
        <pt x="830" y="-467" on="1"/>
        <pt x="830" y="-118" on="1"/>
        <pt x="752" y="-110" on="0"/>
        <pt x="694" y="-75" on="1"/>
        <pt x="648" y="-47" on="0"/>
        <pt x="584" y="21" on="1"/>
        <pt x="488" y="124" on="0"/>
        <pt x="475" y="263" on="1"/>
        <pt x="68" y="263" on="1"/>
        <pt x="68" y="376" on="1"/>
        <pt x="475" y="376" on="1"/>
        <pt x="475" y="403" on="0"/>
        <pt x="486" y="441" on="1"/>
        <pt x="502" y="496" on="0"/>
        <pt x="583" y="586" on="1"/>
        <pt x="602" y="607" on="1"/>
        <pt x="631" y="639" on="0"/>
        <pt x="696" y="678" on="1"/>
        <pt x="763" y="708" on="1"/>
        <pt x="791" y="716" on="1"/>
        <pt x="830" y="725" on="1"/>
        <pt x="830" y="1126" on="1"/>
        <pt x="950" y="1126" on="1"/>
        <pt x="950" y="725" on="1"/>
        <pt x="1108" y="700" on="0"/>
        <pt x="1214" y="586" on="1"/>
        <pt x="1235" y="563" on="0"/>
        <pt x="1251" y="538" on="1"/>
        <pt x="1282" y="489" on="1"/>
        <pt x="1304" y="454" on="0"/>
        <pt x="1320" y="376" on="1"/>
        <pt x="1761" y="376" on="1"/>
        <pt x="1761" y="263" on="1"/>
      </contour>
    </TTGlyph>
    <TTGlyph name="endash" xMin="229" yMin="-159" xMax="1539" yMax="904">
      <contour>
        <pt x="1300" y="319" on="1"/>
        <pt x="1398" y="319" on="0"/>
        <pt x="1539" y="177" on="0"/>
        <pt x="1539" y="79" on="1"/>
        <pt x="1539" y="-18" on="0"/>
        <pt x="1397" y="-159" on="0"/>
        <pt x="1300" y="-159" on="1"/>
        <pt x="1201" y="-159" on="0"/>
        <pt x="1060" y="-20" on="0"/>
        <pt x="1060" y="79" on="1"/>
        <pt x="1060" y="178" on="0"/>
        <pt x="1201" y="319" on="0"/>
      </contour>
      <contour>
        <pt x="467" y="319" on="1"/>
        <pt x="564" y="319" on="0"/>
        <pt x="707" y="176" on="0"/>
        <pt x="707" y="79" on="1"/>
        <pt x="707" y="-20" on="0"/>
        <pt x="566" y="-159" on="0"/>
        <pt x="467" y="-159" on="1"/>
        <pt x="369" y="-159" on="0"/>
        <pt x="299" y="-88" on="1"/>
        <pt x="271" y="-59" on="0"/>
        <pt x="246" y="-12" on="1"/>
        <pt x="229" y="31" on="0"/>
        <pt x="229" y="79" on="1"/>
        <pt x="229" y="178" on="0"/>
        <pt x="368" y="319" on="0"/>
      </contour>
      <contour>
        <pt x="887" y="904" on="1"/>
        <pt x="984" y="904" on="0"/>
        <pt x="1127" y="761" on="0"/>
        <pt x="1127" y="664" on="1"/>
        <pt x="1127" y="569" on="0"/>
        <pt x="982" y="426" on="0"/>
        <pt x="887" y="426" on="1"/>
        <pt x="836" y="426" on="0"/>
        <pt x="797" y="441" on="1"/>
        <pt x="776" y="449" on="1"/>
        <pt x="758" y="461" on="1"/>
        <pt x="706" y="496" on="0"/>
        <pt x="666" y="571" on="1"/>
        <pt x="649" y="614" on="0"/>
        <pt x="649" y="664" on="1"/>
        <pt x="649" y="762" on="0"/>
        <pt x="789" y="904" on="0"/>
      </contour>
    </TTGlyph>
    <TTGlyph name="equal" xMin="393" yMin="2" xMax="1395" yMax="651">
      <contour>
        <pt x="1395" y="492" on="1"/>
        <pt x="393" y="492" on="1"/>
        <pt x="393" y="651" on="1"/>
        <pt x="1395" y="651" on="1"/>
      </contour>
      <contour>
        <pt x="1395" y="2" on="1"/>
        <pt x="393" y="2" on="1"/>
        <pt x="393" y="161" on="1"/>
        <pt x="1395" y="161" on="1"/>
      </contour>
    </TTGlyph>
    <TTGlyph name="eth" xMin="339" yMin="-343" xMax="1509" yMax="1007">
      <contour>
        <pt x="339" y="-343" on="1"/>
        <pt x="339" y="1007" on="1"/>
        <pt x="1509" y="330" on="1"/>
      </contour>
    </TTGlyph>
    <TTGlyph name="exclam" xMin="181" yMin="-88" xMax="1707" yMax="706">
      <contour>
        <pt x="925" y="217" on="1"/>
        <pt x="754" y="-88" on="0"/>
        <pt x="531" y="-88" on="1"/>
        <pt x="387" y="-88" on="0"/>
        <pt x="181" y="131" on="0"/>
        <pt x="181" y="285" on="1"/>
        <pt x="181" y="460" on="0"/>
        <pt x="397" y="706" on="0"/>
        <pt x="551" y="706" on="1"/>
        <pt x="667" y="706" on="0"/>
        <pt x="850" y="569" on="0"/>
        <pt x="972" y="390" on="1"/>
        <pt x="1162" y="706" on="0"/>
        <pt x="1356" y="706" on="1"/>
        <pt x="1502" y="706" on="0"/>
        <pt x="1707" y="482" on="0"/>
        <pt x="1707" y="323" on="1"/>
        <pt x="1707" y="149" on="0"/>
        <pt x="1493" y="-87" on="0"/>
        <pt x="1337" y="-87" on="1"/>
        <pt x="1221" y="-87" on="0"/>
        <pt x="1044" y="43" on="0"/>
      </contour>
      <contour>
        <pt x="881" y="267" on="1"/>
        <pt x="670" y="561" on="0"/>
        <pt x="524" y="561" on="1"/>
        <pt x="430" y="561" on="0"/>
        <pt x="293" y="387" on="0"/>
        <pt x="293" y="266" on="1"/>
        <pt x="293" y="154" on="0"/>
        <pt x="436" y="4" on="0"/>
        <pt x="542" y="4" on="1"/>
        <pt x="731" y="4" on="0"/>
      </contour>
      <contour>
        <pt x="1016" y="341" on="1"/>
        <pt x="1226" y="48" on="0"/>
        <pt x="1366" y="48" on="1"/>
        <pt x="1456" y="48" on="0"/>
        <pt x="1597" y="224" on="0"/>
        <pt x="1597" y="336" on="1"/>
        <pt x="1597" y="452" on="0"/>
        <pt x="1450" y="606" on="0"/>
        <pt x="1342" y="606" on="1"/>
        <pt x="1166" y="606" on="0"/>
      </contour>
    </TTGlyph>
    <TTGlyph name="exclamdown" xMin="166" yMin="-400" xMax="1645" yMax="1076">
      <contour>
        <pt x="1645" y="-297" on="1"/>
        <pt x="1556" y="-400" on="1"/>
        <pt x="844" y="307" on="1"/>
        <pt x="572" y="33" on="1"/>
        <pt x="458" y="144" on="1"/>
        <pt x="731" y="414" on="1"/>
        <pt x="166" y="981" on="1"/>
        <pt x="278" y="1076" on="1"/>
        <pt x="844" y="507" on="1"/>
        <pt x="1119" y="786" on="1"/>
        <pt x="1219" y="700" on="1"/>
        <pt x="937" y="414" on="1"/>
      </contour>
    </TTGlyph>
    <TTGlyph name="f" xMin="134" yMin="-432" xMax="1688" yMax="1049">
      <contour>
        <pt x="1688" y="1049" on="1"/>
        <pt x="910" y="-432" on="1"/>
        <pt x="134" y="1049" on="1"/>
      </contour>
    </TTGlyph>
    <TTGlyph name="five" xMin="381" yMin="-385" xMax="1330" yMax="1037">
      <contour>
        <pt x="381" y="40" on="1"/>
        <pt x="491" y="32" on="1"/>
        <pt x="511" y="-96" on="0"/>
        <pt x="705" y="-266" on="0"/>
        <pt x="834" y="-266" on="1"/>
        <pt x="974" y="-266" on="0"/>
        <pt x="1227" y="-27" on="0"/>
        <pt x="1227" y="112" on="1"/>
        <pt x="1227" y="263" on="0"/>
        <pt x="1125" y="384" on="1"/>
        <pt x="1017" y="512" on="0"/>
        <pt x="868" y="512" on="1"/>
        <pt x="758" y="512" on="0"/>
        <pt x="682" y="457" on="1"/>
        <pt x="619" y="413" on="0"/>
        <pt x="556" y="311" on="1"/>
        <pt x="474" y="335" on="1"/>
        <pt x="611" y="1037" on="1"/>
        <pt x="1269" y="1037" on="1"/>
        <pt x="1258" y="914" on="1"/>
        <pt x="673" y="914" on="1"/>
        <pt x="594" y="520" on="1"/>
        <pt x="726" y="612" on="0"/>
        <pt x="871" y="612" on="1"/>
        <pt x="1072" y="612" on="0"/>
        <pt x="1202" y="472" on="1"/>
        <pt x="1330" y="336" on="0"/>
        <pt x="1330" y="134" on="1"/>
        <pt x="1330" y="-89" on="0"/>
        <pt x="1048" y="-385" on="0"/>
        <pt x="826" y="-385" on="1"/>
        <pt x="662" y="-385" on="0"/>
        <pt x="528" y="-254" on="1"/>
        <pt x="397" y="-126" on="0"/>
      </contour>
    </TTGlyph>
    <TTGlyph name="florin" xMin="258" yMin="-241" xMax="1530" yMax="925">
      <contour>
        <pt x="1020" y="883" on="1"/>
        <pt x="1190" y="813" on="1"/>
        <pt x="1317" y="761" on="0"/>
        <pt x="1438" y="611" on="1"/>
        <pt x="1530" y="472" on="0"/>
        <pt x="1530" y="307" on="1"/>
        <pt x="1530" y="265" on="1"/>
        <pt x="1528" y="253" on="1"/>
        <pt x="1525" y="221" on="1"/>
        <pt x="1520" y="197" on="1"/>
        <pt x="1516" y="176" on="1"/>
        <pt x="1510" y="153" on="1"/>
        <pt x="1507" y="135" on="1"/>
        <pt x="1502" y="125" on="1"/>
        <pt x="1492" y="98" on="1"/>
        <pt x="1469" y="51" on="1"/>
        <pt x="1442" y="4" on="1"/>
        <pt x="1410" y="-37" on="1"/>
        <pt x="1370" y="-80" on="1"/>
        <pt x="1220" y="-241" on="0"/>
        <pt x="980" y="-241" on="1"/>
        <pt x="969" y="-241" on="1"/>
        <pt x="911" y="-238" on="1"/>
        <pt x="872" y="-231" on="1"/>
        <pt x="822" y="-219" on="1"/>
        <pt x="794" y="-210" on="1"/>
        <pt x="768" y="-199" on="1"/>
        <pt x="600" y="-130" on="1"/>
        <pt x="526" y="-94" on="1"/>
        <pt x="494" y="-72" on="1"/>
        <pt x="460" y="-46" on="1"/>
        <pt x="436" y="-27" on="1"/>
        <pt x="402" y="6" on="1"/>
        <pt x="378" y="34" on="1"/>
        <pt x="350" y="70" on="1"/>
        <pt x="336" y="92" on="0"/>
        <pt x="311" y="142" on="1"/>
        <pt x="303" y="158" on="1"/>
        <pt x="296" y="175" on="1"/>
        <pt x="282" y="215" on="1"/>
        <pt x="258" y="284" on="0"/>
        <pt x="258" y="376" on="1"/>
        <pt x="258" y="433" on="0"/>
        <pt x="267" y="482" on="1"/>
        <pt x="275" y="526" on="1"/>
        <pt x="296" y="585" on="1"/>
        <pt x="327" y="671" on="0"/>
        <pt x="420" y="766" on="1"/>
        <pt x="458" y="804" on="0"/>
        <pt x="502" y="832" on="1"/>
        <pt x="552" y="863" on="0"/>
        <pt x="598" y="883" on="1"/>
        <pt x="695" y="925" on="0"/>
        <pt x="810" y="925" on="1"/>
        <pt x="862" y="925" on="0"/>
        <pt x="914" y="913" on="1"/>
        <pt x="966" y="901" on="1"/>
        <pt x="989" y="896" on="0"/>
      </contour>
      <contour>
        <pt x="337" y="368" on="1"/>
        <pt x="330" y="189" on="0"/>
        <pt x="477" y="42" on="1"/>
        <pt x="576" y="-57" on="0"/>
        <pt x="723" y="-87" on="1"/>
        <pt x="772" y="-97" on="0"/>
        <pt x="815" y="-97" on="1"/>
        <pt x="1030" y="-97" on="0"/>
        <pt x="1154" y="40" on="1"/>
        <pt x="1183" y="72" on="1"/>
        <pt x="1211" y="110" on="1"/>
        <pt x="1258" y="196" on="1"/>
        <pt x="1294" y="283" on="0"/>
        <pt x="1294" y="374" on="1"/>
        <pt x="1294" y="568" on="0"/>
        <pt x="1152" y="707" on="1"/>
        <pt x="1086" y="772" on="0"/>
        <pt x="999" y="809" on="1"/>
        <pt x="949" y="830" on="0"/>
        <pt x="911" y="836" on="1"/>
        <pt x="864" y="843" on="1"/>
        <pt x="815" y="846" on="1"/>
        <pt x="640" y="857" on="0"/>
        <pt x="475" y="708" on="1"/>
        <pt x="436" y="663" on="1"/>
        <pt x="415" y="635" on="1"/>
        <pt x="391" y="592" on="1"/>
        <pt x="371" y="552" on="1"/>
        <pt x="358" y="518" on="1"/>
        <pt x="345" y="466" on="1"/>
        <pt x="339" y="417" on="1"/>
      </contour>
    </TTGlyph>
    <TTGlyph name="four" xMin="361" yMin="-395" xMax="1485" yMax="1011">
      <contour>
        <pt x="1133" y="-395" on="1"/>
        <pt x="1133" y="-69" on="1"/>
        <pt x="361" y="-69" on="1"/>
        <pt x="361" y="40" on="1"/>
        <pt x="1133" y="1011" on="1"/>
        <pt x="1233" y="1011" on="1"/>
        <pt x="1233" y="40" on="1"/>
        <pt x="1485" y="40" on="1"/>
        <pt x="1485" y="-69" on="1"/>
        <pt x="1233" y="-68" on="1"/>
        <pt x="1233" y="-394" on="1"/>
      </contour>
      <contour>
        <pt x="1133" y="40" on="1"/>
        <pt x="1133" y="833" on="1"/>
        <pt x="493" y="40" on="1"/>
      </contour>
    </TTGlyph>
    <TTGlyph name="g" xMin="147" yMin="-415" xMax="1701" yMax="1066">
      <contour>
        <pt x="147" y="-415" on="1"/>
        <pt x="925" y="1066" on="1"/>
        <pt x="1701" y="-415" on="1"/>
      </contour>
    </TTGlyph>
    <TTGlyph name="germandbls" xMin="322" yMin="-358" xMax="1536" yMax="1051">
      <contour>
        <pt x="322" y="-358" on="1"/>
        <pt x="322" y="1051" on="1"/>
        <pt x="1536" y="342" on="1"/>
      </contour>
      <contour>
        <pt x="404" y="-215" on="1"/>
        <pt x="1372" y="342" on="1"/>
        <pt x="404" y="907" on="1"/>
      </contour>
    </TTGlyph>
    <TTGlyph name="grave" xMin="518" yMin="-462" xMax="1310" yMax="1146">
      <contour>
        <pt x="968" y="-462" on="1"/>
        <pt x="861" y="-462" on="1"/>
        <pt x="518" y="-2" on="1"/>
        <pt x="518" y="676" on="1"/>
        <pt x="861" y="1146" on="1"/>
        <pt x="968" y="1146" on="1"/>
        <pt x="1310" y="676" on="1"/>
        <pt x="1310" y="-2" on="1"/>
      </contour>
      <contour>
        <pt x="914" y="-375" on="1"/>
        <pt x="1192" y="-2" on="1"/>
        <pt x="1192" y="679" on="1"/>
        <pt x="914" y="1057" on="1"/>
        <pt x="637" y="690" on="1"/>
        <pt x="637" y="-16" on="1"/>
      </contour>
    </TTGlyph>
    <TTGlyph name="greater" xMin="458" yMin="-434" xMax="1240" yMax="1078">
      <contour>
        <pt x="1240" y="326" on="1"/>
        <pt x="609" y="-434" on="1"/>
        <pt x="478" y="-434" on="1"/>
        <pt x="1098" y="326" on="1"/>
        <pt x="458" y="1077" on="1"/>
        <pt x="604" y="1078" on="1"/>
      </contour>
    </TTGlyph>
    <TTGlyph name="guillemotleft" xMin="215" yMin="-257" xMax="1639" yMax="920">
      <contour>
        <pt x="360" y="-149" on="1"/>
        <pt x="863" y="-149" on="1"/>
        <pt x="863" y="781" on="1"/>
        <pt x="360" y="781" on="1"/>
      </contour>
      <contour>
        <pt x="215" y="-257" on="1"/>
        <pt x="215" y="920" on="1"/>
        <pt x="1639" y="920" on="1"/>
        <pt x="1639" y="-257" on="1"/>
      </contour>
      <contour>
        <pt x="1003" y="-149" on="1"/>
        <pt x="1506" y="-149" on="1"/>
        <pt x="1506" y="781" on="1"/>
        <pt x="1003" y="781" on="1"/>
      </contour>
    </TTGlyph>
    <TTGlyph name="guillemotright" xMin="179" yMin="-349" xMax="1659" yMax="1131">
      <contour>
        <pt x="179" y="391" on="1"/>
        <pt x="734" y="576" on="1"/>
        <pt x="919" y="1131" on="1"/>
        <pt x="1104" y="576" on="1"/>
        <pt x="1659" y="391" on="1"/>
        <pt x="1104" y="206" on="1"/>
        <pt x="919" y="-349" on="1"/>
        <pt x="734" y="206" on="1"/>
      </contour>
    </TTGlyph>
    <TTGlyph name="guilsinglleft" xMin="320" yMin="-276" xMax="1530" yMax="1105">
      <contour>
        <pt x="1433" y="-276" on="1"/>
        <pt x="1093" y="-276" on="1"/>
        <pt x="1093" y="-120" on="1"/>
        <pt x="1346" y="28" on="0"/>
        <pt x="1346" y="432" on="1"/>
        <pt x="1346" y="642" on="0"/>
        <pt x="1243" y="786" on="1"/>
        <pt x="1128" y="951" on="0"/>
        <pt x="927" y="951" on="1"/>
        <pt x="722" y="951" on="0"/>
        <pt x="608" y="792" on="1"/>
        <pt x="506" y="652" on="0"/>
        <pt x="506" y="439" on="1"/>
        <pt x="506" y="31" on="0"/>
        <pt x="787" y="-120" on="1"/>
        <pt x="787" y="-276" on="1"/>
        <pt x="447" y="-276" on="1"/>
        <pt x="447" y="-116" on="1"/>
        <pt x="603" y="-116" on="1"/>
        <pt x="320" y="119" on="0"/>
        <pt x="320" y="458" on="1"/>
        <pt x="320" y="841" on="0"/>
        <pt x="604" y="1020" on="1"/>
        <pt x="741" y="1105" on="0"/>
        <pt x="929" y="1105" on="1"/>
        <pt x="1279" y="1105" on="0"/>
        <pt x="1448" y="803" on="1"/>
        <pt x="1530" y="657" on="0"/>
        <pt x="1530" y="458" on="1"/>
        <pt x="1530" y="119" on="0"/>
        <pt x="1247" y="-116" on="1"/>
        <pt x="1433" y="-116" on="1"/>
      </contour>
    </TTGlyph>
    <TTGlyph name="guilsinglright" xMin="249" yMin="-280" xMax="1530" yMax="1060">
      <contour>
        <pt x="945" y="251" on="1"/>
        <pt x="945" y="402" on="1"/>
        <pt x="1530" y="403" on="1"/>
        <pt x="1530" y="-76" on="1"/>
        <pt x="1392" y="-180" on="0"/>
        <pt x="1251" y="-229" on="1"/>
        <pt x="1108" y="-280" on="0"/>
        <pt x="956" y="-280" on="1"/>
        <pt x="750" y="-280" on="0"/>
        <pt x="586" y="-198" on="1"/>
        <pt x="419" y="-116" on="0"/>
        <pt x="334" y="38" on="1"/>
        <pt x="249" y="192" on="0"/>
        <pt x="249" y="384" on="1"/>
        <pt x="249" y="573" on="0"/>
        <pt x="334" y="737" on="1"/>
        <pt x="417" y="900" on="0"/>
        <pt x="577" y="980" on="1"/>
        <pt x="735" y="1060" on="0"/>
        <pt x="944" y="1060" on="1"/>
        <pt x="1093" y="1060" on="0"/>
        <pt x="1214" y="1015" on="1"/>
        <pt x="1338" y="966" on="0"/>
        <pt x="1404" y="888" on="1"/>
        <pt x="1474" y="806" on="0"/>
        <pt x="1510" y="675" on="1"/>
        <pt x="1344" y="633" on="1"/>
        <pt x="1312" y="733" on="0"/>
        <pt x="1266" y="788" on="1"/>
        <pt x="1221" y="845" on="0"/>
        <pt x="1135" y="879" on="1"/>
        <pt x="1047" y="913" on="0"/>
        <pt x="945" y="913" on="1"/>
        <pt x="817" y="913" on="0"/>
        <pt x="726" y="877" on="1"/>
        <pt x="636" y="842" on="0"/>
        <pt x="578" y="783" on="1"/>
        <pt x="521" y="724" on="0"/>
        <pt x="491" y="655" on="1"/>
        <pt x="438" y="534" on="0"/>
        <pt x="438" y="394" on="1"/>
        <pt x="438" y="221" on="0"/>
        <pt x="502" y="104" on="1"/>
        <pt x="566" y="-13" on="0"/>
        <pt x="687" y="-68" on="1"/>
        <pt x="810" y="-125" on="0"/>
        <pt x="946" y="-125" on="1"/>
        <pt x="1062" y="-125" on="0"/>
        <pt x="1178" y="-82" on="1"/>
        <pt x="1291" y="-40" on="0"/>
        <pt x="1351" y="10" on="1"/>
        <pt x="1351" y="251" on="1"/>
      </contour>
    </TTGlyph>
    <TTGlyph name="h" xMin="524" yMin="-102" xMax="1404" yMax="776">
      <contour>
        <pt x="1404" y="776" on="1"/>
        <pt x="1404" y="-102" on="1"/>
        <pt x="524" y="-102" on="1"/>
        <pt x="524" y="776" on="1"/>
      </contour>
      <contour>
        <pt x="1317" y="690" on="1"/>
        <pt x="611" y="690" on="1"/>
        <pt x="611" y="-2" on="1"/>
        <pt x="1317" y="-2" on="1"/>
      </contour>
    </TTGlyph>
    <TTGlyph name="hyphen" xMin="353" yMin="264" xMax="1455" yMax="439">
      <contour>
        <pt x="1455" y="264" on="1"/>
        <pt x="353" y="264" on="1"/>
        <pt x="353" y="439" on="1"/>
        <pt x="1455" y="439" on="1"/>
      </contour>
    </TTGlyph>
    <TTGlyph name="i" xMin="643" yMin="176" xMax="1232" yMax="1090">
      <contour>
        <pt x="870" y="754" on="1"/>
        <pt x="870" y="1090" on="1"/>
        <pt x="995" y="1090" on="1"/>
        <pt x="995" y="754" on="1"/>
        <pt x="1041" y="745" on="0"/>
        <pt x="1086" y="718" on="1"/>
        <pt x="1150" y="680" on="0"/>
        <pt x="1190" y="611" on="1"/>
        <pt x="1210" y="576" on="0"/>
        <pt x="1217" y="542" on="1"/>
        <pt x="1224" y="506" on="1"/>
        <pt x="1227" y="468" on="1"/>
        <pt x="1232" y="398" on="0"/>
        <pt x="1188" y="322" on="1"/>
        <pt x="1102" y="176" on="0"/>
        <pt x="934" y="176" on="1"/>
        <pt x="766" y="176" on="0"/>
        <pt x="680" y="326" on="1"/>
        <pt x="643" y="390" on="0"/>
        <pt x="643" y="469" on="1"/>
        <pt x="643" y="548" on="0"/>
        <pt x="685" y="619" on="1"/>
        <pt x="712" y="664" on="0"/>
        <pt x="732" y="679" on="1"/>
        <pt x="749" y="691" on="0"/>
        <pt x="800" y="718" on="1"/>
      </contour>
    </TTGlyph>
    <TTGlyph name="iacute" xMin="265" yMin="-310" xMax="1562" yMax="984">
      <contour>
        <pt x="379" y="-137" on="1"/>
        <pt x="1395" y="879" on="1"/>
        <pt x="379" y="879" on="1"/>
      </contour>
      <contour>
        <pt x="456" y="-204" on="1"/>
        <pt x="1449" y="-204" on="1"/>
        <pt x="1449" y="788" on="1"/>
      </contour>
      <contour>
        <pt x="1562" y="984" on="1"/>
        <pt x="1562" y="-310" on="1"/>
        <pt x="265" y="-310" on="1"/>
        <pt x="265" y="984" on="1"/>
      </contour>
    </TTGlyph>
    <TTGlyph name="icircumflex" xMin="212" yMin="-364" xMax="1616" yMax="1038">
      <contour>
        <pt x="212" y="336" on="1"/>
        <pt x="212" y="629" on="0"/>
        <pt x="621" y="1038" on="0"/>
        <pt x="914" y="1038" on="1"/>
        <pt x="1208" y="1038" on="0"/>
        <pt x="1616" y="630" on="0"/>
        <pt x="1616" y="336" on="1"/>
        <pt x="1616" y="44" on="0"/>
        <pt x="1206" y="-364" on="0"/>
        <pt x="914" y="-364" on="1"/>
        <pt x="625" y="-364" on="0"/>
        <pt x="212" y="48" on="0"/>
      </contour>
      <contour>
        <pt x="568" y="-112" on="1"/>
        <pt x="727" y="-223" on="0"/>
        <pt x="914" y="-223" on="1"/>
        <pt x="1146" y="-223" on="0"/>
        <pt x="1474" y="104" on="0"/>
        <pt x="1474" y="335" on="1"/>
        <pt x="1474" y="518" on="0"/>
        <pt x="1356" y="678" on="1"/>
      </contour>
      <contour>
        <pt x="1258" y="779" on="1"/>
        <pt x="1089" y="897" on="0"/>
        <pt x="911" y="897" on="1"/>
        <pt x="681" y="897" on="0"/>
        <pt x="354" y="566" on="0"/>
        <pt x="354" y="335" on="1"/>
        <pt x="354" y="145" on="0"/>
        <pt x="470" y="-10" on="1"/>
      </contour>
    </TTGlyph>
    <TTGlyph name="idieresis" xMin="260" yMin="-448" xMax="1547" yMax="1067">
      <contour>
        <pt x="1545" y="-33" on="1"/>
        <pt x="1306" y="-33" on="1"/>
        <pt x="1306" y="560" on="1"/>
        <pt x="1306" y="651" on="0"/>
        <pt x="1295" y="677" on="1"/>
        <pt x="1286" y="713" on="0"/>
        <pt x="1242" y="770" on="1"/>
        <pt x="1175" y="857" on="0"/>
        <pt x="1048" y="857" on="1"/>
        <pt x="983" y="857" on="0"/>
        <pt x="939" y="834" on="1"/>
        <pt x="893" y="816" on="0"/>
        <pt x="853" y="759" on="1"/>
        <pt x="824" y="717" on="0"/>
        <pt x="801" y="671" on="1"/>
        <pt x="790" y="629" on="0"/>
        <pt x="790" y="560" on="1"/>
        <pt x="790" y="117" on="1"/>
        <pt x="1080" y="117" on="1"/>
        <pt x="672" y="-448" on="1"/>
        <pt x="260" y="117" on="1"/>
        <pt x="550" y="117" on="1"/>
        <pt x="554" y="695" on="1"/>
        <pt x="554" y="701" on="0"/>
        <pt x="556" y="706" on="1"/>
        <pt x="562" y="721" on="1"/>
        <pt x="571" y="753" on="0"/>
        <pt x="601" y="801" on="1"/>
        <pt x="628" y="844" on="1"/>
        <pt x="677" y="943" on="0"/>
        <pt x="814" y="1011" on="1"/>
        <pt x="926" y="1067" on="0"/>
        <pt x="1048" y="1067" on="1"/>
        <pt x="1310" y="1067" on="0"/>
        <pt x="1466" y="867" on="1"/>
        <pt x="1515" y="804" on="0"/>
        <pt x="1547" y="725" on="0"/>
        <pt x="1546" y="669" on="1"/>
        <pt x="1545" y="631" on="1"/>
      </contour>
    </TTGlyph>
    <TTGlyph name="igrave" xMin="485" yMin="-253" xMax="1313" yMax="986">
      <contour>
        <pt x="864" y="986" on="1"/>
        <pt x="1313" y="365" on="1"/>
        <pt x="864" y="-253" on="1"/>
        <pt x="485" y="-253" on="1"/>
        <pt x="924" y="365" on="1"/>
        <pt x="485" y="986" on="1"/>
      </contour>
    </TTGlyph>
    <TTGlyph name="j" xMin="157" yMin="-425" xMax="1703" yMax="1108">
      <contour>
        <pt x="1703" y="564" on="1"/>
        <pt x="699" y="-425" on="1"/>
        <pt x="319" y="-425" on="1"/>
        <pt x="157" y="-286" on="1"/>
        <pt x="157" y="124" on="1"/>
        <pt x="1181" y="1108" on="1"/>
        <pt x="1563" y="1108" on="1"/>
        <pt x="1703" y="976" on="1"/>
      </contour>
      <contour>
        <pt x="1626" y="620" on="1"/>
        <pt x="1625" y="912" on="1"/>
        <pt x="1504" y="1032" on="1"/>
        <pt x="1236" y="1032" on="1"/>
        <pt x="238" y="77" on="1"/>
        <pt x="238" y="-234" on="1"/>
        <pt x="362" y="-349" on="1"/>
        <pt x="663" y="-349" on="1"/>
      </contour>
    </TTGlyph>
    <TTGlyph name="k" xMin="160" yMin="-420" xMax="1668" yMax="1074">
      <contour>
        <pt x="1124" y="1074" on="1"/>
        <pt x="1528" y="1074" on="1"/>
        <pt x="1668" y="939" on="1"/>
        <pt x="1668" y="532" on="1"/>
        <pt x="702" y="-420" on="1"/>
        <pt x="298" y="-420" on="1"/>
        <pt x="160" y="-288" on="1"/>
        <pt x="160" y="116" on="1"/>
      </contour>
    </TTGlyph>
    <TTGlyph name="l" xMin="856" yMin="-367" xMax="1012" yMax="1100">
      <contour>
        <pt x="1012" y="-367" on="1"/>
        <pt x="856" y="-367" on="1"/>
        <pt x="856" y="1100" on="1"/>
        <pt x="1012" y="1100" on="1"/>
      </contour>
    </TTGlyph>
    <TTGlyph name="less" xMin="382" yMin="-432" xMax="1292" yMax="1075">
      <contour>
        <pt x="1282" y="-432" on="1"/>
        <pt x="1131" y="-432" on="1"/>
        <pt x="382" y="320" on="1"/>
        <pt x="1140" y="1075" on="1"/>
        <pt x="1292" y="1075" on="1"/>
        <pt x="530" y="320" on="1"/>
      </contour>
    </TTGlyph>
    <TTGlyph name="logicalnot" xMin="443" yMin="-308" xMax="1453" yMax="1025">
      <contour>
        <pt x="443" y="-308" on="1"/>
        <pt x="443" y="1025" on="1"/>
        <pt x="942" y="1025" on="1"/>
        <pt x="1071" y="1025" on="0"/>
        <pt x="1143" y="1012" on="1"/>
        <pt x="1240" y="996" on="0"/>
        <pt x="1307" y="950" on="1"/>
        <pt x="1374" y="901" on="0"/>
        <pt x="1412" y="821" on="1"/>
        <pt x="1453" y="738" on="0"/>
        <pt x="1453" y="639" on="1"/>
        <pt x="1453" y="469" on="0"/>
        <pt x="1346" y="351" on="1"/>
        <pt x="1237" y="234" on="0"/>
        <pt x="957" y="234" on="1"/>
        <pt x="618" y="234" on="1"/>
        <pt x="618" y="-308" on="1"/>
      </contour>
      <contour>
        <pt x="618" y="391" on="1"/>
        <pt x="960" y="391" on="1"/>
        <pt x="1129" y="391" on="0"/>
        <pt x="1201" y="454" on="1"/>
        <pt x="1272" y="519" on="0"/>
        <pt x="1272" y="634" on="1"/>
        <pt x="1272" y="717" on="0"/>
        <pt x="1230" y="777" on="1"/>
        <pt x="1188" y="837" on="0"/>
        <pt x="1120" y="856" on="1"/>
        <pt x="1071" y="868" on="0"/>
        <pt x="957" y="868" on="1"/>
        <pt x="618" y="868" on="1"/>
      </contour>
    </TTGlyph>
    <TTGlyph name="m" xMin="290" yMin="-109" xMax="1548" yMax="724">
      <contour>
        <pt x="290" y="-109" on="1"/>
        <pt x="290" y="707" on="1"/>
        <pt x="434" y="707" on="1"/>
        <pt x="434" y="591" on="1"/>
        <pt x="539" y="719" on="0"/>
        <pt x="715" y="719" on="1"/>
        <pt x="911" y="719" on="0"/>
        <pt x="973" y="575" on="1"/>
        <pt x="1024" y="646" on="0"/>
        <pt x="1132" y="692" on="1"/>
        <pt x="1207" y="724" on="0"/>
        <pt x="1275" y="720" on="1"/>
        <pt x="1322" y="717" on="1"/>
        <pt x="1408" y="711" on="0"/>
        <pt x="1482" y="640" on="1"/>
        <pt x="1548" y="574" on="0"/>
        <pt x="1548" y="445" on="1"/>
        <pt x="1548" y="-109" on="1"/>
        <pt x="1391" y="-109" on="1"/>
        <pt x="1391" y="456" on="1"/>
        <pt x="1391" y="528" on="0"/>
        <pt x="1341" y="569" on="1"/>
        <pt x="1296" y="605" on="0"/>
        <pt x="1227" y="605" on="1"/>
        <pt x="998" y="605" on="0"/>
        <pt x="998" y="363" on="1"/>
        <pt x="998" y="-109" on="1"/>
        <pt x="840" y="-109" on="1"/>
        <pt x="840" y="420" on="1"/>
        <pt x="840" y="553" on="0"/>
        <pt x="745" y="596" on="1"/>
        <pt x="711" y="603" on="1"/>
        <pt x="674" y="606" on="1"/>
        <pt x="624" y="611" on="0"/>
        <pt x="548" y="572" on="1"/>
        <pt x="447" y="521" on="0"/>
        <pt x="447" y="313" on="1"/>
        <pt x="447" y="-109" on="1"/>
      </contour>
    </TTGlyph>
    <TTGlyph name="macron" xMin="118" yMin="-439" xMax="1730" yMax="1123">
      <contour>
        <pt x="1388" y="495" on="1"/>
        <pt x="1424" y="387" on="0"/>
        <pt x="1424" y="301" on="1"/>
        <pt x="1424" y="96" on="0"/>
        <pt x="1127" y="-200" on="0"/>
        <pt x="922" y="-200" on="1"/>
        <pt x="874" y="-198" on="1"/>
        <pt x="828" y="-191" on="1"/>
        <pt x="784" y="-181" on="1"/>
        <pt x="747" y="-169" on="1"/>
        <pt x="655" y="-128" on="0"/>
        <pt x="602" y="-84" on="1"/>
        <pt x="246" y="-439" on="1"/>
        <pt x="118" y="-308" on="1"/>
        <pt x="486" y="55" on="1"/>
        <pt x="424" y="148" on="0"/>
        <pt x="424" y="301" on="1"/>
        <pt x="424" y="507" on="0"/>
        <pt x="721" y="802" on="0"/>
        <pt x="922" y="802" on="1"/>
        <pt x="1064" y="802" on="0"/>
        <pt x="1179" y="734" on="1"/>
        <pt x="1585" y="1123" on="1"/>
        <pt x="1730" y="989" on="1"/>
        <pt x="1333" y="593" on="1"/>
      </contour>
    </TTGlyph>
</ttFont>
